<?xml version="1.0" encoding="utf-8"?>
<!-- Generator: Adobe Illustrator 18.1.1, SVG Export Plug-In . SVG Version: 6.00 Build 0)  -->
<svg version="1.1" id="Layer_1" xmlns="http://www.w3.org/2000/svg" xmlns:xlink="http://www.w3.org/1999/xlink" x="0px" y="0px"
	 viewBox="0 0 300 50" enable-background="new 0 0 300 50" xml:space="preserve">
<g>
	<g>
		<path d="M299.8,42.7c-0.1-1.2-0.2-2.5-0.4-1.8c0.2,1.2,0.1,1.5,0.3,2.7c0,1-0.1,1.8-0.1,1.6c0,0.4,0,1.6,0.1,2.1
			c0.1-1.3,0.1-3,0-4.7C299.7,42.3,299.8,42.7,299.8,42.7z M243.6,0.5l-0.6,0C243.2,0.5,243.4,0.5,243.6,0.5z M182.1,0.4
			c0.5,0,0.7,0,0.7,0C182.4,0.4,182,0.4,182.1,0.4z M171.7,0.2c0.2,0,0.4,0,0.6,0C172.1,0.2,171.9,0.2,171.7,0.2z M242.9,0.5
			l-1.6-0.1C241.2,0.5,242.1,0.5,242.9,0.5z M299.4,29.2c0,0.3,0,0.6,0,0.9C299.4,29.8,299.4,29.5,299.4,29.2
			C299.4,29.2,299.4,29.2,299.4,29.2z M269.7,0.4h0.5c0.1,0,0.3,0,0.4-0.1L269.7,0.4z M290.3,0.4c-0.5,0-0.6,0.1-0.8,0.2
			c0.3-0.1,0.6-0.1,1-0.1C290.5,0.4,290.5,0.4,290.3,0.4z M300,23.8c0,0.2,0,0.4,0,0.6L300,23.8z M255,0.3c0,0-0.1,0-0.2,0
			C254.8,0.3,254.9,0.3,255,0.3z M276,48.8C275.9,48.8,276,48.8,276,48.8C276.1,48.8,276.1,48.8,276,48.8z M152.7,0.1
			C152.8,0.1,152.8,0.1,152.7,0.1C153.3,0,153,0,152.7,0.1z M0.2,24.2c0.1-2,0.2,3.2,0.3,0.2C0.5,24.7,0.3,21.8,0.2,24.2z
			 M299.4,28.7c0-0.3,0-0.6,0-0.8C299.4,28.2,299.4,28.5,299.4,28.7z M109.4,0.2c0,0-0.1,0-0.4-0.1C109.1,0.2,109.2,0.2,109.4,0.2z
			 M141.6,0.3c-0.2,0-0.5,0-0.8,0L141.6,0.3z M90.8,0.3c0.1,0,0.1,0,0.2,0c0.2,0,0.4,0,0.6,0C91.4,0.3,91.2,0.3,90.8,0.3z M74.1,0.3
			c0.1,0,0.2,0,0.3,0c0.2,0,0.4,0,0.6,0L74.1,0.3z M222.4,48.9c0.4,0,0.6,0.1,0.8,0.1C222.9,48.9,225.5,48.9,222.4,48.9z
			 M299.5,29.2c0-0.1-0.1-0.3-0.1-0.5C299.4,28.9,299.4,29.1,299.5,29.2C299.4,29.3,299.5,29.3,299.5,29.2z M91.3,1.4l-2.8,0
			C89.3,1.4,90.3,1.4,91.3,1.4z M96.6,48.9c-0.2,0-0.5,0-0.6,0L96.6,48.9z M79.9,1.4c-0.5,0-1-0.1-1.6-0.1c-0.1,0-0.2,0-0.3,0
			L79.9,1.4z M187.6,1L187.6,1C187.6,1,187.6,1,187.6,1L187.6,1z M299.7,38.5c0-0.1,0-0.2,0-0.3L299.7,38.5z M299.9,10.2
			c0-0.5,0-1.4,0.1-1.2c-0.1-1.7-0.1,0.3-0.2-0.7c0.1-2.2-0.1-6.1,0.2-6.6c-0.1-0.8-0.1,2.1-0.2-0.3c0.1-0.2,0.1-0.4,0.1-0.8
			c-0.3,0-0.6,0-0.9,0c-0.3,0-0.6,0-1,0c-0.7,0-1.5,0-2.3,0c0.6-0.1,2.6-0.1,0.5-0.2c-1.2,0.2-4,0-5.7,0c-0.1,0.2-3.7,0.1-6.6,0.1
			c0.2-0.1-5.4-0.1-8.1-0.2l0.1,0c-0.5,0.2-3.3,0.1-5.3,0.2c0.1-0.1,0.4-0.2,1.5-0.2l-1.9,0c-0.4,0.1-1,0.1-2.3,0.1l0.5-0.1
			c-2.5,0-5.1,0.2-8.3,0.1c-0.2,0.1,2.6,0.4-0.8,0.4c-0.1-0.1-0.3-0.2,0.6-0.2c-0.3,0-1,0.1-1.6,0l1.4-0.1c-1.5-0.1-0.8,0.1-2,0.1
			c0-0.1-0.9-0.1-0.7-0.1c0.3,0,1,0,1.5,0c-1.3,0-2.9-0.1-3.5-0.2c0.1,0.1,0,0.1-1,0.1c-2.5,0-0.9-0.1-2.3-0.2
			c-0.6,0.1-2.2,0-2.3,0.1c-0.7,0-0.9-0.1-1.2-0.1c-1.3,0.1-6.1,0-4.6,0.2l0.3,0c-0.1,0-0.1,0-0.2,0c-4.3,0.1-8.9-0.1-13.1,0l0,0
			c-2.5,0.1-5.6,0-7.4,0.1c-0.7,0-1.8-0.1-1.4-0.1c-1.9,0-2.2,0.1-4.9,0c1.9-0.1-0.7-0.1,2-0.1c-2.5,0-3.1-0.1-5.8,0
			c0.9-0.1-1.9-0.2-3.1-0.1l1.8,0.1c-1.3,0-2.5,0-3.7,0l0.6-0.2c-5.1-0.2-9.3,0.3-13.2,0c-1.4,0.1,2.8,0.1,1.6,0.2
			c-2.4,0-4.8-0.3-5.6-0.3c-3.2-0.1-3,0.2-6.4,0.2c0.4,0.1,0.8,0.2-1.7,0.3c-2.4,0-2.9-0.2-1.4-0.3c0.6,0,0.8,0,0.8,0
			c0.8,0,1.8,0,0.8-0.1l-0.3,0.1c-1.2-0.1-4.4-0.1-3.7-0.2c-1.8,0.1-0.8,0.1,0.6,0.1c-3-0.1-4.7,0-7.9-0.1c0.5,0,1,0.1,0.5,0.1
			c-4.6-0.1-2,0.1-5.1,0.1c-1.8-0.1,0.6-0.2-2.5-0.1c-1.9-0.1-0.4-0.2,0.4-0.2c-2.8,0.1-5.3-0.1-6.9-0.1l1.5,0c-0.9,0-1.6,0-2.4,0
			l0.9,0.1c-0.9,0-1.6,0-1.6-0.1c-0.9,0.1,0.7,0.2-1.1,0.3c-1.2-0.1-3.6,0.1-4-0.1c3.7,0.1-0.4-0.2,2.7-0.2c-0.6,0-1.3,0-2.2,0
			c-0.1,0,0.1,0,0.4,0c-3.5-0.1-1.6,0.2-5.3,0.2c0.5-0.1-0.8-0.2-1.4-0.1c1.5,0,0.7,0.1-0.6,0.2c-2.3-0.1-2.6,0.1-3.8,0l1.4,0
			c-0.5,0.1-1.6,0.1-3.3,0.1c-0.1-0.1,1.5,0,0.9-0.1c-1.8,0.2-4.1-0.2-6.6-0.1c-1.2-0.1-0.1-0.2-1.1-0.2c-2.8,0.1-3.1-0.1-6.1,0
			c0.9,0.1,1,0.1-1.1,0.2l4.9-0.1l-3.1,0.2c1.5,0,3.1-0.1,4-0.1c-1.5,0.1-1.3,0.1-0.6,0.2c-2-0.2-4,0.1-6.4,0l0.1-0.3
			c-3.5-0.1-6.3,0.2-10.8,0.1l1.5,0.1c-0.6,0.1-2.8,0-4.3,0.1c0.1-0.1-0.8-0.1-1.4-0.2c0.1,0.1-3.3,0-3.8,0.2l-2-0.1
			c-3.7-0.1-4.2,0.3-7.8,0.2c1.1-0.1-0.5-0.2,1.8-0.3c-1.2,0-2.3,0-2.3,0c-0.7-0.1-3.3,0.1-4.4,0c-0.5,0-0.7,0.1-2,0.1
			c-0.1,0-0.1,0,0,0c-0.3,0-2,0.1-0.9,0.2c-3.7-0.3-10.5,0-13.7-0.2c-2.6,0-6.4,0.1-8.7,0.1c0.2,0,0,0,0.5,0c-3.2-0.1-2,0.3-5.7,0.2
			c-1.9-0.2,2-0.1,0.8-0.1c-0.5-0.3-4.4,0-6.9-0.1l0.6,0c-1.9-0.1-4.6,0.1-7.7,0.1c0,0,0.2,0,0,0c-2.1,0.2-6.1,0.2-9.1,0.3
			c0.9-0.1,1.4-0.1,0.8-0.2c-1.3,0,0.4,0.2-2.3,0.2c-0.9-0.1-2.8-0.1-3-0.3l2.5,0c-1.3-0.2-3.3,0-4.6,0l0.2-0.1
			c-3.9,0-3.9,0.2-8.1,0.2L24,0.5c-2.3,0.2-1.9-0.1-4.2,0l-0.7-0.2c-1.5,0-5.2,0.2-7.9,0.2c1.5-0.1,4.7-0.2,6.6-0.3
			c-1.5,0-5,0-5.8,0.1c0.6,0,1.3-0.1,1.9,0c-1.8,0.2-4.2,0.2-7.2,0.2C7,0.5,6.3,0.4,5.1,0.4c-1.3,0-3,0-4.7,0c0,1.3,0,1.9,0,2.6
			c0,0.7-0.1,1.2-0.1,1.6c0.1,5.2-0.1,10.4,0,16.4c0.3-2.2,0,1.8,0.3,1.4c0,1.4,0,1.9,0,2.1l0-0.3c0,0.1,0,0.2,0,0.3h0l-0.2,5
			c-0.1,1-0.1-1.3-0.1-1.2c0,3.1-0.1,1.3-0.2,3.4c0.1-0.4,0.2,1.1,0.1,2.8L0.3,32c0.2,4.3-0.3,3.7-0.1,8.1l-0.1-1.4
			c0,1.1,0,3.2,0.1,5.3c0,1,0,2.1,0.1,3c0,0.5,0,0.9,0.1,1.3c0,0.5,0.1,0.9,0.1,1.3c0,0.2,0,0.3,0,0.5c0.3,0,0.5,0.1-0.1,0.1
			c0-0.1,0-0.3,0-0.6c0,0.2,0,0.4,0,0.6c0.9,0,1.8,0,2.7,0c0.7,0,1.4,0,2.1,0c1.4,0,2.8,0,4.2-0.1c2.8,0,5.4-0.1,7.4,0l-0.4,0.1
			c1,0,1.7-0.1,3-0.1c-0.1,0-0.4,0.1,0.1,0.1c0.5,0,2.7-0.1,4-0.1L22,50.1c5.2,0.1,8-0.2,12.4-0.3c0,0.2,4.1,0.3,6.2,0.3l-0.1,0
			c6.1,0,10.3-0.2,16-0.3C60,50.2,69,50,74.6,50.2c-0.9,0,0.1-0.2,1.1-0.2c1.3,0,3.6-0.2,3.4,0l-0.5,0c1,0.2,3.7,0.1,5.8,0.2
			l0.3-0.3c5.5,0.4,14.8-0.1,17.9,0.2c1.3,0,3-0.1,4.3-0.1l-0.1,0.1c3.7,0,5.6,0.1,10.1,0l-0.9,0.1c2.6,0,3.3-0.4,5.6-0.4l0.7,0.2
			c4.5,0,9.1,0.2,13.5,0c-0.1,0-0.2,0.1-0.9,0.1c2.1,0,8.2,0.1,7.4-0.1c0.1,0.2,4.6,0,7.1-0.1l-0.4,0.1c2.1-0.2,2.1-0.2,5-0.3
			c0.7,0,0.6,0.1-0.3,0.1c2.3,0.1,1.8-0.1,4.5-0.1l-1,0.1c2.3,0,2.1,0,3.4-0.1c1.5-0.1,4.4,0,4.8,0.2c0.3-0.1,1.6-0.2,3-0.1
			c0.2,0-0.3,0.1-0.6,0.1c3.9,0.1,5.8-0.2,8.5,0c0.1,0,0.2,0.1,0.5,0.1c-2.8,0-5.2,0-5.4,0c0,0.1,2.5,0.2,0.5,0.3
			c2-0.1,5.4-0.3,7.9-0.2c0.1,0,0.2,0,0.3,0l-0.3,0c0.6,0,1.1,0,1.5,0c0.8,0,1.3,0,2,0c0.3,0.1,2.9,0.1,4.1,0.1
			c-0.1-0.1,1.5-0.1,0-0.2c0.2,0-0.2,0-1.1,0c-0.2,0-0.4,0-0.5,0c0,0,0.1,0,0.1,0c-0.8,0-1.9,0-3.1,0c1-0.1,2-0.1,3.4-0.1
			c0.6-0.1,1.3-0.2,1.7-0.2c1.7,0.2,5,0.3,5.5,0.4c3.8-0.1,9-0.1,11.4-0.3c1.1,0,1.2,0.1,1.6,0.1c-0.6,0-1.4,0-1.7,0.1
			c2.2-0.1,6.4,0,6.9-0.2c2.7,0.1-1.5,0.2,2.2,0.1l-0.5,0.1c7.4,0.3,12-0.5,20.2-0.1c-0.6,0-0.8,0-1-0.1c9.3,0.2,19.2-0.2,28.4,0.1
			c2.6,0.1,2.9-0.1,4.5-0.2l0.6,0.2l2.7-0.2c3.9-0.1,6.7,0.4,11.6,0.1l-0.6-0.1c1.8,0,5.6-0.1,5.3,0.1c0.2,0,0.6-0.1,1.3-0.1
			l0.1,0.1l4.3-0.1c3.3,0.1-0.5,0.3,4.4,0.3c1.8,0,5.2-0.2,4.5-0.3c-0.7,0-1.9,0-1.9-0.1l1.7,0c0,0,0,0,0,0c0,0,0,0,0,0l0,0
			c0,0-0.1,0.1-0.1,0.1l0.1,0c0,0.1,0,0.1,0.1,0l0.2-0.1l-0.2,0c0,0,0,0,0-0.1c0.2-0.1,0.6-0.3,0-0.4c0-0.1,0-0.3,0-0.5l-0.2-0.7
			l0,1.1c-0.4-0.1-1.2-0.1-2.5-0.2l-2.8,0.1l-0.9-0.1l2.4,0c-1.4-0.1-2.2,0-3.2,0.1c-0.2-0.1-0.6-0.1-1.2-0.1l-2.8,0.2
			c-0.3-0.1,1.3-0.2-0.6-0.2c-1.3,0.1,1.3,0.2-0.9,0.3c-1.4-0.1-1-0.2-2.6-0.1c-0.2-0.1,0.1-0.1,0.7-0.1c-1.4,0.1-3.8,0-4.5,0.2
			c-1.4-0.1-4.8,0-4.7-0.2c-0.4,0.1-2.5,0.2-3.8,0.2c2.4-0.3-4.9,0-4.3-0.3c-1.8,0.2-6.4,0.1-9.5,0.2c0.2,0,0.5-0.1,0.8,0
			c-1.8,0-2.3-0.1-3.4-0.1c-0.2,0.2-3,0.2-4.4,0.4c-2.2-0.2,1.3-0.2,0.6-0.4c0.1,0.2-3.7,0.2-3,0.3c-1.6-0.1-1.4-0.1-2.3-0.2
			c-0.3,0.2-1.5,0-2.9,0.2c-2.4-0.1-0.6-0.2-3.2-0.2c-1.2-0.1,1.1-0.2,1.1-0.2c-2.7,0-1.3,0.2-1.8,0.3c-3.2,0.1-1.5-0.1-2.6-0.2
			c-2,0-3.5,0.2-5,0.2c-0.1,0-0.4,0-0.1-0.1c-2.1,0.1-6.2,0-8.7,0.2c-0.2,0-0.3,0-0.3,0c0.4,0.1,0.5,0.2,0.4,0.3
			c-1.2,0-2.2,0.1-2.7,0c0.7,0,0.8,0,1.1-0.1l-1.3,0.1c-1.1-0.2,1.7-0.1,1.7-0.2c-2.4,0.1-5.3,0.2-7.2,0.2c-0.4-0.2,4.4-0.1,1.9-0.2
			l2.9,0.1c-2.2-0.3,1.8,0-0.3-0.3c-3.8,0-4.3,0.1-8.1,0c-0.9,0.1,0.3,0.1-0.6,0.2c-5.4,0.2-4.3-0.4-8.2-0.2c-1,0.1-1.4,0.3-4.3,0.2
			l1-0.2c-3.7,0-2.1,0.3-6,0.1c0.7-0.1,2.9-0.1,2.3-0.1c-2.5-0.2-1.8,0.1-3.7,0.1l-0.4-0.2c-3.9,0.1-8.3,0.1-12.6,0.2
			c0.2-0.1,1-0.1,0-0.2c-5.5,0.1-11.7,0-17-0.1l-2,0.1c-0.5,0-0.9-0.1-0.4-0.1c-2.1-0.1-0.1,0.1-1.1,0.2c-1.2,0-1.6-0.1-0.8-0.1
			c-3.6,0.1-10.4,0.3-14.2,0.1l0.7,0c-3-0.1-3.4,0.3-6.1,0.2l0.5,0c-6.5-0.1-13.7,0.1-18.6-0.2c-0.9,0.2-6.4-0.1-6.8,0.2
			c-3.7-0.1-2.6-0.2-7.9-0.3c-1.4,0-2.1,0.2-3.8,0.2l0-0.2L99.5,49l-1.2-0.2l-1.6,0c0.6,0,1.4,0.1,1.3,0.1c-1.3,0-2.8,0-4,0
			c-1.2,0-2.2-0.1-2.2-0.1L85.4,49c0.1,0,0.7-0.1,1.3-0.1c-2.2,0.1-0.2-0.2-2.9,0c0.4,0-0.2,0.1-0.3,0.1c-1.5-0.1-4.8-0.1-7.2-0.1
			l0.5-0.1c-4.4,0-10,0-15,0c1.8,0,1.4,0.2-0.1,0.3l-0.6-0.2c-0.9,0.1,1.5,0.1-0.4,0.2c-1.9,0-1.2-0.2-0.2-0.2l-2.3,0.1
			c-0.1,0,0.4-0.1,0.5-0.1c-0.9,0.1-3.9-0.2-5.2,0l-0.1,0c-5,0-7.2,0-11.3,0.1c-0.1,0.1-1.7,0.1-2.9,0.2c-3,0-6.3-0.2-9.9-0.1
			c-2.5,0.1-0.7,0.1-1.9,0.2c-0.2-0.1-3.8-0.1-1.9-0.2c-4.3,0-5.5,0-10.9,0.1c0.6,0.1,1.3,0.1,0.9,0.1c-1,0-2.2-0.1-2.1-0.1l0.3,0
			c-2,0.1-4.2,0-6.4,0c-1.1,0-2.2-0.1-3.3-0.1c-0.6,0-1.1,0-1.6,0c-0.3,0-0.5,0-0.8,0l-0.2,0l0-0.2c0-0.3,0-0.5,0-0.8
			c0-0.5,0-1,0-1.5c0-1,0-1.9-0.1-2.8l0,0.3l-0.1-5c0-2.3,0.1,1.4,0.2-0.3c-0.2-5.4,0-9.3-0.1-13.8c0.4-3.5,0-12.3,0.2-17L1.5,7.9
			C1.4,6.7,1.5,6.5,1.5,5.6C1.5,5.7,1.5,6.9,1.4,6.1c0-1.6,0-3.2,0-4.8c4.1,0,8.3,0.1,12.5,0.1c4.4,0,8.8,0.1,13.1,0.1
			c3.8,0,2.2-0.5,7-0.2l-1.4,0.2c7.8-0.2,15.8,0,23.4-0.2c-0.5,0-0.5,0.1-1.2,0.1c0.8,0.1,2.3,0.1,3.6,0c1.3,0,2.4-0.1,2.4-0.1
			c1.2,0,0.3,0.1,1,0.1c1.6,0.1,4-0.2,4.9,0c0.1,0-0.1,0-0.4,0c1.4,0,5.1,0,4.2-0.1c2.8,0.1,5.4-0.1,7.7,0c1.5-0.2,4.9,0.1,5.3-0.1
			c-0.2,0.2,5.3,0.2,7.1,0.1c-0.6,0.1,1.6,0.1,0.9,0.2c2.1,0,3.9,0,3.6-0.2c3.8,0.3,7.6-0.2,9.7,0.1c6.1-0.1,11.8-0.2,17.2-0.3
			c-0.2,0.2-6.1,0-5.8,0.3c5.2-0.1,8.2-0.3,13.4-0.2c1.3,0-0.8,0.1-1.2,0.1c5.2-0.1,10.1,0,14.7-0.1c0,0-0.5,0-1,0.1
			c0.9,0,2.1,0,2-0.1l-0.9,0c-1.5-0.1,3.6-0.3,3.8-0.4c-1.5,0.3,4.6,0.1,2.1,0.4c0.6,0,1.4-0.1,1.2-0.1c0.9,0,1.2,0.1,0.3,0.1
			c3.3-0.1,2.1-0.2,5.1-0.2c0,0-0.6,0.1-0.9,0.1c1.5-0.1,3-0.2,5.5-0.2c-0.1,0,0,0.1-0.3,0.1c4.1,0,7.2-0.3,11.8-0.2
			c-1.4,0.2,1.6,0.1,1.9,0.3l2.5-0.1l-1-0.1c2.2,0,4.2-0.1,6.1-0.1l-1.7,0.1l4.2,0L181.5,1c2.2-0.1-0.2-0.2,2.7-0.2
			c-0.6,0,2.2,0,3.4,0.1c1.1-0.1,2.2-0.1,3.9-0.1c0.4,0.1-0.3,0.2-0.1,0.2c1.1-0.2,5.2,0,6.6-0.2c-0.5,0-0.5,0.1-0.3,0.2l0.9-0.1
			c1,0,1.2,0.1,1,0.1c3.1,0-1-0.2,2.7-0.1c-0.3,0-0.2,0-0.8,0c3.7,0.1,7.1-0.1,10.5,0c1,0.2-3,0-1.8,0.2c4.9,0,10.1-0.2,14.9-0.2
			l-0.9,0c0.7-0.3,3.5,0.1,5.9,0c-0.6,0-0.8,0.1-0.6,0.1c3.2,0,6.6-0.1,11.5-0.1L240.4,1c1.9,0.1,5,0,7.1,0.1
			c0.6-0.1,1.8-0.1,1.1-0.2c6.4,0.4,12.1-0.2,17.8,0.1c-0.7,0-1.6,0.1-1.1,0.1L270,1c-0.4-0.1-0.6-0.1-1.6-0.2
			c0.6-0.1,2-0.1,3.2-0.1c-2.2,0.1,0,0.2,1,0.3c-0.2,0,0.2-0.1,0.1-0.1c2.5,0.2,0.4-0.2,3.8-0.1l-0.2,0.1c1.3,0,2.5-0.1,3.8-0.1
			c0.6,0.1-1.4,0.1-1.5,0.2c1.9,0,3.8-0.3,5.6-0.1c-0.8,0-2,0.1-2.8,0.1c1.9,0.2,2.1,0.1,3.6,0.1l-0.1,0l3.3,0.1l-0.8,0
			c2.4-0.3,5-0.1,8.2-0.3c-3.2,0.2-0.5,0.1-0.8,0.3c0.8,0,2.1,0.1,1.7,0.1c0.6,0,1.1,0,1.6,0c0.3,0,0.5,0,0.8,0c0.2,0,0.3,0,0.5,0
			c0,0.3,0,0.6,0.1,1c0,0.1,0,1.7-0.1,1.3c0,2,0.1-0.5,0.1-0.3c0.2,3.1-0.2,7.3,0,11.8c0.1,3.8,0.3,4.6,0.3,8.1
			c-0.1,1.2-0.2-1-0.2-1c-0.1,1.9-0.1,4.2,0,6c0-0.4-0.1,0-0.1,0.6c0,1.5,0.2,1,0.1,2.9c-0.1-0.3-0.1-0.8-0.2-1.5
			c0.1,1.7,0.1,3.4,0.2,5.2c-0.1,0.5-0.1-1.1-0.2-1.7c0,2,0.1,5.2,0.2,5.8l0-1c0,0.2-0.1-0.1-0.1-0.5c-0.1-1.7,0-2.5,0.1-2.6l0,1.3
			c0.3-1.3,0-5.1,0-7.7l0.2,1.1l-0.2-2.6c0.1-0.6,0.2-0.9,0.2,0.3c0.1-1.8-0.1-2.4,0-4c0-0.2,0-0.1,0,0.1l-0.1-1.8
			c0,0.4,0.1-0.3,0.1,0.8c0.1-3.2-0.2-5.2,0-6.4l0,0.3c-0.1-4.5-0.2-0.4-0.3-3.8l0.4-2.3L299.9,10.2z M185.4,50
			C185.4,50,185.5,50,185.4,50c0,0-0.1,0-0.2,0.1c-0.8,0-1.1,0-1.2,0C184.4,50.1,184.8,50,185.4,50z M179.3,49.1c0.5,0,1,0,1.3,0
			C180.4,49.1,180,49.1,179.3,49.1L179.3,49.1z M176.4,49.1c0.2,0,0,0.1-0.5,0.1c0.3,0-0.9-0.1-1.7-0.1
			C174.7,49.1,175.5,49.1,176.4,49.1z M186.7,49.9c0.1,0,0.2,0,0.3,0c-0.2,0-0.3,0-0.5,0c-0.1,0-0.2,0-0.3,0
			C186.4,49.9,186.5,49.9,186.7,49.9z M243.6,0.5c0.1,0,0.2,0,0.2,0c-0.1,0-0.1,0-0.1,0L243.6,0.5z M101.8,48.9L101.8,48.9l0.5,0
			L101.8,48.9z M272.5,1c0.1,0,0.2,0,0.4,0C272.9,1,272.7,1,272.5,1z M285.7,1.1c0.3,0,0.7,0,1.1,0L285.7,1.1z M294.5,1.1
			c0.1,0,0.2,0,0.2-0.1l0,0L294.5,1.1z M142.2,1.3c-0.1,0-0.3,0-0.4,0C141,1.3,141.6,1.3,142.2,1.3z M187.6,1c-0.5,0-1,0-1.5,0.1
			C186.9,1,187.5,1,187.6,1z M91.6,1.5C91.6,1.5,91.6,1.5,91.6,1.5l-0.3,0L91.6,1.5z M184,1c0.8,0,1.5,0,2.1,0
			C185.4,1,184.7,1,184,1z M299.4,38.2C299.4,38.2,299.4,38.2,299.4,38.2l0-0.5L299.4,38.2z M299.4,38.8c0-0.2,0-0.4,0-0.5
			L299.4,38.8z M299.4,39.9l0-1.1C299.4,39.2,299.4,39.6,299.4,39.9z M299.4,20.5c0,0.9-0.1,2.3-0.1,3.6l0,0.1
			C299.3,23.6,299.5,21.3,299.4,20.5z M300.1,4.4l0,3.2c0.1-0.6,0.1-1.3,0.1,0.2C300.3,3.7,300,8.6,300.1,4.4z M293.5,0.3
			c-1.1,0-1.4,0.1-0.1,0.1C295.2,0.4,293.4,0.3,293.5,0.3z M221.1,0.4l0.2-0.1C219.9,0.3,221.2,0.3,221.1,0.4z M209.2,1l-1.9,0
			l1.3,0.1L209.2,1z M199.7,0.2l-2.2,0l1.6,0L199.7,0.2z M77.2,0.2l0.4,0.2C78.5,0.3,78.7,0.2,77.2,0.2z M24.1,0.4
			c-0.6-0.1-2-0.1-3-0.1C22.3,0.3,23.5,0.4,24.1,0.4z M86.5,50.2l2.3,0l-0.9,0L86.5,50.2z"/>
	</g>
</g>
</svg>
