<?xml version="1.0" encoding="utf-8"?>
<!-- Generator: Adobe Illustrator 18.1.1, SVG Export Plug-In . SVG Version: 6.00 Build 0)  -->
<svg version="1.1" id="Layer_1" xmlns="http://www.w3.org/2000/svg" xmlns:xlink="http://www.w3.org/1999/xlink" x="0px" y="0px"
	 viewBox="0 0 40 40" enable-background="new 0 0 40 40" xml:space="preserve">
<g>
	<g>
		<path d="M13.9,21.2h3v8h4v-8h3.4l1.4-4h-4.8v-2h5v-4h-5.5c-1.9,0-3.5,1.6-3.5,3.6v2.4h-3V21.2z M9.9,37.5c-0.2-0.1-0.1,0-0.2,0
			C10,37.6,9.9,37.4,9.9,37.5z M12.7,38.6l0.5,0.1L12.7,38.6L12.7,38.6z M13.9,38.9l-0.3,0c0.3,0.1,0.6,0.2,1,0.2
			c0.3,0.1,0.6,0.1,0.8,0.2C15.3,39.2,14.5,39.2,13.9,38.9L13.9,38.9z M16.6,39.9C16.6,39.9,16.6,39.9,16.6,39.9
			c0.1,0,0.2,0,0.4,0.1C16.8,39.9,17.3,40,16.6,39.9z M16.6,39.9C16.3,39.9,16.8,40,16.6,39.9L16.6,39.9z M17.6,40.1
			c0.1,0,0.4,0.1,0.3,0.1c0.4,0,0.3,0,0.1-0.1L17.6,40.1z M18.2,40c0,0,0.1,0,0.2,0c0,0-0.1,0-0.1,0C18.3,40,18.2,40,18.2,40z
			 M18,40c0,0,0,0-0.2,0l0.4,0C18.2,40,18.2,39.9,18,40z M17.4,39.8c-0.4,0-0.5,0-0.5,0c0,0,0.2,0.1,0.6,0.1
			C17.3,39.9,17,39.8,17.4,39.8z M15.4,39.2l-0.3,0C15.2,39.2,15.3,39.2,15.4,39.2c0.2,0.1,0.3,0.1,0.3,0.1c0,0-0.1,0-0.1,0
			C15.4,39.2,15.4,39.2,15.4,39.2z M20.1,40.1c0.2,0,0.4,0,0.5,0.1c0,0-0.1-0.1-0.2-0.1c0,0-0.1,0-0.1,0
			C20.1,40.1,20.1,40.1,20.1,40.1z M20.4,40.1l0.4-0.1C20.4,40,20.3,40.1,20.4,40.1z M18.1,39.9c-0.2,0-0.4,0-0.4,0
			S18,39.9,18.1,39.9c0.2,0,0.3,0,0.4,0c0.1,0,0.1,0,0.1,0l-0.1,0C18.5,39.8,18.3,39.9,18.1,39.9z M22.1,40.1c-0.1,0-0.1,0-0.1,0
			S22.1,40.1,22.1,40.1c0.2-0.1,0.3-0.1,0.3-0.1l-0.2,0.1C22.2,40.1,22.1,40.1,22.1,40.1z M23.4,40c0.3-0.1,0.5-0.2,0.8-0.3
			c-0.2,0.1-0.5,0.1-0.8,0.1C23.1,40,23.6,39.9,23.4,40z M21.5,40c0,0,0.1,0.1,0.4,0.1L21.7,40C21.7,40,21.6,40,21.5,40z M21.7,40
			L21.7,40c0.2,0,0.3,0,0.4,0C22,39.9,21.9,39.9,21.7,40z M19.6,40c0.3,0,0.8-0.1,0.3-0.2C19.7,39.8,20,39.9,19.6,40z M20.8,39.9
			C20.8,39.9,20.9,40,20.8,39.9c0,0.1,0.1,0.1,0.2,0c0.1,0,0.1,0,0.2,0c0,0,0.1,0,0.1,0s-0.1,0-0.2,0C20.9,39.9,20.8,39.9,20.8,39.9
			z M21.4,39.9L21.4,39.9l-0.2,0L21.4,39.9z M23.7,39.7c0.2-0.1,0.4-0.1,0.6-0.2c-0.3,0-0.5,0.1-0.8,0.1
			C23.6,39.7,23.4,39.7,23.7,39.7z M26.7,38.8C26.7,38.8,26.7,38.8,26.7,38.8C26.7,38.8,26.7,38.8,26.7,38.8L26.7,38.8z M23.5,39.6
			c-0.2,0-0.3,0.1-0.4,0.1C23.3,39.7,23.4,39.7,23.5,39.6C23.6,39.6,23.6,39.6,23.5,39.6z M24.8,39.4c0.1,0,0.3,0,0.3,0
			C25.1,39.4,25,39.4,24.8,39.4z M22.9,39.8C22.8,39.8,22.8,39.8,22.9,39.8C22.9,39.9,22.9,39.9,22.9,39.8z M22.9,39.8
			c0.1,0,0.2-0.1,0.3-0.1C23,39.8,22.9,39.8,22.9,39.8C22.8,39.8,22.8,39.8,22.9,39.8z M27.6,37.9c0,0-0.1,0.1-0.2,0.1
			c-0.1,0.1-0.2,0.1-0.2,0.1c0,0,0.1-0.1,0-0.1c0,0-0.1,0.1-0.3,0.2c-0.2,0.1-0.4,0.2-0.6,0.2c-0.4,0.2,0,0.4,0.4,0.4
			c0,0,0-0.1,0.4-0.3c-0.2,0-1,0.3-0.6,0.1c0.3-0.1,0.4-0.2,0.5-0.2c0.1,0,0.1,0,0.3,0C26.9,38.4,27.8,37.9,27.6,37.9
			C27.7,37.8,27.6,37.9,27.6,37.9z M25.9,39.1c-0.1,0-0.1,0-0.1,0L25.9,39.1l-0.3,0.1c0.2,0,0.4-0.1,0.7-0.1
			c0.3-0.1,0.3-0.2,0.3-0.2c0,0-0.2,0.1-0.4,0.1C26.1,39,26,39,25.9,39.1z M25.1,39.1c-0.5,0.2-0.4,0.2-0.7,0.3
			c0.9-0.2-0.2,0.1,0.4,0c-0.2,0.1-0.3,0.1-0.5,0.1c0.2,0,0.3-0.1,0.5-0.1c0,0,0,0,0,0l0,0l0,0c0,0-0.1,0,0,0c0,0,0,0,0,0
			c0,0,0,0,0,0c0.3,0,0,0,0,0c0,0,0,0,0,0c0,0,0,0,0,0c0,0,0.2-0.1,0.4-0.1c0.2-0.1,0.4-0.2,0.4-0.2c-0.2,0-0.4,0.1-0.8,0.2
			C25,39.3,25.4,39.1,25.1,39.1z M20.4,39.6C20.4,39.6,20.4,39.6,20.4,39.6C20.5,39.6,20.5,39.6,20.4,39.6z M20.4,39.7L20.4,39.7
			c0.4,0,0.9,0.1,0.8,0.1c-0.1-0.1-0.2-0.1-0.4-0.2C20.7,39.6,20.6,39.7,20.4,39.7c-0.1-0.1,0.1-0.1,0-0.1
			C20.3,39.6,20,39.7,20.4,39.7z M22.8,39.6c0,0,0,0,0.1,0c0.1,0,0.2,0,0.2-0.1c0.2,0,0.4-0.1,0.4-0.1l-0.4,0l0,0
			C22.8,39.5,22.9,39.5,22.8,39.6z M26.8,38.9c0,0,0.1-0.1,0.2-0.1c0.1-0.1,0.2-0.1,0.2-0.1l-0.3,0.2L26.8,38.9z M27.7,38.5
			c0,0,0.1,0,0.1-0.1c0.1,0,0.1-0.1,0.1-0.1L27.7,38.5L27.7,38.5z M21.2,1L21.2,1C21.1,1,21.1,1,21.2,1z M39.9,18.7l-0.1,0.1
			c0,0.2,0,0.4,0,0.5C39.9,19,40,18.7,39.9,18.7z M32.7,5.3C32.8,5.3,32.8,5.4,32.7,5.3c0.1,0.1,0.2,0.1,0.3,0.2
			C32.9,5.4,32.8,5.4,32.7,5.3z M32.1,5.1c0.1,0.1,0.1,0.2,0.3,0.3L32.1,5.1z M11.5,3.1c0.3-0.2,0.2-0.1,0.2-0.2
			C11.7,2.9,11.6,2.9,11.5,3.1C11.5,3,11.5,3.1,11.5,3.1z M35.5,32.4c0.2-0.2,0.3-0.4,0.5-0.5C35.8,32.1,35.5,32.3,35.5,32.4z
			 M20.1,0.1c0.1,0,0.2,0,0.2-0.1C20.1,0,20.1,0,20.1,0.1z M36.5,31.2c0,0-0.1,0.1-0.1,0.1c-0.1,0.2-0.2,0.4-0.4,0.6
			C36.2,31.7,36.4,31.4,36.5,31.2z M7.3,35.6c0,0,0.1,0.1,0.3,0.2C7.6,35.8,7.5,35.7,7.3,35.6z M31.2,36.6
			C31,36.7,31.2,36.6,31.2,36.6L31.2,36.6z M37,29.2C37,29.2,37,29.2,37,29.2C37,29.2,37,29.2,37,29.2z M30.9,36.7
			c0.1,0,0.2-0.1,0.2-0.1C31.1,36.6,31,36.6,30.9,36.7z M31,36.7c-0.1,0-0.1,0.1-0.2,0.1C30.8,36.8,30.8,36.8,31,36.7z M31.4,36.4
			c-0.1,0.1-0.2,0.1-0.3,0.2c0,0,0.1,0,0,0C31.2,36.5,31.3,36.5,31.4,36.4z M2.1,12.7C2,12.7,2,12.7,2.1,12.7
			C2,12.9,2,12.8,2.1,12.7z M38.1,14.3C38.1,14.3,38.1,14.3,38.1,14.3C38.1,14.3,38.1,14.3,38.1,14.3L38.1,14.3z M38.3,14l-0.5-0.3
			c0.2,0.2,0.3,0.4,0.3,0.6c0,0,0-0.1,0.1-0.2C38.2,14.1,38.3,14,38.3,14z M39.8,18.9l0.1-0.1c0,0,0,0,0-0.1c0-0.3-0.1-0.2-0.1-0.1
			c0-0.1-0.1-0.2-0.1-0.3c0.1-0.2-0.1-0.7,0-1c-0.1-0.1-0.1-0.4-0.2-0.7c-0.1-0.3-0.2-0.6-0.3-0.7c0,0,0-0.1,0,0
			c0-0.3-0.1-0.6-0.2-0.8l0.1-0.1c0,0-0.1-0.1-0.2-0.3c-0.1-0.1-0.2-0.3-0.2-0.3c0-0.4,0-0.5,0.2-0.2c-0.1-0.2-0.2-0.4-0.2-0.5
			c-0.1-0.1-0.1-0.2-0.1-0.3c-0.1-0.2-0.1-0.3-0.3-0.6l0.1,0c-0.1-0.3-0.4-0.6-0.4-0.8c0-0.2-0.1-0.4-0.3-0.7
			c-0.1-0.3-0.3-0.7-0.5-1.1c-0.4-0.8-1-1.6-1.4-2.3c0,0.2-0.1,0-0.2-0.2c-0.1-0.2-0.3-0.4-0.3-0.4c0-0.1-0.1-0.3,0.1-0.1
			c-0.3-0.3-0.5-0.5-0.6-0.8c-0.2-0.2-0.3-0.4-0.6-0.5c0-0.1,0.2,0.1,0.1,0c-0.1,0-0.2-0.2-0.3-0.2c0-0.1,0.1,0.1,0.2,0.1
			c-0.1-0.1-0.3-0.3-0.4-0.3c-0.1-0.1-0.2-0.1-0.3-0.1c-0.1,0-0.2,0-0.3,0c-0.1-0.2-0.2-0.3-0.3-0.4c-0.1-0.1-0.2-0.1-0.4-0.2
			c-0.1-0.1-0.2-0.3,0.2,0c-0.1,0-0.2-0.1-0.3-0.3c-0.1-0.1-0.1-0.1-0.2-0.2c-0.1-0.1-0.2-0.1-0.2-0.2c-0.3-0.2-0.6-0.5-0.7-0.4
			C31.3,3.8,31,3.6,31,3.6c-0.3-0.2-0.4-0.3-0.6-0.4c-0.1-0.1-0.3-0.2-0.6-0.3L30,3c-0.3,0-0.5-0.2-0.9-0.5l0,0
			c-0.2-0.2-0.4-0.2-0.5-0.3c-0.1-0.1-0.2-0.1-0.2-0.1c-0.1,0-0.1,0-0.2-0.1C28,2,27.9,1.9,27.6,1.7l0,0.1c-0.1,0.1-0.3-0.1-0.6-0.2
			c-0.3-0.2-0.6-0.3-1-0.4l0.2,0.1c-0.2,0-0.4-0.2-0.6-0.3c-0.2-0.2-0.4-0.3-0.6-0.4c-0.1,0,0.1,0,0.2,0c-0.9-0.4-0.2,0.1-0.9-0.1
			c-0.1-0.1,0.2-0.1-0.3-0.3c-0.1-0.1-0.5-0.1-0.9-0.1c-0.2,0-0.4,0-0.6,0c-0.2,0-0.4-0.1-0.6-0.1c0.1,0.1,0.3,0.1-0.1,0.1
			c-0.5,0-1.4-0.3-1.8-0.1c-0.1,0-0.1,0-0.1,0c-0.2,0-0.5,0-0.8,0.1c-0.3,0-0.6,0.1-0.7,0.1c-0.1-0.1-0.3-0.1-0.5-0.1
			c-0.2,0-0.5,0.1-0.8,0.1c-0.3,0.1-0.5,0.1-0.7,0.2c-0.2,0-0.3,0-0.3,0c0,0-0.3,0.1-0.6,0.1C15.3,0.6,15,0.7,15,0.7l0,0
			c-0.4,0.1-0.6,0.2-0.8,0.3C14,1,13.9,1.1,13.8,1.2c-0.2,0-0.1,0-0.1-0.1c-0.5,0.2-0.8,0.2-1.1,0.4c-0.3,0.1-0.5,0.2-0.9,0.5
			l-0.1,0C11.4,2.1,10,2.5,9.2,3.2c0,0,0,0,0.1-0.1C8.8,3.5,8.1,3.9,7.6,4.2c-0.5,0.4-1,0.7-1,1c0,0-0.1,0.1-0.3,0.3
			C6.2,5.7,6,5.9,6,5.9c0.8-0.7,0,0.2,0.3,0C6.2,6,6,6.2,5.9,6.3c-0.1,0.1-0.2,0.1,0-0.1l0.1,0c0-0.3-1,0.9-1,0.8
			C4.2,7.7,3.6,8.5,3,9.4C2.5,10.2,2,11.1,1.6,12c0,0,0.1,0,0.1-0.1c0.1,0,0.1-0.1,0.1-0.1s0,0,0,0.1c0,0.1-0.1,0.1-0.1,0.2
			c-0.1,0.2-0.1,0.3-0.1,0.3c-0.1,0.2-0.2,0.2,0-0.3C1.3,12.4,1.3,13,1.3,13c-0.4,0.9,0-0.4-0.1-0.1L1,13.3l0-0.1c0,0.2,0,0.3,0,0.4
			c0,0.1-0.1,0.3-0.1,0.6c-0.1,0.3-0.1,0.2-0.2,0.3c0,0,0,0-0.1,0.2c0,0,0,0.1,0,0.1c0,0.1,0,0.2-0.1,0.3c-0.1,0.2-0.1,0.4-0.1,0.4
			l0.2-0.3c0,0.4-0.2,0.8,0,0.4c-0.2,0.3-0.4,1-0.5,1.8c-0.1,0.4-0.1,0.8-0.1,1.1C0,18.8,0,19,0,19.1c0,0.1,0,0.3,0,0.4
			c0,0.1,0,0.3,0,0.4c0,0.3,0,0.6,0,0.9c0-0.2,0.1-0.3,0.2,0.3c-0.1-0.1-0.2,0.2-0.2,0.5c0,0.3,0,0.8,0,1c0-0.2,0.1,0.2,0.2,0.6
			c0.1,0.4,0.2,0.7,0.2,0.4c0.1,0.5-0.1,0-0.1,0.4c0.3,1.1,0.5,2.4,1.1,3.7c0,0,0-0.2,0.2,0c0,0,0,0,0,0.1c0,0.1,0,0.2,0,0.3
			c0,0.2,0.1,0.4,0.1,0.4c0.1,0.1,0.1,0.2,0.2,0.2C2,28.7,2,28.8,2.1,29c0-0.1,0-0.2,0.1,0c0.5,1.2,1.3,2.4,2.2,3.5
			c0.9,1.1,1.9,2.1,2.8,3.1c-0.2-0.3,0-0.1,0.2,0c-0.1-0.1,0.1-0.1,0.1-0.1c0,0,0.1,0.1,0.1,0.1c0.1,0.1,0.2,0.2,0.3,0.3
			C7.9,36,8,36.1,8.1,36.1c0.1,0.1,0.1,0.1,0.1,0.1c0.1,0,0.4,0.2,0.6,0.3c0.2,0.2,0.5,0.3,0.6,0.3l-0.3-0.2c0.2,0.1,0.1-0.1,0-0.3
			C9,36.2,8.8,36,8.9,35.9c-0.1,0-0.3-0.1-0.4-0.2c-0.1-0.1-0.3-0.2-0.4-0.4c-0.3-0.3-0.6-0.6-1-0.8c-0.1-0.2,0.2,0.1,0.1,0
			c-0.2-0.1-0.4-0.2-0.8-0.6l0.1,0c-0.3-0.2-0.5-0.4-0.6-0.6c-0.2-0.2-0.3-0.4-0.5-0.6c-0.2-0.2-0.3-0.4-0.5-0.6
			c-0.2-0.2-0.4-0.5-0.6-0.8l0,0.1c-0.2-0.3-0.2-0.4-0.3-0.5c-0.3-0.2,0.5,0.8,0.2,0.6c0-0.1-0.1-0.3-0.3-0.5
			c-0.1-0.2-0.3-0.5-0.4-0.7c-0.2-0.2-0.3-0.5-0.4-0.7c-0.1-0.2-0.2-0.4-0.1-0.5c-0.2-0.5,0,0.2-0.3-0.3l0-0.1l-0.1-0.1
			c-0.1-0.3-0.1-0.5-0.1-0.5c0,0.1,0.1,0.2,0.1,0.3c-0.1-0.2-0.2-0.5-0.3-0.7c-0.1-0.2-0.2-0.5-0.2-0.5c0,0,0,0.1,0.1,0.2
			c0,0.1,0.1,0.2,0.1,0.2c-0.6-1.3-1-2.9-1.4-4.2l0,0.1c-0.1-0.2-0.1-0.4-0.1-0.6c0-0.1,0-0.2,0-0.4c0-0.2,0-0.5-0.1-1l0,0
			c-0.1-0.2-0.1-0.5-0.1-0.8c0.1,0.3,0.1-0.5,0.2-0.2c-0.1-0.6-0.1-0.7-0.1-0.8c0-0.1-0.1-0.1-0.1-0.5l0.1-0.2c0-0.1,0-0.2-0.1-0.3
			c0-0.1,0-0.3,0-0.5c0,0.5,0.1-0.3,0.2,0.2c0.1-0.3,0.1-0.5,0.1-0.8c0-0.2,0-0.4,0-0.6c0-0.4,0.1-0.6,0.2-0.9c0-0.3-0.1,0-0.2,0.2
			c-0.1,0.3-0.1,0.6-0.1,0.4c-0.1,0.1-0.1,0-0.1-0.2c0-0.2,0-0.5,0.1-0.6c0-0.2,0.1-0.3,0.3-0.5c0.1-0.1,0.1-0.2,0.2-0.4
			c0-0.1,0.1-0.2,0.1-0.3c0-0.1,0.1-0.2,0.1-0.3c0,0.1,0,0.1,0,0.2c0.1-0.2,0.1-0.3,0.2-0.5c0-0.1,0-0.2,0.1-0.3
			c0-0.1,0.1-0.2,0.1-0.3c0-0.3,0.2-0.5,0.1-0.7l-0.3,0.8c0.1-0.2,0.1-0.5,0.2-0.8c0.1-0.3,0.2-0.6,0.4-0.9c0,0.1-0.1,0.3-0.1,0.5
			c0.1-0.2,0.1-0.4,0.3-0.6c0.1,0.1,0,0.3-0.2,0.6c-0.1,0.1-0.1,0.3-0.2,0.5c0,0.2-0.1,0.3-0.1,0.5C2,13.4,2,13.2,2.1,13
			c0.1-0.2,0.1-0.3,0.1-0.1c0-0.2,0.1-0.4,0.2-0.7c0.1-0.2,0.3-0.5,0.3-0.8l0.1,0.1c0-0.1,0.1-0.3,0.2-0.5l-0.1,0.4
			c0.2-0.5,0.5-0.8,0.8-1.3c-0.3,0.4-0.3,0.5-0.3,0.4c0,0,0-0.1-0.2,0c0.6-1.2,0.6-0.5,1.3-1.7C4.4,9,4.1,9.4,4.2,9.1
			c0.2-0.2,0.4-0.5,0.6-0.6c0.6-0.8-0.2,0.1,0-0.3C5.1,8.1,5,7.9,5.3,7.5l0.1,0.1c0.2-0.2,0.3-0.3,0.3-0.4C5.8,7.1,5.8,7.1,5.8,7
			c0-0.1,0-0.1,0.4-0.5L5.9,6.9c0,0,0.1-0.1,0.2-0.2c0,0,0.1-0.1,0.1-0.1c0,0,0.1-0.1,0.1-0.1l0,0.2c0.2-0.2,0.3-0.4,0.4-0.5
			C6.8,6.1,6.9,6,7.2,5.8C7,5.8,7.1,5.6,7.5,5.3c0.3-0.2-0.1,0.2,0.4-0.3C7.8,5.2,7.7,5.4,7.5,5.5c0,0-0.1,0.1-0.1,0.2
			C7.7,5.5,8.1,5.1,8.3,5C8.2,5,8.1,5.1,8,5.1c0,0,0.2-0.2,0.3-0.4c0.2-0.2,0.4-0.3,0.4-0.3c0.1-0.1,0.1,0,0,0.1
			C8.9,4.4,9,4.3,9.2,4.1c0,0.1,0,0.2-0.3,0.4c0,0,0,0,0.1-0.1c0.1-0.1,0.2-0.1,0.2-0.2C9.5,4.1,9.7,4,9.7,4c0.1,0,0.5-0.2,0.4-0.1
			c0.2-0.1,0.5-0.3,0.8-0.5c0.3-0.2,0.6-0.4,0.9-0.5c0,0,0.1-0.1,0.2-0.1c0.1-0.1,0.3-0.1,0.4-0.2c0.1-0.1,0.3-0.1,0.4-0.2
			c0.2-0.1,0.3-0.1,0.5-0.2c0.2-0.1,0.3-0.1,0.5-0.2c0,0,0.1,0,0.2,0c0.1,0,0.2,0,0.2,0c0.6-0.2-0.6,0,0.3-0.3c0.7-0.2,0.3,0,0.5,0
			c0.2-0.1,0.4-0.2,0.6-0.3c0.3-0.1,0.6-0.2,0.9-0.2c-0.2,0.1-0.4,0.1-0.6,0.1l0.5,0c-0.6,0.2-1,0.3-0.5,0.3c0-0.1,0.5-0.3,0.9-0.3
			c0.2,0,0.5-0.1,0.7-0.1c0.2,0,0.3-0.1,0.3-0.2l0.3,0c-0.1,0-0.1,0-0.2,0c0.6,0.1,0.5-0.2,1.3-0.2c0.3,0,0.5,0.1,0.3,0.1l0.6-0.1
			c0.2,0,0.1,0.1,0,0c0,0,0.1,0,0.2,0c0.1,0,0.2,0,0.3,0c0.2,0,0.5,0,0.5,0l0,0c0.1,0,0.5-0.1,0.6-0.1c0.2,0.1-0.1,0-0.1,0.1
			c0,0,0.1,0,0.3,0c0.1,0,0.1,0,0.2,0c0.1,0,0.1,0,0.1,0C22.4,1,22.4,1,22.2,1c-0.1,0-0.3,0-0.5,0c0.2,0.2,0.3,0.2,0.5,0.1
			c0.2,0,0.4,0,1,0.1c0,0,0,0-0.1,0c0,0-0.1,0-0.2,0c-0.1,0-0.3,0-0.3,0c0.1,0.1,0.3,0.1,0.5,0.2c0.2,0.1,0.4,0.1,0.7,0.2
			c-0.1-0.1-1.1-0.5-0.5-0.4c0.2,0.1,0.4,0.1,0.7,0.1c0,0.1,0.3,0.1,0.7,0.2l-0.1,0.1c0.4,0.1,0.4,0,0.6,0c0.4,0.1,0.5,0.3,0.6,0.4
			c0.7,0.3-0.4-0.3,0.4-0.1c0.1,0.1,0.3,0.1,0.4,0.2c0.1,0.1,0.3,0.1,0.4,0.1c0.3,0.1,0.5,0.2,0.9,0.3c0.4,0.2-0.1,0,0,0.1l0.4,0.1
			c0.1,0,0,0.1,0,0.1C28.8,3,28.5,2.8,29,3c0.1,0,0.3,0.1,0.6,0.3c0.2,0.2,0.6,0.4,0.9,0.6c0.1,0.1-0.1,0-0.1,0.1
			c0.8,0.4,0.7,0.3,1.3,0.7c0,0,0.1,0.1,0.2,0.2C32,5,32.1,5.1,32.1,5.1c-0.3-0.4,0.2-0.1,0.7,0.2c-0.1-0.1-0.2-0.3-0.2-0.3
			c0,0,0.2,0.1,0.3,0.2c0.1,0.1,0.2,0.1,0.2,0.2c0.1,0,0.1,0.1,0.1,0.1c0.1,0.1,0,0.1-0.2,0c0,0,0.1,0.1,0.1,0.1
			c0.2,0.2,0,0.2-0.2,0.1c-0.1-0.1-0.1-0.2-0.2-0.3c-0.2-0.1-0.4-0.1-0.4,0c0,0,0.1,0.1,0.2,0.1c-0.1,0-0.1,0-0.1,0
			c0,0,0.1,0.1,0.2,0.1l0,0.2l0.1,0c0,0,0.2,0.2,0.3,0.4c0.1,0.1,0.2,0.2,0.2,0.3c0.1,0.1,0.1,0.1,0.1,0.1c0.2,0.1,0.3,0.2,0.5,0.3
			c0.2,0.1,0.3,0.2,0.5,0.4c0.2,0.1,0.3,0.3,0.5,0.4c0.2,0.2,0.4,0.4,0.6,0.6c-0.3-0.2-0.2,0.1-0.3,0.1c0-0.2-0.2-0.3-0.4-0.5
			c-0.1-0.1-0.2-0.2-0.3-0.3c-0.1-0.1-0.2-0.2-0.3-0.3c0.2,0.2,0.1,0.2,0,0.2c0,0,0.1,0,0.1,0.1c0.1,0.1,0.2,0.2,0.3,0.3
			c0.2,0.2,0.4,0.4,0.4,0.4c-0.1,0,0.1,0.2,0.2,0.5c0-0.1,0.2,0,0.3,0.2c0.2,0.2,0.4,0.5,0.5,0.7c0,0.1-0.2,0-0.4-0.5
			c0.2,0.6,0.6,0.5,0.8,1.1c-0.1-0.1-0.1-0.2-0.2-0.2c0.1,0.1,0.2,0.3,0.3,0.5c0.1,0.2,0.1,0.3,0.1,0.3l-0.1-0.1
			c0.1,0.2,0.2,0.4,0.4,0.7c0.1,0.3,0.3,0.5,0.4,0.8c0.2,0.5,0.5,1,0.6,1c0,0-0.2,0-0.3-0.1c0,0,0.1,0.1,0.2,0.2
			c0.1,0.1,0.2,0.3,0.4,0.4c0.1,0.2,0.3,0.3,0.4,0.5c0.1,0.1,0.2,0.2,0.2,0.2c-0.2-0.1-0.4,0.5-0.7-0.2c0,0.2,0.1,0.5,0.3,0.9
			c0-0.1,0.1-0.4,0.2-0.2c0,0.6,0,0.4,0,1.1c0-0.2,0.3,0,0.3,0.3c0,0-0.2,0.1-0.3,0c0,0,0.1,0.2,0.2,0.4c0.1,0.2,0.2,0.4,0.2,0.4
			c-0.1-0.2-0.2,0-0.2,0.2c0,0,0,0.1,0.1,0.4c0,0.2,0,0.5,0.1,0.6l0-0.4c0.1,0.9,0.4,0.9,0.4,1.9c0-0.1-0.3-0.3-0.3,0.2
			c0.1,0.2,0.6,1,0.6,1.9L39.5,22c0,0,0,0.2,0,0.3c0,0.1,0,0.2,0,0.2c0,0.1,0,0.1,0,0.1c0-0.2-0.2-0.6-0.2-1
			c-0.1-0.4-0.2-0.9-0.3-1.2c-0.1,0.4-0.1,0.1-0.1,0.6c-0.1,0.2-0.1-0.3-0.1-0.4c0,0,0,0.3-0.1,0.6c0,0.2,0,0.3,0,0.4
			c0,0.1,0,0.2,0,0.2c0.1,0,0.1,0.2,0.1,0.5c0,0.2,0,0.5,0,0.5c0,0,0-0.1,0-0.2c0-0.1,0-0.3,0-0.5c0-0.3,0-0.7,0-0.7
			c0.1,0,0.1,0.2,0.2,0.5c0,0.2,0,0.3,0,0.6c0,0.2,0,0.4-0.1,0.6c-0.1,0.2-0.2-0.2-0.3-0.2c0,0.1,0,0.3,0,0.5c0,0.2-0.1,0.4-0.1,0.4
			l0-0.4c-0.1,0.2-0.1,0.4-0.1,0.7c0,0.2,0,0.4-0.2,0.7c-0.1,0.2-0.3,0.5-0.3,0.6c0.2-0.3,0.7-0.2,0.8,0c0,0-0.1,0.3-0.3,0.6
			c-0.1,0.3-0.3,0.5-0.4,0.6c-0.2,0.3-0.1-0.6-0.3-0.3c0,0,0,0.2,0,0.3c-0.1,0.2-0.1-0.1-0.2,0.3c0.1,0.1-0.4,0.9,0,0.2
			c-0.1,0.2-0.1,0.3-0.2,0.4c-0.1,0.1-0.1,0.2-0.2,0.5c0.2-0.1,0.1,0.6-0.1,1c0,0-0.1,0-0.2,0.1c-0.1,0.2-0.2,0.4-0.3,0.6
			c-0.1,0.2-0.2,0.3-0.3,0.5c-0.1,0.1-0.2,0.3-0.3,0.4c-0.1,0.2-0.2,0.3-0.3,0.5c-0.1,0-0.3,0.4-0.3,0.2c-0.1,0.1-0.1,0.2-0.2,0.5
			c-0.4,0.3,0.3-0.5,0-0.3c0,0.1-0.3,0.6-0.5,0.9c0.1,0,0.2-0.2,0.4-0.4c0.1-0.2,0.3-0.5,0.4-0.6c0.1,0,0,0.2-0.1,0.5
			c-0.1,0.1-0.1,0.3-0.2,0.5c-0.1,0.2-0.2,0.4-0.4,0.5c-0.2,0.3-0.3,0.3-0.3,0.3c0,0,0-0.1,0,0c-0.2,0.2-0.4,0.4-0.5,0.6
			c-0.1,0.2-0.2,0.3-0.3,0.4c-0.1,0.2-0.3,0.4-0.8,0.8c-0.4,0.2-0.2-0.1-0.3-0.1c0.2-0.2,0.4-0.4,0.6-0.5c0.2-0.1,0.3-0.2,0.5-0.4
			l-0.4,0.3c0.1-0.2,0.4-0.5,0.6-0.6c-0.1,0-0.2,0.2-0.4,0.3c-0.1,0.1-0.2,0.2-0.3,0.3c-0.1,0.1-0.2,0.2-0.4,0.3
			c-0.1,0.1-0.3,0.2-0.4,0.3c-0.1,0.1-0.3,0.2-0.4,0.3c-0.3,0.2-0.5,0.4-0.8,0.5c-0.1,0.1-0.4,0.4-0.2,0.3l0.3-0.2
			c0.3-0.1-0.4,0.5-0.1,0.3c-0.2,0.2-0.4,0.3-0.6,0.5c-0.1,0.1-0.2,0.2-0.3,0.2c-0.1,0.1-0.3,0.2-0.4,0.2l-0.2,0
			c0,0,0.4-0.1,0.5-0.3c-0.2,0.2-0.9,0.4-1.1,0.6c0,0,0.1,0,0.2-0.1c0.1,0,0.2-0.1,0.2-0.1c-0.2,0.1-0.4,0.3-0.6,0.5
			c-0.2,0.2-0.5,0.3-0.7,0.4c0.3,0,0.1-0.1,0.5-0.1c-0.4,0,1.3-0.7,0.7-0.6c0.2,0,0.4-0.1,0.6-0.2c0.2-0.1,0.4-0.2,0.6-0.3
			c0,0-0.2,0,0.2-0.2c0,0,0-0.1,0.1-0.1c0,0,0,0,0,0c0,0,0,0,0,0c0,0,0,0,0,0c-0.1,0-0.2,0.1-0.2,0.1c0.1-0.1,0.3-0.3,0.5-0.4
			c0.2-0.2,0.4-0.3,0.5-0.4c0.2-0.2-0.1,0.1,0.1,0.1c0,0,0.1-0.1,0.1-0.1c0.1-0.1,0.1-0.1,0.1-0.1c0.1,0,0.7-0.4,0.2,0.1l0.5-0.4
			c0.3-0.2,0.7-0.5,0.9-0.7c0.2-0.2,0.5-0.6,0.3-0.4c0,0,0.2-0.2,0.3-0.4c0.2-0.2,0.3-0.4,0.3-0.4l0,0c0.3-0.3,0.6-0.7,0.9-1.1
			c0.3-0.4,0.6-0.8,1-1.2c0.1-0.1,0.2-0.3,0.3-0.4c0.1-0.2,0.2-0.3,0.4-0.6l0.1,0c0.1-0.2,0.3-0.4,0.4-0.7c0.1-0.2,0.3-0.5,0.3-0.6
			c0.1-0.1,0.2-0.2,0.3-0.4c0.1-0.1,0.1-0.2,0.2-0.3c0.1-0.1,0.1-0.2,0.2-0.4c0.1-0.2,0.2-0.5,0.3-0.7c0.1-0.2,0.2-0.5,0.2-0.6
			l-0.1-0.1c0.1-0.2,0.1-0.5,0.2-0.7c0-0.1,0.1-0.3,0.1-0.4c0-0.1,0.1-0.3,0.1-0.4l-0.1,0c0-0.3,0.1-0.6,0.2-1
			c0-0.2,0.1-0.4,0.2-0.6c0-0.2,0.1-0.4,0.1-0.6c0,0.1,0,0.3-0.1,0.4c0.1-0.2,0.1-0.5,0.2-0.7c0-0.3,0-0.5,0-0.8c0-0.3,0-0.5,0-0.8
			c0-0.2,0-0.5,0.1-0.7c0-0.2,0-0.4,0-0.5c0,0,0,0,0,0.1c0,0,0-0.1,0-0.1c0-0.1,0-0.2,0-0.3c0,0.1,0,0.2,0,0.3
			C39.8,19.5,39.8,19.2,39.8,18.9z M0.7,14.5l0.1-0.1C0.7,14.7,0.7,14.6,0.7,14.5z M23.1,1.2c-0.1,0-0.2,0-0.2-0.1
			c0.2-0.1,0.3,0,0.5,0.1C23.3,1.2,23.2,1.2,23.1,1.2z M33.1,5.9c0.1,0.1,0.2,0.2,0.3,0.3C33.3,6.2,33.2,6,33.1,5.9z M32.9,35.1
			C32.9,35.1,32.9,35.1,32.9,35.1C33.2,34.9,33.1,35,32.9,35.1z M32.4,5.4C32.4,5.4,32.4,5.4,32.4,5.4C32.3,5.3,32.3,5.3,32.4,5.4z
			 M11.7,2.9L11.7,2.9C11.7,2.9,11.7,2.9,11.7,2.9L11.7,2.9z M37.8,26.5c0.1-0.1,0.1-0.2,0.1-0.2C37.9,26.3,37.9,26.4,37.8,26.5z
			 M29.4,37.7c0,0,0.1-0.1,0.2-0.1c0.1-0.1,0.2-0.1,0.2-0.1C29.6,37.6,29.5,37.6,29.4,37.7C29.4,37.7,29.5,37.7,29.4,37.7z
			 M25.4,38.7L25.4,38.7c0.3,0,0.5-0.1,0.2-0.1C25.5,38.7,25.5,38.7,25.4,38.7z M28.3,37.9c0,0.1,0.3,0,0.5-0.2
			C28.8,37.6,28.5,37.7,28.3,37.9C28.3,37.9,28.3,37.9,28.3,37.9z M27.9,38c0,0.1,0.1,0,0.3-0.1C28.1,38,28,38,27.9,38z M31.6,36.3
			c-0.1,0.2,0.7-0.7,0.1-0.2C31.6,36.2,31.7,36.3,31.6,36.3z M28.5,37.5l0.1,0l0.1-0.2L28.5,37.5z M30.6,36.4l-0.4,0.2
			c0,0,0,0.1-0.1,0.1C30.4,36.5,30.7,36.4,30.6,36.4z M30.1,36.7c-0.1,0.1-0.3,0.2-0.3,0.2C29.9,36.9,30,36.8,30.1,36.7z M29.3,37.1
			c-0.1,0.1-0.2,0.1-0.2,0.1L29.3,37.1l0.2-0.1C29.5,37,29.4,37,29.3,37.1z M34.7,32.7c-0.1,0.1-0.2,0.3-0.1,0.2l0.3-0.4
			C34.9,32.4,34.8,32.5,34.7,32.7z M33.4,33.7l-0.1,0.2C33.4,33.8,33.4,33.8,33.4,33.7L33.4,33.7z M34.3,32.6c0,0.1-0.3,0.5,0,0.1
			C34.4,32.7,34.8,32.1,34.3,32.6z M38.3,26l0.2,0l-0.2-0.2L38.3,26z M39,19.3c-0.1-0.4,0-0.6-0.2-0.4c0,0.6,0.1,0.1,0.1,0.7
			C38.9,19.8,38.9,19.2,39,19.3z M39,19.3c0,0.1,0,0.1,0,0.2C39,19.4,39,19.3,39,19.3z M8.8,36.8c0,0,0.1,0.1,0.2,0.1
			C9.1,37,9.2,37,9.2,37L9,36.8L8.8,36.8z M9.6,37.1l0,0.2l0.3,0C9.8,37.2,9.6,37.1,9.6,37.1z M24.1,1.6l0.3,0.1l0,0
			C24.4,1.6,24.3,1.6,24.1,1.6z M19.1,1l0.1,0.1l0.1,0L19.1,1z M14.8,1.9c0.2-0.1,0.4-0.1,0.6-0.2C15,1.9,14.7,1.8,14.8,1.9z"/>
	</g>
</g>
</svg>
