<?xml version="1.0" encoding="utf-8"?>
<!-- Generator: Adobe Illustrator 18.1.1, SVG Export Plug-In . SVG Version: 6.00 Build 0)  -->
<svg version="1.1" id="Layer_1" xmlns="http://www.w3.org/2000/svg" xmlns:xlink="http://www.w3.org/1999/xlink" x="0px" y="0px"
	 viewBox="0 0 40 40" enable-background="new 0 0 40 40" xml:space="preserve">
<g>
	<path fill="none" d="M30.1,37.3c-0.2,0.1-0.1,0.1-0.1,0.2C30.2,37.3,30,37.3,30.1,37.3z M32.4,35.5l0.3-0.4L32.4,35.5L32.4,35.5z
		 M33.4,34.5L33.4,34.5l-0.2,0.3c0.2-0.2,0.5-0.5,0.7-0.7c0.2-0.2,0.4-0.5,0.6-0.6C34.2,33.5,33.8,34.2,33.4,34.5z M35.5,32.8
		C35.5,32.7,35.5,32.7,35.5,32.8c0.1-0.1,0.1-0.2,0.2-0.3C35.6,32.5,35.9,32.2,35.5,32.8z M35.6,32.7C35.4,33,35.7,32.6,35.6,32.7
		L35.6,32.7z M36.2,31.9c0.1,0,0.3-0.3,0.2-0.2c0.2-0.4,0.1-0.3,0-0.1L36.2,31.9z M36.5,31.2C36.5,31.2,36.5,31.3,36.5,31.2
		c-0.1,0.1-0.1,0.2-0.1,0.2C36.4,31.4,36.5,31.3,36.5,31.2z M36.3,31.6c0-0.1,0,0-0.1,0.2l0.2-0.4C36.4,31.4,36.3,31.4,36.3,31.6z
		 M35.9,32c-0.2,0.3-0.3,0.4-0.3,0.4c0,0,0.2-0.2,0.4-0.5C35.9,32.1,35.7,32.3,35.9,32z M34.4,33.4c0.1-0.1,0.2-0.2,0.1-0.2
		C34.5,33.2,34.5,33.3,34.4,33.4C34.3,33.4,34.3,33.4,34.4,33.4l-0.2,0.2C34.2,33.6,34.3,33.5,34.4,33.4z M37.6,29.6
		c0,0,0,0.1-0.1,0.1c0,0.1-0.1,0.1-0.1,0.1c0.1-0.1,0.2-0.4,0.3-0.4C37.7,29.5,37.6,29.6,37.6,29.6z M37.6,29.6l0.2-0.4
		C37.5,29.5,37.5,29.6,37.6,29.6z M36.3,31.4c-0.1,0.2-0.2,0.3-0.2,0.3S36.2,31.5,36.3,31.4c0.1-0.2,0.1-0.2,0.2-0.3
		c0-0.1,0.1-0.1,0.1-0.1l-0.1,0.1C36.4,31.1,36.3,31.2,36.3,31.4z M38.5,28.1c0,0.1,0,0.1,0,0.1S38.5,28.1,38.5,28.1
		c0-0.2,0.1-0.3,0.1-0.3l0,0.2C38.5,28,38.5,28,38.5,28.1z M39,26.9c0.1-0.3,0.1-0.6,0.2-0.8c-0.1,0.2-0.1,0.5-0.3,0.8
		C38.9,27.1,39,26.7,39,26.9z M38.3,28.2l-0.2,0.1c0,0,0,0.1-0.1,0.2C38.1,28.5,38.2,28.4,38.3,28.2z M38.1,28.3L38.1,28.3
		c0.1-0.2,0.1-0.3,0.2-0.3C38.3,28,38.2,28.2,38.1,28.3z M37.1,29.8c0,0.2,0.1,0,0,0.3C37.2,29.9,37.4,29.4,37.1,29.8z M37.6,29.1
		C37.6,29.1,37.7,29,37.6,29.1c0.1,0.1,0.1-0.1,0.1-0.2c0-0.1,0-0.1,0.1-0.2c0,0,0-0.1,0-0.1s-0.1,0.1-0.1,0.2
		C37.7,29,37.6,29.1,37.6,29.1z M37.8,28.7l0.1-0.2l0-0.1L37.8,28.7z M38.9,26.5c0-0.2,0.1-0.4,0.2-0.7c-0.1,0.3-0.2,0.5-0.3,0.8
		C38.8,26.6,38.8,26.7,38.9,26.5z M39.6,23.5C39.6,23.5,39.6,23.5,39.6,23.5L39.6,23.5C39.6,23.4,39.6,23.4,39.6,23.5z M38.8,26.6
		c-0.1,0.2-0.1,0.3-0.1,0.4C38.7,26.9,38.7,26.7,38.8,26.6C38.8,26.5,38.8,26.5,38.8,26.6z M39.2,25.4c0.1-0.1,0.1-0.3,0.1-0.3
		C39.3,25.1,39.3,25.3,39.2,25.4z M38.6,27.3C38.6,27.3,38.6,27.3,38.6,27.3C38.6,27.3,38.6,27.3,38.6,27.3z M38.6,27.3
		c0-0.1,0-0.2,0-0.3C38.6,27.1,38.6,27.2,38.6,27.3C38.6,27.3,38.6,27.3,38.6,27.3z M39.6,23c-0.1,0.2-0.3,1-0.3,0.6
		c0-0.3,0.1-0.4,0.1-0.5c0-0.1,0.1-0.1,0.1-0.3c-0.1,0.2,0-0.8-0.2-0.7c0,0,0,0,0,0.1c0,0,0,0.1,0,0.2c0,0.1,0,0.3,0,0.3
		c0,0,0-0.2-0.1,0c0,0,0.1,0.2,0,0.4c0,0.2,0,0.4-0.1,0.6c0,0.4,0.3,0.2,0.5-0.1C39.6,23.4,39.5,23.4,39.6,23z M39.5,23.9
		c0,0.1,0,0.2-0.1,0.3c0,0.1,0,0.1,0,0.1l0-0.1l0,0.2c0.1-0.2,0.1-0.4,0.2-0.6c0-0.3,0-0.4,0-0.4C39.6,23.5,39.6,23.7,39.5,23.9z
		 M39.1,25c-0.1,0.5,0,0.4-0.1,0.7c0.2-0.9,0,0.3,0.2-0.3c0,0.2-0.1,0.3-0.1,0.5c0.1-0.2,0.1-0.3,0.2-0.4c0,0,0,0,0,0l0,0l0,0
		c0,0,0,0,0,0c0,0,0,0,0,0c0,0,0,0,0,0c0.1-0.2,0,0,0,0c0,0,0,0,0,0c0,0,0,0,0,0c0,0,0.1-0.2,0.1-0.4c0-0.2,0.1-0.4,0.1-0.4
		c-0.1,0.2-0.1,0.4-0.2,0.8C39.2,25.2,39.2,24.7,39.1,25z M37.1,29.3C37.2,29.3,37.2,29.3,37.1,29.3C37.2,29.2,37.2,29.2,37.1,29.3z
		 M37.7,28.7c-0.1,0.1-0.2,0.1-0.4,0.3c0,0.1,0,0.1-0.1,0.3c-0.1,0.1,0,0-0.1,0c0,0.1-0.2,0.4,0.1,0.1l0-0.1
		C37.4,29,37.8,28.7,37.7,28.7z M38.6,26.5l-0.2,0.3l0,0c-0.2,0.4-0.1,0.3-0.1,0.4c0,0,0,0,0-0.1c0-0.1,0.1-0.2,0.1-0.2
		C38.5,26.7,38.6,26.5,38.6,26.5z M39.7,23l0,0.3l0.1,0.1c0,0,0-0.1,0-0.2C39.7,23.1,39.7,23,39.7,23z M39.9,22.2l-0.1,0.2l0.1,0
		c0,0,0-0.1,0-0.1C39.9,22.2,39.9,22.2,39.9,22.2z M4.1,9.3L4.1,9.3C4.1,9.3,4.1,9.4,4.1,9.3z M28.8,1.9l0,0.1
		c0.2,0.1,0.4,0.2,0.5,0.3C29.1,2.1,28.8,1.8,28.8,1.9z M13.6,1.5C13.7,1.5,13.7,1.5,13.6,1.5c0.2-0.1,0.2-0.1,0.3-0.1
		C13.8,1.4,13.7,1.4,13.6,1.5z M13.2,2c0.1,0,0.2,0,0.4-0.1L13.2,2z M1.1,18.7c0-0.4,0-0.2-0.1-0.2c0,0,0,0.1,0,0.1
		C1.1,18.7,1.1,18.7,1.1,18.7z M2.8,9.6c-0.1,0.1-0.1,0.2,0,0.2C2.8,9.7,2.8,9.6,2.8,9.6z M37.9,11.2c0,0,0,0.1,0,0.1
		c0.1,0.2,0.2,0.4,0.3,0.6C38.2,11.7,38.1,11.4,37.9,11.2z M27.2,38.6c0.1,0,0.2-0.1,0.3-0.2C27.4,38.5,27.3,38.5,27.2,38.6z
		 M39.9,18.4C39.9,18.7,39.9,18.5,39.9,18.4L39.9,18.4z M36.4,9.7C36.4,9.7,36.4,9.7,36.4,9.7C36.4,9.7,36.4,9.7,36.4,9.7z
		 M39.9,18.8c0-0.1,0-0.2,0-0.3C39.9,18.5,39.9,18.6,39.9,18.8z M39.9,18.7c0,0.1,0,0.1,0,0.2C40,18.9,40,18.9,39.9,18.7z
		 M39.9,18.2c0,0.1,0,0.2,0,0.3c0,0,0-0.1,0,0C39.9,18.4,39.9,18.3,39.9,18.2z M4.7,31.7C4.7,31.7,4.7,31.7,4.7,31.7
		C4.8,31.9,4.8,31.8,4.7,31.7z M24.1,1.3C24.1,1.3,24.2,1.3,24.1,1.3C24.2,1.3,24.1,1.3,24.1,1.3L24.1,1.3z M24,1l-0.5,0.2
		c0.3,0,0.5,0,0.7,0.1c0,0,0-0.1-0.1-0.2C24,1.1,24,1,24,1z M39.8,20.5c0.1-0.2,0.1-0.4,0.1-0.6c0-0.2,0-0.4,0.1-0.7
		c0,0-0.1,0.2-0.1-0.3c0,0,0-0.1,0-0.1c0,0,0,0,0,0c0,0,0,0,0,0c0,0,0,0,0,0c0,0.1,0,0.2,0,0.2c-0.1-0.1-0.1-0.4-0.1-0.6
		c0-0.3-0.1-0.5-0.1-0.6c0-0.3,0.1,0.1,0.1,0c0,0,0-0.1-0.1-0.2c0-0.1-0.1-0.2-0.1-0.2c0.1,0,0-0.8,0.2-0.1l-0.1-0.6
		c0-0.4-0.1-0.9-0.2-1.1c-0.1-0.3-0.3-0.7-0.1-0.5c0,0-0.1-0.2-0.1-0.5c-0.1-0.2-0.2-0.4-0.2-0.4l0,0c-0.1-0.5-0.3-0.9-0.5-1.4
		c0-0.1-0.1-0.2-0.1-0.3c0,0,0,0.1,0.1,0.1c-0.1-0.3-0.1-0.5-0.2-0.7c0,0.2,0.1,0.4,0.1,0.5c-0.1-0.3-0.3-0.7-0.4-1.1
		c-0.1-0.1-0.2-0.3-0.2-0.4c-0.1-0.2-0.2-0.4-0.3-0.6l0-0.1C37.3,10,37.2,9.7,37,9.5C36.9,9.2,36.8,9,36.7,9c0-0.1-0.1-0.3-0.2-0.5
		c-0.1-0.1-0.1-0.2-0.2-0.3C36.2,8.1,36.1,8,36,7.9c-0.2-0.2-0.3-0.4-0.5-0.6c-0.2-0.2-0.3-0.4-0.4-0.5l-0.1,0
		c-0.2-0.2-0.3-0.4-0.5-0.5c-0.1-0.1-0.2-0.2-0.3-0.3c-0.1-0.1-0.2-0.2-0.3-0.3l0,0.1c-0.2-0.2-0.4-0.4-0.7-0.7
		C33,5,32.9,4.8,32.7,4.7c-0.1-0.1-0.3-0.3-0.5-0.4c0.1,0,0.2,0.1,0.3,0.3C32.4,4.4,32.2,4.2,32,4c-0.2-0.2-0.4-0.3-0.7-0.4
		c-0.2-0.1-0.4-0.2-0.7-0.4c-0.2-0.1-0.4-0.3-0.6-0.4c-0.2-0.1-0.3-0.2-0.5-0.3c0,0,0,0,0.1,0c0,0,0,0-0.1,0
		c-0.1-0.1-0.2-0.1-0.3-0.2c0.1,0.1,0.1,0.1,0.2,0.2c-0.2-0.1-0.4-0.2-0.6-0.3l-0.1-0.1c0,0,0,0-0.1,0c-0.2-0.1-0.2-0.1-0.1,0.1
		c-0.1,0-0.2-0.1-0.3-0.1c-0.1-0.2-0.6-0.2-0.8-0.5c-0.1,0-0.4-0.1-0.7-0.2c-0.3-0.1-0.6-0.1-0.7-0.1c0,0-0.1-0.1,0.1,0
		C25.9,1.1,25.7,1,25.4,1l-0.1-0.2c0,0-0.2,0-0.3,0c-0.2,0-0.3,0-0.3,0c-0.3-0.2-0.5-0.2-0.1-0.2c-0.2,0-0.4,0-0.5,0
		c-0.1,0-0.2,0-0.3,0c-0.2,0-0.3,0-0.7,0l0.1-0.1c-0.3,0-0.7,0-0.9-0.1c-0.1-0.1-0.4-0.1-0.8-0.1c-0.3,0-0.8-0.1-1.2-0.1
		c-0.9,0-1.9,0-2.7,0c0.2,0.1,0,0.1-0.3,0.1c-0.2,0-0.5,0-0.5,0.1c-0.1,0-0.3,0-0.1-0.1c-0.4,0.1-0.7,0.1-1,0.2
		c-0.3,0-0.5,0.1-0.8,0.2c-0.1,0,0.1-0.1,0.1-0.1c-0.1,0-0.2,0.1-0.3,0.1c-0.1,0,0.1-0.1,0.2-0.1c-0.2,0.1-0.4,0.1-0.5,0.2
		c-0.1,0.1-0.2,0.1-0.2,0.2C14.1,0.9,14.1,1,14.1,1c-0.2,0-0.4,0.1-0.5,0.1c-0.1,0.1-0.2,0.1-0.4,0.2c-0.2,0-0.4,0,0.1-0.2
		c-0.1,0-0.2,0.1-0.4,0.1c-0.1,0-0.2,0.1-0.3,0.1c-0.1,0-0.2,0.1-0.3,0.1c-0.4,0.2-0.7,0.3-0.7,0.4c-0.1,0-0.4,0.2-0.4,0.2
		c-0.3,0.1-0.5,0.2-0.6,0.3c-0.2,0.1-0.3,0.2-0.6,0.3l0.2-0.1C10.1,2.9,9.8,3,9.4,3.3l0,0C9.1,3.4,9,3.5,8.9,3.5
		C8.8,3.6,8.7,3.6,8.7,3.7c0,0-0.1,0.1-0.2,0.1C8.4,3.9,8.2,4,8,4.1l0.1,0c0,0.1-0.2,0.2-0.5,0.4C7.3,4.7,7,4.9,6.7,5.2L7,5.1
		C6.8,5.2,6.6,5.3,6.4,5.4C6.1,5.6,5.9,5.7,5.7,5.8c-0.1,0,0.1-0.1,0.1-0.2c-0.8,0.6,0,0.2-0.5,0.7C5.3,6.4,5.4,6.1,5,6.4
		C4.9,6.5,4.7,6.8,4.5,7.1C4.4,7.3,4.3,7.5,4.2,7.7C4,7.8,3.9,8,3.8,8.1C3.9,8,4,7.9,3.9,8.2c-0.3,0.4-1,1-1,1.5
		c0,0-0.1,0.1-0.1,0.1c-0.1,0.2-0.2,0.5-0.3,0.7c-0.1,0.3-0.2,0.5-0.2,0.7c-0.1,0-0.2,0.2-0.3,0.4c-0.1,0.2-0.2,0.5-0.3,0.8
		c-0.1,0.3-0.2,0.5-0.2,0.7c-0.1,0.2-0.1,0.3-0.2,0.3c0,0-0.1,0.3-0.2,0.6c-0.1,0.3-0.2,0.6-0.2,0.6l0,0c-0.1,0.4-0.2,0.6-0.2,0.8
		c0,0.2,0,0.3,0,0.5c-0.1,0.2-0.1,0-0.1,0c-0.1,0.5-0.2,0.9-0.2,1.1c0,0.3,0,0.6,0,1l-0.1,0.1c0,0.3-0.3,1.6-0.1,2.7
		c0,0,0,0-0.1-0.1c0.1,0.6,0.1,1.4,0.1,2c0,0.7,0.2,1.2,0.4,1.4c0,0,0.1,0.2,0.1,0.4c0.1,0.2,0.1,0.4,0.1,0.4
		c-0.2-1,0.2,0.1,0.1-0.3C1,24.8,1,25,1,25.2c0,0.2,0,0.2-0.1,0l0-0.1c-0.2-0.1,0.3,1.3,0.2,1.3c0.3,1,0.7,1.9,1.2,2.9
		c0.4,0.9,1,1.8,1.5,2.6c0,0,0-0.1,0-0.1c0-0.1,0-0.1,0-0.1s0,0,0.1,0.1c0,0.1,0.1,0.1,0.1,0.2c0.1,0.1,0.2,0.3,0.2,0.3
		c0.1,0.2,0.1,0.3-0.2-0.1c0.1,0.3,0.6,0.6,0.6,0.6c0.6,0.8-0.4-0.2-0.2,0l0.3,0.3l0-0.1C4.8,32.9,4.8,33,4.9,33
		c0.1,0.1,0.2,0.2,0.4,0.4c0.2,0.3,0.1,0.2,0.2,0.3c0,0,0,0,0.2,0.2c0,0,0,0,0.1,0.1c0.1,0.1,0.1,0.1,0.2,0.2
		c0.2,0.2,0.3,0.3,0.3,0.3l-0.2-0.3c0.3,0.2,0.6,0.6,0.4,0.2c0.1,0.3,0.7,0.8,1.3,1.3c0.3,0.2,0.6,0.4,0.9,0.6
		c0.3,0.2,0.4,0.3,0.5,0.4c0.1,0.1,0.2,0.1,0.4,0.2c0.1,0.1,0.2,0.1,0.4,0.2c0.2,0.1,0.5,0.3,0.8,0.4c-0.1-0.1-0.2-0.3,0.3,0
		c-0.2,0.1,0.1,0.2,0.4,0.4c0.3,0.2,0.7,0.4,0.9,0.5c-0.2-0.1,0.2,0,0.6,0.1c0.4,0.1,0.7,0.2,0.4,0c0.4,0.2,0,0.1,0.3,0.3
		c1.1,0.3,2.4,0.8,3.7,0.9c0,0-0.2-0.1,0.1-0.1c0,0,0,0,0.1,0c0.1,0,0.2,0.1,0.2,0.1c0.2,0.1,0.4,0.1,0.4,0.1c0.1,0,0.2,0,0.3-0.1
		c0.1,0,0.2,0,0.5,0c-0.1,0-0.2-0.1,0-0.1c1.3,0.2,2.7,0.1,4.1-0.2c1.4-0.2,2.7-0.6,4.1-0.9c-0.4,0.1-0.1,0,0.1-0.1
		c-0.2,0,0-0.1-0.1-0.1c0,0,0.1,0,0.2,0c0.1,0,0.2-0.1,0.4-0.1c0.1,0,0.3-0.1,0.4-0.1c0.1,0,0.2-0.1,0.2-0.1
		c0.1-0.1,0.3-0.2,0.6-0.4c0.3-0.1,0.5-0.3,0.5-0.4L29,37.6c0.2-0.2,0-0.2-0.2-0.2c-0.2,0-0.5,0-0.5-0.1c-0.1,0.1-0.2,0.2-0.4,0.2
		c-0.2,0.1-0.3,0.1-0.5,0.2c-0.4,0.1-0.8,0.2-1.2,0.5c-0.2,0,0.1-0.1,0-0.1c-0.2,0.2-0.4,0.2-0.9,0.4l0,0c-0.3,0.1-0.6,0.2-0.9,0.2
		c-0.3,0.1-0.5,0.1-0.8,0.1c-0.3,0-0.5,0.1-0.8,0.1c-0.3,0-0.6,0.1-1,0.1l0.1,0.1c-0.3,0-0.4,0-0.6,0c-0.4,0.2,0.9-0.1,0.6,0.1
		c-0.1,0-0.3,0-0.6,0c-0.2,0-0.5,0-0.8,0c-0.3,0-0.6,0-0.8,0c-0.2,0-0.4,0-0.5-0.1c-0.5,0,0.1,0.1-0.4,0.1l-0.1-0.1l-0.1,0.1
		c-0.3,0-0.5-0.1-0.5-0.2c0.1,0,0.2,0,0.3,0c-0.2-0.1-0.5-0.1-0.8-0.1c-0.3,0-0.5,0-0.6-0.1c0,0,0.1,0,0.2,0.1
		c0.1,0,0.2,0.1,0.2,0.1c-1.4-0.1-3-0.6-4.3-0.9l0.1,0.1C13.3,38,13.1,38,13,37.9c-0.1-0.1-0.2-0.1-0.3-0.1
		c-0.2-0.1-0.4-0.2-0.9-0.4l0,0c-0.2,0-0.5-0.2-0.8-0.3c0.3,0.1-0.4-0.3-0.1-0.2c-0.5-0.2-0.6-0.3-0.7-0.3c-0.1,0-0.2,0-0.5-0.1
		l-0.1-0.2c-0.1,0-0.2-0.1-0.3-0.1c-0.1,0-0.2-0.1-0.5-0.3c0.4,0.2-0.2-0.3,0.2-0.1c-0.2-0.2-0.4-0.4-0.6-0.5
		c-0.2-0.1-0.3-0.2-0.5-0.3c-0.3-0.2-0.5-0.4-0.7-0.6c-0.3-0.1-0.1,0.1,0.1,0.3c0.2,0.2,0.5,0.4,0.3,0.3c0.1,0.1,0,0.1-0.2,0
		c-0.2-0.1-0.4-0.3-0.5-0.4c-0.1-0.1-0.2-0.3-0.3-0.5c-0.1-0.1-0.1-0.2-0.2-0.4c-0.1-0.1-0.1-0.1-0.2-0.2c-0.1-0.1-0.1-0.2-0.2-0.2
		c0.1,0.1,0.1,0.1,0.1,0.1C6.1,33.1,6,33,5.8,32.9c-0.1-0.1-0.1-0.1-0.2-0.2c-0.1-0.1-0.1-0.2-0.2-0.3c-0.3-0.1-0.4-0.4-0.5-0.4
		l0.6,0.6c-0.2-0.2-0.4-0.3-0.6-0.5c-0.2-0.2-0.4-0.4-0.6-0.8c0.1,0,0.2,0.2,0.4,0.3c-0.1-0.2-0.3-0.3-0.4-0.6
		c0.1,0,0.2,0.2,0.4,0.4C4.8,31.7,4.9,31.9,5,32c0.1,0.1,0.2,0.2,0.3,0.3C5.3,32.2,5.1,32,5,31.9c-0.1-0.1-0.2-0.2,0-0.2
		c-0.2-0.1-0.3-0.3-0.5-0.5c-0.1-0.2-0.3-0.5-0.5-0.7l0.1,0c-0.1-0.1-0.2-0.2-0.3-0.4L4,30.3c-0.4-0.4-0.4-0.9-0.7-1.3
		c0.2,0.5,0.3,0.5,0.2,0.5c0,0-0.1-0.1,0,0.2c-0.7-1.1-0.2-0.8-0.8-2c0.1,0.2,0.3,0.7,0.1,0.4c-0.1-0.3-0.2-0.6-0.2-0.8
		c-0.4-0.9,0,0.2-0.2-0.2c0-0.3-0.2-0.4-0.4-0.8l0.1,0c-0.1-0.3-0.1-0.4-0.2-0.5c0-0.1-0.1-0.1-0.1-0.1c-0.1,0-0.1-0.1-0.2-0.6
		l0.3,0.4c0,0,0-0.1-0.1-0.2c0-0.1,0-0.1-0.1-0.2c0,0,0-0.1,0-0.1l0.1,0.1c-0.1-0.3-0.2-0.4-0.2-0.6c0-0.2-0.1-0.4-0.1-0.6
		c0,0.1-0.2,0-0.3-0.5c0-0.3,0.1,0.2,0-0.5c0.1,0.1,0.2,0.3,0.1,0.6c0,0,0.1,0.1,0.1,0.2c0-0.4-0.1-0.9-0.2-1.1c0,0.1,0,0.2,0,0.3
		c0,0-0.1-0.2-0.1-0.5c-0.1-0.2-0.1-0.5-0.1-0.5c0-0.2,0.1,0,0.1,0.1c0-0.2-0.1-0.3-0.1-0.6c0.1,0.1,0.2,0,0.2,0.5c0,0,0-0.1,0-0.1
		c0-0.1,0-0.2-0.1-0.3c0-0.2-0.1-0.5-0.1-0.5C1,20.7,1,20.3,1,20.4c0-0.3,0-0.6-0.1-0.9c0-0.3,0-0.7,0-1c0,0,0-0.1,0-0.3
		c0-0.2,0-0.3,0.1-0.5c0-0.2,0.1-0.3,0.1-0.5c0-0.2,0.1-0.3,0.1-0.5c0-0.2,0-0.3,0.1-0.5c0,0,0.1-0.1,0.1-0.2
		c0.1-0.1,0.1-0.2,0.1-0.2c0.1-0.6-0.3,0.5-0.1-0.5c0.1-0.7,0.2-0.2,0.3-0.5c0-0.2,0-0.4,0.1-0.7C1.8,14,1.9,13.7,2,13.4
		c0,0.2-0.1,0.4-0.2,0.6l0.2-0.4c-0.1,0.6-0.2,1,0,0.6c-0.1-0.1,0-0.5,0.2-1c0.1-0.2,0.2-0.4,0.2-0.6c0.1-0.2,0.1-0.3,0-0.4l0.2-0.3
		c0,0.1,0,0.1-0.1,0.2c0.4-0.5,0-0.5,0.4-1.2c0.2-0.2,0.3-0.4,0.2-0.2L3.6,10c0.1-0.2,0.1-0.1,0,0.1c0,0,0-0.1,0.1-0.1
		c0-0.1,0.1-0.2,0.2-0.3C4,9.5,4.1,9.3,4.1,9.3l0,0c0-0.1,0.2-0.4,0.2-0.6c0.2-0.2,0,0.1,0,0.1c0,0,0.1-0.1,0.1-0.2
		c0-0.1,0.1-0.1,0.1-0.2c0,0,0-0.1,0-0.1c0.1-0.1,0.1,0,0,0.1C4.6,8.5,4.5,8.7,4.4,8.9c0.3-0.1,0.3-0.2,0.4-0.4
		C4.8,8.3,5,8.1,5.4,7.7c0,0,0,0,0,0.1c0,0-0.1,0.1-0.1,0.1C5.1,8,5.1,8.1,5.1,8.1C5.2,8,5.4,7.9,5.5,7.8C5.7,7.6,5.8,7.4,6,7.3
		C5.9,7.3,5.1,8,5.4,7.5c0.1-0.1,0.3-0.3,0.4-0.5C6,7,6.2,6.8,6.4,6.5l0.1,0.1c0.3-0.3,0.2-0.3,0.3-0.5c0.3-0.3,0.5-0.3,0.6-0.3
		C8,5.3,7,6,7.6,5.4C7.7,5.3,7.8,5.2,8,5.1C8.1,5,8.2,4.9,8.3,4.8C8.5,4.7,8.7,4.5,9,4.2C9.4,4,9,4.3,9.1,4.3L9.4,4
		c0.1-0.1,0.1,0,0.1,0c0.2-0.2,0-0.1,0.4-0.4c0-0.1,0.3-0.2,0.6-0.3C10.7,3.1,11,3,11.3,2.8c0.2,0,0,0.1,0,0.1
		c0.7-0.5,0.6-0.4,1.2-0.8c0,0,0.1,0,0.3-0.1C13,2,13.2,2,13.2,2c-0.5,0.1,0-0.2,0.5-0.5c-0.2,0-0.3,0-0.4,0c0,0,0.2-0.1,0.4-0.2
		c0.1,0,0.2-0.1,0.3-0.1c0.1,0,0.1,0,0.1,0c0.1,0,0,0.1-0.1,0.1c0,0,0.1-0.1,0.1-0.1c0.3,0,0.2,0.1,0,0.2c-0.1,0-0.2,0-0.3,0
		c-0.2,0.1-0.3,0.3-0.2,0.3c0,0,0.1-0.1,0.2-0.1c0,0-0.1,0.1,0,0.1c0,0,0.1-0.1,0.2-0.1l0.2,0.1l0-0.1c0,0,0.3-0.1,0.5-0.1
		c0.1,0,0.3,0,0.4-0.1c0.1,0,0.2,0,0.2,0c0.2-0.1,0.3-0.2,0.5-0.2C15.8,1.1,16,1,16.2,1c0.2-0.1,0.4-0.2,0.6-0.2
		c0.2-0.1,0.5-0.1,0.8-0.2c-0.3,0.1,0,0.2,0,0.3c-0.2-0.1-0.4,0-0.7,0.1C16.8,1,16.7,1,16.5,1c-0.1,0-0.3,0.1-0.4,0.1
		c0.3,0,0.3,0,0.2,0.1c0,0,0.1,0,0.2-0.1c0.1,0,0.2-0.1,0.4-0.1c0.3-0.1,0.5-0.1,0.5-0.1c0,0.1,0.2,0,0.5,0.1
		c-0.1-0.1,0.1-0.1,0.4-0.2c0.3-0.1,0.7-0.1,0.9-0.1c0,0.1-0.1,0.1-0.6,0.2c0.6,0.1,0.8-0.3,1.4-0.2c-0.1,0-0.2,0-0.3,0
		c0.2,0,0.4,0,0.6,0c0.2,0,0.4,0.1,0.3,0.1l-0.1,0c0.2,0,0.5,0,0.8,0c0.3,0,0.6,0,0.9,0.1c0.6,0,1.1,0.1,1.1,0c0,0-0.1,0.2-0.2,0.2
		c0,0,0.1,0,0.3,0c0.2,0,0.4-0.1,0.6-0.1c0.2,0,0.4-0.1,0.6-0.1c0.2,0,0.3,0,0.3,0c-0.2,0.1,0.3,0.6-0.5,0.5
		c0.2,0.1,0.4,0.1,0.9,0.2c-0.1-0.1-0.3-0.3-0.1-0.3c0.5,0.3,0.3,0.2,0.9,0.5c-0.2-0.1,0.1-0.2,0.4-0.1c-0.1,0,0,0.2-0.2,0.2
		c0,0,0.2,0,0.4,0c0.2,0,0.4,0,0.4,0c-0.2,0-0.1,0.2,0,0.3c0,0,0.1,0,0.3,0.1c0.2,0.1,0.4,0.2,0.5,0.2l-0.3-0.2
		c0.8,0.4,1,0.1,1.8,0.6c-0.1,0-0.4,0.1,0,0.4c0.2,0,1.1,0,1.9,0.4L31.5,4c0,0,0.1,0.1,0.3,0.2c0.1,0,0.1,0.1,0.2,0.1
		C32,4.3,32,4.3,32,4.3c-0.2-0.1-0.6-0.2-1-0.3c-0.4-0.1-0.9-0.3-1.1-0.4c0.3,0.2,0,0.1,0.5,0.4c0.1,0.2-0.3-0.1-0.4-0.2
		c0,0,0.3,0.2,0.5,0.4c0.1,0.1,0.2,0.2,0.3,0.3c0.1,0.1,0.2,0.1,0.2,0.1c0-0.1,0.2,0,0.4,0.2C31.6,4.9,31.8,5,31.8,5
		c0,0-0.1,0-0.2-0.1c-0.1-0.1-0.2-0.2-0.4-0.2c-0.3-0.2-0.6-0.3-0.6-0.3c0-0.1,0.2,0,0.5,0.1c0.1,0.1,0.3,0.1,0.5,0.2
		C31.8,4.7,32,4.8,32.2,5c0.1,0.2-0.3,0.1-0.3,0.1c0.1,0,0.2,0.1,0.4,0.3c0.2,0.1,0.3,0.3,0.3,0.3l-0.3-0.2c0.2,0.2,0.3,0.3,0.5,0.4
		C33,6,33.2,6.1,33.3,6.4c0.1,0.1,0.3,0.6,0.4,0.5c-0.1-0.3,0.2-0.7,0.4-0.6c0,0,0.2,0.3,0.4,0.5c0.2,0.2,0.3,0.5,0.4,0.6
		c0.1,0.3-0.5-0.2-0.4,0.1c0,0,0.2,0.1,0.3,0.1c0.1,0.2-0.1,0,0.2,0.4c0.2,0,0.6,0.8,0.2,0.1c0.2,0.2,0.2,0.3,0.3,0.4
		c0.1,0.1,0.1,0.2,0.3,0.5c0-0.2,0.5,0.2,0.8,0.6c0,0,0,0.1,0,0.2c0.1,0.2,0.2,0.4,0.3,0.6c0.1,0.2,0.2,0.3,0.2,0.5
		c0.1,0.2,0.2,0.3,0.2,0.5c0.1,0.2,0.2,0.3,0.3,0.5c0,0.1,0.1,0.5,0,0.3c0.1,0.1,0.2,0.2,0.3,0.4c0.1,0.5-0.2-0.5-0.2-0.1
		c0.1,0,0.4,0.6,0.5,0.9c0-0.1,0-0.3-0.1-0.5c-0.1-0.2-0.3-0.5-0.4-0.7c0.1,0,0.2,0.1,0.4,0.3c0.1,0.1,0.2,0.3,0.3,0.4
		c0.1,0.2,0.2,0.4,0.3,0.6c0.2,0.3,0.1,0.4,0.1,0.4c0,0-0.1,0,0,0c0.1,0.3,0.2,0.6,0.3,0.7c0.1,0.2,0.1,0.3,0.2,0.4
		c0.1,0.2,0.2,0.5,0.3,1.1c0,0.5-0.2,0.1-0.3,0.2c-0.1-0.3-0.1-0.5-0.1-0.7c0-0.2,0-0.4-0.1-0.6l0.1,0.5c-0.1-0.2-0.2-0.6-0.2-0.8
		c0,0.1,0,0.3,0.1,0.5c0,0.1,0.1,0.3,0.1,0.4c0,0.1,0.1,0.3,0.1,0.5c0,0.2,0.1,0.3,0.1,0.5c0,0.2,0,0.3,0.1,0.5
		c0,0.3,0.1,0.7,0.1,0.9c0.1,0.2,0.1,0.5,0.2,0.3l0-0.3c0.1-0.3,0.2,0.6,0.2,0.2c0.1,0.2,0.1,0.5,0.1,0.7c0,0.1,0,0.3,0,0.4
		c0,0.1,0,0.3,0,0.5l-0.1,0.1c0,0,0.1-0.4,0-0.6c0.1,0.3-0.2,1,0,1.3c0,0,0-0.1,0.1-0.2c0-0.1,0-0.2,0-0.2c0,0.2,0.1,0.5,0.1,0.8
		c0,0.3,0,0.6,0,0.8c0.1-0.3,0-0.1,0.2-0.5C39.8,21.7,40,19.9,39.8,20.5z M5.6,33.8l-0.1-0.1C5.7,33.9,5.6,33.8,5.6,33.8z M5.3,7.7
		C5.2,7.8,5.2,7.9,5.1,7.9c0-0.2,0.1-0.3,0.3-0.4C5.4,7.6,5.3,7.6,5.3,7.7z M14.3,1.4c0.1,0,0.3-0.1,0.5-0.1
		C14.7,1.4,14.5,1.4,14.3,1.4z M39.5,16.2C39.5,15.9,39.5,16,39.5,16.2C39.5,16.2,39.5,16.2,39.5,16.2z M13.6,1.8
		C13.5,1.8,13.5,1.8,13.6,1.8C13.4,1.8,13.5,1.9,13.6,1.8z M1,18.4L1,18.4C1,18.5,1,18.5,1,18.4L1,18.4z M34.4,7.5
		c0,0,0,0.1,0.1,0.2C34.5,7.6,34.4,7.5,34.4,7.5z M40,20.4c0-0.1,0-0.2,0-0.2c0,0.2,0,0.3,0,0.4c0,0,0.1-0.1,0.1,0
		C40,20.6,40,20.5,40,20.4z M38.9,24.3c0,0.1,0,0.1,0,0.2l0,0C39,24.3,39,24.1,38.9,24.3z M39.7,21c-0.1,0-0.1,0.3-0.1,0.6
		c0,0,0,0,0-0.1C39.7,21.7,39.7,21.3,39.7,21z M39.6,21.7c0,0.1,0,0.2,0,0.3C39.6,22,39.6,21.9,39.6,21.7z M39.8,17.8
		c0,0.2,0.1,0.1,0.1,0.2C40,18.1,39.6,17,39.8,17.8z M39.4,21.2l0.1-0.1L39.4,21L39.4,21.2z M39.5,18.8l0,0.5c0,0,0,0.1,0,0.1
		C39.5,19.1,39.5,18.8,39.5,18.8z M39.5,19.4c0,0.2,0,0.3,0,0.4C39.5,19.7,39.5,19.6,39.5,19.4z M39.4,20.6l0-0.1l0-0.3
		c0,0,0,0.1,0,0.2C39.4,20.4,39.4,20.6,39.4,20.6z M38.5,13.6l-0.2-0.5c-0.1,0,0,0.1,0.1,0.3C38.4,13.5,38.5,13.7,38.5,13.6z
		 M38.5,15l0.1,0.2c0-0.1,0-0.2,0-0.2L38.5,15z M38.2,13.8c-0.1,0-0.4-0.7-0.1-0.1C38.1,13.8,38.3,14.3,38.2,13.8z M34.5,6.8
		l-0.2,0.1L34.4,7L34.5,6.8z M28.5,3c0.5,0.3,0.2,0,0.7,0.3c0.2,0-0.4-0.3-0.2-0.2C28.5,3,28.4,2.8,28.5,3z M28.9,3.1
		c0.1,0,0.1,0,0.2,0.1C29,3.1,28.9,3.1,28.9,3.1z M28.9,37.9c0,0,0.1,0,0.2-0.1c0.1,0,0.2-0.1,0.2-0.1l-0.3,0.1L28.9,37.9z
		 M29.7,37.5l0.2-0.2c-0.1,0-0.2,0.1-0.3,0.2L29.7,37.5z M6.4,6.9L6.4,6.9c-0.1,0-0.1,0-0.3,0.2L6.4,6.9z M3.2,11.1L3.2,11.1l-0.1,0
		L3.2,11.1z M1.7,15.3c0-0.2,0.1-0.4,0.1-0.6C1.8,15.1,1.6,15.3,1.7,15.3z M26.2,12H13.9c-1,0-1.8,0.8-1.8,1.8v12.3
		c0,1,0.8,1.8,1.8,1.8h12.3c1,0,1.8-0.8,1.8-1.8V13.9C28,12.9,27.2,12,26.2,12z M23.1,14.6c0-0.3,0.2-0.5,0.5-0.5h1.7
		c0.3,0,0.5,0.2,0.5,0.5v1.8c0,0.3-0.2,0.5-0.5,0.5h-1.7c-0.3,0-0.5-0.2-0.5-0.5V14.6z M20,17c1.7,0,3.1,1.4,3.1,3.1
		c0,1.7-1.4,3.1-3.1,3.1c-1.7,0-3.1-1.4-3.1-3.1C16.9,18.3,18.3,17,20,17z M26,25.4c0,0.3-0.3,0.6-0.6,0.6H14.6
		c-0.3,0-0.6-0.3-0.6-0.6v-6.6h1.2c-0.1,0.4-0.2,0.8-0.2,1.2c0,2.7,2.2,4.9,4.9,4.9c2.7,0,4.9-2.2,4.9-4.9c0-0.4-0.1-0.8-0.2-1.2H26
		V25.4z"/>
</g>
</svg>
