<?xml version="1.0" encoding="utf-8"?>
<!-- Generator: Adobe Illustrator 18.1.1, SVG Export Plug-In . SVG Version: 6.00 Build 0)  -->
<svg version="1.1" id="Layer_1" xmlns="http://www.w3.org/2000/svg" xmlns:xlink="http://www.w3.org/1999/xlink" x="0px" y="0px"
	 viewBox="0 0 95 50" enable-background="new 0 0 95 50" xml:space="preserve">
<g>
	<g>
		<path d="M90.9,5.4C90.7,5,90.4,5,90,5.1c-4.5-0.7-9-1.5-13.5-2.4c-3.3-0.6-6.6-1.5-10-1.4c-0.1,0-0.1,0-0.2-0.1
			c-10.8-1.7-22-1.6-32.9-0.5c-5.3,0.5-10.6,1-15.8,1.7c-4.9,0.7-10,1.3-14.8,2.8C2.4,5.4,2.3,5.9,2.4,6.2
			c-3,12.9-3.5,25.5,0.2,38.2c0,0.4,0.3,0.7,0.7,0.8c4.1,0.4,8.2,1.5,12.2,2.2c1.9,0.3,3.8,0.6,5.7,0.8c0.2,0.1,0.4,0.1,0.5,0.1
			c2.5,0.2,5,0.4,7.4,0.6c4.7,0.3,9.4,0.5,14.2,0.8c2.3,0.2,4.7,0.3,7,0.2c1.1,0.2,2.3,0.2,3.5-0.1c0,0,0.1,0,0.1-0.1
			c7.1,0,14.1-0.8,21-2c5.2-0.5,10.4-1.4,15.5-2.8c0.3-0.1,0.5-0.4,0.5-0.6c0.1-0.1,0.1-0.2,0.2-0.3C95.9,32,96.7,17.3,90.9,5.4z
			 M1.3,25.6c0-0.2,0-0.3,0-0.5C1.3,25.2,1.3,25.4,1.3,25.6C1.3,25.5,1.3,25.6,1.3,25.6z M93.1,17.9c0,0.1,0,0.1,0,0.2
			c0,0-0.1,0-0.1,0C93.1,18,93.1,18,93.1,17.9z M93.4,21.2c0,0.5,0.1,1,0.1,1.5c-0.2,0-0.4,0.2-0.5,0.4
			C93.1,22.5,93.3,21.8,93.4,21.2z M92.9,23.3C92.9,23.3,92.9,23.4,92.9,23.3C92.9,23.4,92.9,23.4,92.9,23.3
			C92.9,23.4,92.9,23.4,92.9,23.3z M90.2,9c0.1,0.1,0.1,0.2,0.1,0.3c0,0-0.1,0-0.1,0.1c-0.2,0.1-0.3,0.2-0.5,0.3
			C89.9,9.5,90.1,9.3,90.2,9z M89.1,7.4c0.1,0.1,0.1,0.2,0.2,0.3c-0.2,0.1-0.4,0.3-0.7,0.4C88.8,7.9,89,7.6,89.1,7.4z M88.2,20.6
			C88.2,20.6,88.2,20.6,88.2,20.6C88.2,20.6,88.3,20.6,88.2,20.6c0,0.2,0,0.4,0,0.6c0,0,0,0-0.1,0C88.2,21,88.2,20.8,88.2,20.6z
			 M88.4,29.3c-0.3,1.2-0.5,2.3-0.8,3.5c-0.1-0.2-0.1-0.4-0.2-0.5c0.2-0.5,0.4-1,0.5-1.5C88,30.3,88.2,29.8,88.4,29.3z M87.4,6.5
			c0-0.1,0.1-0.2,0.1-0.3c0.1,0,0.3,0,0.4,0.1c-0.2,0.2-0.4,0.3-0.6,0.5C87.3,6.7,87.4,6.6,87.4,6.5z M87.1,16.6
			C87.1,16.6,87.1,16.6,87.1,16.6C87.1,16.6,87.1,16.6,87.1,16.6L87.1,16.6z M87.1,18.6c0.1,0.1,0.2,0.1,0.4,0.1
			c0.3,0,0.4-0.1,0.6-0.2c0,0.4,0,0.9,0,1.3c0,0.1,0,0.1,0,0.2c-0.3-0.1-0.6-0.1-0.9,0.1C87.1,19.6,87.1,19.1,87.1,18.6z M85.9,5.9
			C85.8,6,85.8,6,85.7,6.1c0-0.1,0-0.1,0-0.2C85.7,5.9,85.8,5.9,85.9,5.9z M84.5,10.2c-0.2,0-0.3,0-0.5,0c0.2-0.2,0.4-0.5,0.5-0.7
			c0,0.1-0.1,0.2-0.1,0.3C84.5,9.9,84.5,10,84.5,10.2z M84.4,19.9c0-0.1-0.1-0.2-0.2-0.2c0,0,0.1,0,0.1,0
			C84.4,19.8,84.4,19.8,84.4,19.9C84.5,19.9,84.5,19.9,84.4,19.9C84.4,19.9,84.4,19.9,84.4,19.9z M84.4,24.6c-0.1,0-0.1,0-0.2,0
			c0-0.1,0-0.1,0-0.2c0,0,0,0,0.1,0C84.4,24.4,84.4,24.5,84.4,24.6z M84.4,5.7c-0.2,0.2-0.5,0.5-0.7,0.7c0-0.1,0-0.1,0.1-0.2
			c0.1-0.2,0-0.4-0.1-0.6C83.9,5.6,84.1,5.6,84.4,5.7z M82.7,10c0,0.1,0,0.1,0.1,0.2c-0.1,0-0.1,0-0.2,0C82.6,10.1,82.6,10,82.7,10z
			 M82.5,5.4C82.5,5.4,82.5,5.4,82.5,5.4c-0.1,0.2-0.2,0.3-0.3,0.3c0-0.2-0.2-0.4-0.4-0.5C82.1,5.3,82.3,5.3,82.5,5.4z M81.4,5.2
			c-0.1,0-0.2,0-0.3,0.1c-0.1,0-0.2-0.1-0.3-0.1c0,0,0-0.1,0-0.1C81,5.1,81.2,5.1,81.4,5.2z M79.3,4.8C79.4,4.8,79.4,4.8,79.3,4.8
			C79.4,4.8,79.3,4.8,79.3,4.8C79.3,4.8,79.3,4.8,79.3,4.8z M76.8,4.8C76.9,4.6,77,4.5,77,4.3c0.2,0,0.4,0.1,0.6,0.1
			c-0.5,0.3-0.9,0.6-1.4,0.9C76.4,5.2,76.6,5,76.8,4.8z M75.4,4c-0.2,0.1-0.4,0.3-0.5,0.4c0-0.2,0-0.4-0.2-0.6
			C74.9,3.9,75.1,4,75.4,4z M73.8,3.7C73.8,3.7,73.8,3.7,73.8,3.7c-0.1,0-0.1,0.1-0.1,0.1c0,0,0,0,0,0c0,0,0,0,0-0.1
			C73.7,3.7,73.8,3.7,73.8,3.7z M71.8,4.8c0.1,0,0.1,0,0.2,0c-0.1,0-0.1,0.1-0.2,0.1C71.8,4.9,71.8,4.9,71.8,4.8z M71,3.2
			c0,0.1-0.1,0.2-0.1,0.3c-0.1,0-0.2-0.1-0.2-0.1c0-0.1,0-0.2,0-0.3C70.7,3.1,70.9,3.2,71,3.2z M70.8,7.5
			C70.8,7.6,70.8,7.6,70.8,7.5C70.8,7.6,70.8,7.6,70.8,7.5C70.8,7.6,70.8,7.6,70.8,7.5z M70.7,10.7C70.7,10.7,70.7,10.7,70.7,10.7
			c0.1-0.1,0.1-0.1,0.2-0.2c0.2,0.2,0.5,0.2,0.8,0.1c0.3-0.2,0.6-0.4,0.8-0.6c0,0.1,0.1,0.2,0.1,0.2c-0.1,0.1-0.2,0.2-0.3,0.3
			c-0.8,0.5-1.4,1-1.9,1.6c-0.1,0-0.2-0.1-0.3-0.1c0,0,0,0,0,0C70.3,11.5,70.5,11.1,70.7,10.7z M68.9,2.9c0.1,0,0.2,0,0.3,0
			C69.1,3,69,3.1,68.9,3.2C68.9,3.1,68.9,3,68.9,2.9z M66.3,12.1C66.2,12,66.1,12,65.9,12c0.5-0.6,0.9-1.1,1.4-1.7
			C67,10.9,66.7,11.5,66.3,12.1z M67.1,14.9C67.1,14.9,67.1,14.9,67.1,14.9C67.1,14.9,67.1,14.9,67.1,14.9
			C67.1,14.9,67.1,14.9,67.1,14.9z M65.3,3.1c0.1,0,0.3-0.1,0.4-0.2c0.4,0,0.8,0,1.2,0c-0.1,0.1-0.3,0.2-0.4,0.3
			c-0.1,0-0.1,0.1-0.2,0.1c-0.3,0.2-0.7,0.4-1,0.6c0-0.2-0.1-0.4-0.2-0.5C65.2,3.2,65.3,3.1,65.3,3.1z M65.7,10
			C65.7,10,65.7,10,65.7,10L65.7,10C65.7,10,65.7,10,65.7,10z M64.3,14c0.1,0.1,0.2,0.1,0.4,0.1c0.2,0.1,0.5,0,0.7-0.2
			c-0.1,0.2-0.3,0.5-0.4,0.7c-0.1-0.3-0.4-0.6-0.8-0.5C64.2,14.1,64.3,14.1,64.3,14z M60.8,10.4C60.8,10.4,60.8,10.4,60.8,10.4
			c-0.1,0-0.1,0-0.1,0c0.4-0.3,0.7-0.6,1.1-0.9C61.5,9.8,61.1,10.1,60.8,10.4z M61.7,22.2c-0.1,0-0.2,0.1-0.3,0.1c0,0,0,0,0,0
			C61.5,22.3,61.6,22.2,61.7,22.2C61.7,22.2,61.7,22.2,61.7,22.2z M60.3,14.1C60.3,14.1,60.3,14.1,60.3,14.1
			C60.3,14.1,60.4,14.1,60.3,14.1c0.2-0.1,0.3-0.2,0.4-0.2c0.1,0.2,0.3,0.3,0.5,0.4c0,0,0,0-0.1,0c-0.2,0.2-0.4,0.3-0.7,0.5
			C60.6,14.5,60.5,14.3,60.3,14.1z M60.3,11.9c0,0,0.1,0,0.1,0c0.3,0,0.5-0.1,0.6-0.3c0,0,0,0,0,0c-0.3,0.2-0.5,0.4-0.8,0.6
			C60.4,12.1,60.4,12,60.3,11.9z M61.9,14.1c0.5-0.4,1-0.9,1.5-1.4c-0.4,0.6-0.9,1.1-1.3,1.7c0,0,0,0,0,0c-0.1-0.1-0.2-0.2-0.4-0.2
			C61.8,14.2,61.9,14.1,61.9,14.1z M64.1,21c-0.1,0.1-0.1,0.3-0.2,0.4c0,0.1,0,0.2,0,0.3c-0.2,0-0.4,0-0.5,0.1
			C63.6,21.5,63.8,21.3,64.1,21z M63.3,4.8c0.1,0,0.1-0.1,0.1-0.1c0,0,0.1,0,0.1-0.1c-0.1,0.2-0.1,0.4-0.1,0.6
			C63,5.4,62.6,5.7,62.2,6C62.5,5.6,62.9,5.2,63.3,4.8C63.3,4.8,63.3,4.8,63.3,4.8z M60.3,2c-0.8,0.2-1.6,0.3-2.5,0.4
			c0.1-0.2,0.1-0.4,0-0.6C58.6,1.8,59.4,1.9,60.3,2z M58.3,3.8c0.4-0.1,0.9-0.1,1.3-0.2c-0.4,0.3-0.9,0.6-1.3,0.8
			c0-0.1,0-0.2,0.1-0.2C58.4,4.1,58.3,4,58.3,3.8z M57.5,6.6c1.3-0.7,2.6-1.5,3.9-2.4c0.4-0.3,0.4-0.7,0.2-1.1
			c0.2,0,0.3-0.1,0.5-0.1c0.1,0,0.2-0.1,0.2-0.1c0,0,0.1,0,0.2,0c0.2,0,0.3,0,0.5,0.1c-0.2,0.2-0.4,0.4-0.6,0.6c0,0,0,0,0,0
			c-1.5,1.2-3.1,2.3-4.8,3.2C57.5,6.8,57.5,6.7,57.5,6.6z M58.8,28.1c-0.1,0-0.2,0-0.3,0.1c-0.3,0.2-0.6,0.3-0.9,0.4
			c0,0-0.1,0-0.2,0c-0.7,0.3-1.3,0.6-1.9,0.9c-0.1,0-0.1,0.1-0.1,0.2c-0.3-0.1-0.7-0.2-0.9-0.6c-0.1-3.6-0.1-7.2,0.1-10.8
			c0-0.1,0-0.2-0.1-0.3c0.4-0.1,0.9-0.2,1.3-0.3c0.1,0.1,0.1,0.1,0.2,0.1c2.4,0.9,3.7,3.7,4.1,6.1c0,0,0,0,0,0
			C60.1,25.4,59.7,26.8,58.8,28.1z M59.7,28.6C59.7,28.6,59.7,28.6,59.7,28.6C59.7,28.6,59.7,28.6,59.7,28.6
			C59.7,28.6,59.7,28.6,59.7,28.6z M52.9,4.1C52.9,4.1,52.9,4.1,52.9,4.1c-0.2,0-0.4,0-0.6,0.1c0-0.2,0-0.4-0.2-0.6
			c0.1,0,0.3,0,0.4-0.1c0.1-0.1,0.3-0.1,0.4-0.2c0,0,0.1,0.1,0.1,0.1c-0.1,0.1-0.2,0.3-0.2,0.4C52.9,3.9,52.9,4,52.9,4.1z M54.5,6.4
			c0.6-0.2,1.2-0.4,1.7-0.7c-0.9,0.5-1.8,1-2.7,1.4C53.3,7,53,7,52.8,6.9C53.4,6.8,54.1,6.5,54.5,6.4z M55.7,8.4
			c-0.2-0.2-0.4-0.3-0.6-0.5c0.2-0.1,0.4-0.2,0.6-0.3c0,0.2-0.1,0.4-0.1,0.6C55.7,8.3,55.7,8.3,55.7,8.4z M55.5,14.2
			c-0.1,0-0.1,0.1-0.2,0.1C55.4,14.2,55.4,14.2,55.5,14.2C55.5,14.2,55.5,14.2,55.5,14.2z M56.4,14.9C56.5,14.9,56.5,14.9,56.4,14.9
			C56.5,14.9,56.5,14.9,56.4,14.9C56.5,14.9,56.4,14.9,56.4,14.9z M57.8,11.2c0.1-0.3,0.2-0.5,0.3-0.8c0.1,0.1,0.2,0.1,0.3,0.1
			C58.2,10.8,58,11,57.8,11.2z M59,18C59,18,59,18,59,18C59,18,59,18.1,59,18C59,18.1,59,18.1,59,18z M59.2,10.2
			C59.2,10.2,59.2,10.2,59.2,10.2c0.1,0,0.1,0,0.1,0C59.2,10.2,59.2,10.2,59.2,10.2z M59.7,11.2C59.7,11.3,59.8,11.3,59.7,11.2
			C59.7,11.3,59.7,11.3,59.7,11.2C59.7,11.3,59.7,11.3,59.7,11.2z M59.7,10.7c0,0,0.1,0,0.1,0c0,0-0.1,0.1-0.1,0.2
			C59.8,10.8,59.8,10.7,59.7,10.7z M56.8,8.8c0.7-0.3,1.5-0.7,2.2-1.1c-0.3,0.5-0.7,1-1,1.4c-0.3-0.2-0.7-0.3-0.9,0.1
			C57,9.3,57,9.3,57,9.4c0,0,0,0,0,0c0,0,0,0,0,0c-0.1,0.1-0.2,0.3-0.3,0.4c0-0.1,0-0.1,0-0.2c0.1-0.3-0.1-0.6-0.3-0.7
			C56.5,8.9,56.7,8.9,56.8,8.8z M55.9,1.7c-0.1,0-0.3,0.1-0.4,0.1c0,0,0-0.1,0-0.1C55.6,1.6,55.7,1.6,55.9,1.7z M54.7,4
			c0.1-0.1,0.2-0.3,0.2-0.5c0.1,0.2,0.3,0.4,0.7,0.4c0.2,0,0.5,0,0.7,0c-0.6,0.3-1.3,0.6-2,0.9c0-0.2,0-0.3-0.1-0.5
			C54.4,4.2,54.6,4.1,54.7,4z M51.2,1.5c0.7,0,1.4,0,2,0.1c-0.4,0.2-0.8,0.3-1.1,0.5C52,1.7,51.6,1.4,51.2,1.5
			C51.2,1.5,51.2,1.5,51.2,1.5z M51.5,3.1c0,0.1,0.1,0.1,0.1,0.2c-0.1,0-0.3,0-0.4,0.1c-0.1,0-0.1,0.1-0.2,0.1
			C51.1,3.4,51.3,3.2,51.5,3.1z M49,2.3C49,2.3,49,2.3,49,2.3c0,0.1,0.1,0.1,0.1,0.2C48.7,2.6,48.4,2.8,48,3
			C48.3,2.7,48.7,2.5,49,2.3z M47.6,1.5c-0.2,0.2-0.4,0.3-0.6,0.5c0-0.2,0-0.3,0-0.5C47.2,1.5,47.4,1.5,47.6,1.5z M45.9,10.8
			C45.9,10.8,45.9,10.8,45.9,10.8C45.9,10.8,45.9,10.8,45.9,10.8C45.9,10.8,45.9,10.8,45.9,10.8z M42.4,1.6c0.2,0,0.3,0,0.5,0
			c-0.2,0.3-0.4,0.7-0.7,1C42.3,2.2,42.4,1.9,42.4,1.6z M42.2,6.3c0.1,0,0.3-0.1,0.4-0.2c0.4-0.4,0.7-0.8,1.1-1.2c0,0,0.1,0,0.1,0
			c-0.6,0.6-1.1,1.2-1.6,1.9C42.1,6.6,42.1,6.4,42.2,6.3z M41.8,9c0.2,0,0.4,0,0.6-0.2c0.7-0.7,1.4-1.3,2.1-1.9
			c-0.6,0.5-1.1,1.1-1.6,1.7c-0.2,0-0.3,0.1-0.4,0.3c-0.2,0.3-0.5,0.7-0.7,1C41.8,9.7,41.8,9.4,41.8,9z M43.9,15.1
			c-0.1,0-0.2,0-0.3,0C43.7,15.1,43.8,15.1,43.9,15.1C43.9,15,43.9,15.1,43.9,15.1z M42.9,11.3c0,0-0.1,0.1-0.1,0.1
			c0,0-0.1,0-0.1-0.1c0,0,0.1-0.1,0.1-0.1C42.8,11.2,42.9,11.2,42.9,11.3z M42.5,14.3C42.5,14.3,42.5,14.4,42.5,14.3
			c-0.1,0.1-0.1,0.1-0.2,0.1c0,0,0,0,0,0c0-0.1,0.1-0.1,0.1-0.2C42.4,14.3,42.5,14.3,42.5,14.3z M40.3,7.7c0-0.1,0.1-0.1,0.1-0.2
			c0,0,0,0,0,0c0,0,0,0,0,0c0,0,0,0,0,0c-0.1,0.4-0.1,0.9-0.1,1.3c-0.1-0.1-0.2-0.2-0.3-0.3c0-0.2,0-0.3-0.1-0.4
			C39.9,8,39.8,8,39.8,8C40,8,40.2,7.9,40.3,7.7z M40.2,9.7C40.2,9.7,40.3,9.6,40.2,9.7c0,0.2,0,0.4,0,0.7c-0.1-0.1-0.2-0.1-0.3-0.1
			c0-0.1-0.1-0.2-0.1-0.2C39.9,9.9,40.1,9.8,40.2,9.7z M40.2,11.7c0,0.1,0,0.3,0,0.4c-0.3,0.1-0.5,0.2-0.8,0.3
			c0.1-0.1,0.2-0.3,0.3-0.5C39.8,12,40,11.8,40.2,11.7z M39.4,7.7C39.4,7.7,39.4,7.8,39.4,7.7C39.4,7.8,39.4,7.8,39.4,7.7
			C39.4,7.8,39.4,7.7,39.4,7.7z M36.5,2.6c0.1-0.2,0.1-0.5,0-0.7c0.6-0.1,1.2-0.1,1.8-0.1c-0.1,0.2-0.1,0.3-0.2,0.5
			c-0.3-0.3-0.7-0.4-1,0c-0.4,0.4-0.7,0.8-1.1,1.3C36.2,3.3,36.3,3,36.5,2.6z M37,12.9c-0.2,0.1-0.4,0.2-0.5,0.4
			c0,0-0.1-0.1-0.1-0.1C36.6,13.1,36.8,12.9,37,12.9C37,12.8,37,12.9,37,12.9z M35.7,11.1c0.4-0.5,0.7-0.9,1.1-1.4
			c0,0.3,0.1,0.6,0.1,1c-0.4,0.3-0.9,0.5-1.3,0.5C35.6,11.1,35.6,11.1,35.7,11.1z M35.5,17c0.1-0.2,0.1-0.4,0.1-0.6
			c0.4-0.3,0.7-0.6,1.1-0.8c-0.3,0.3-0.6,0.6-0.9,0.9c-0.2,0.2-0.2,0.5-0.2,0.7c-0.1,0-0.2,0.1-0.3,0.1C35.3,17.3,35.4,17.1,35.5,17
			z M35,2.1c0,0-0.1,0.1-0.1,0.1c-0.1,0-0.1,0-0.2,0c0,0-0.1-0.1-0.1-0.1C34.8,2.1,34.9,2.1,35,2.1z M35.1,11.4
			c-0.3,0.2-0.4,0.7-0.2,1c-0.1,0.1-0.2,0.1-0.4,0.2c0-0.5-0.1-1-0.1-1.5C34.5,11.3,34.8,11.4,35.1,11.4z M34.9,14.8
			C34.9,14.8,34.9,14.8,34.9,14.8C34.9,14.8,34.9,14.8,34.9,14.8C34.9,14.8,34.9,14.8,34.9,14.8z M33.6,2.2
			C33.5,2.2,33.5,2.3,33.6,2.2L33.6,2.2C33.5,2.3,33.5,2.2,33.6,2.2C33.5,2.2,33.5,2.2,33.6,2.2z M33.1,18.7c0,0.1,0.1,0.1,0.1,0.1
			c-0.2,0.2-0.4,0.5-0.6,0.8c0-0.2,0-0.4,0-0.6c0.1,0,0.2-0.1,0.3-0.1C33,18.8,33,18.7,33.1,18.7z M32.9,23.7c-0.1,0-0.1,0-0.1,0
			c0,0,0-0.1,0-0.1C32.8,23.7,32.8,23.7,32.9,23.7z M32.8,34.5c-0.1-0.1-0.3-0.1-0.4-0.1c0,0,0,0,0,0V34c0.1-0.1,0.1-0.1,0.2-0.2
			c0,0,0,0,0,0C32.6,34,32.7,34.3,32.8,34.5z M31.2,7.3c-0.1,0.4-0.3,0.8-0.4,1.2c0,0-0.1,0.1-0.1,0.1c0-0.1,0-0.3,0-0.4
			c0-0.1,0-0.2,0.1-0.3C30.8,7.8,31,7.5,31.2,7.3C31.2,7.3,31.2,7.3,31.2,7.3z M30.7,2.5c0,0.1-0.1,0.2-0.1,0.4c0,0,0,0,0,0
			c0-0.1,0-0.2,0-0.4C30.5,2.5,30.6,2.5,30.7,2.5z M30.2,10.2C30.2,10.2,30.2,10.2,30.2,10.2c-0.4,0-0.9,0-1.3,0.1
			c-0.1,0-0.1,0-0.2,0c0.2-0.2,0.5-0.3,0.7-0.5C29.5,10,29.8,10.2,30.2,10.2z M26.8,9.7c-0.3,0.2-0.4,0.5-0.4,0.7
			c-0.2,0.1-0.4,0.2-0.6,0.3c0,0,0,0,0-0.1c0.1-0.2,0.1-0.4,0-0.5c1-0.5,1.9-1.1,2.9-1.7C28,8.9,27.4,9.4,26.8,9.7z M26.5,4.9
			C26.5,4.9,26.5,5,26.5,4.9C26.5,4.9,26.5,4.9,26.5,4.9C26.5,4.9,26.5,4.9,26.5,4.9z M26.1,4.4c0,0.1,0,0.1,0.1,0.2
			c-0.1,0-0.1-0.1-0.2-0.1C26,4.5,26.1,4.4,26.1,4.4z M25.9,2.9c-0.1,0-0.2,0.1-0.3,0.1c0,0-0.1-0.1-0.1-0.1
			C25.7,2.9,25.8,2.9,25.9,2.9z M24.2,10.7c-0.1,0.3-0.2,0.6-0.4,1c-0.1,0-0.1,0-0.2,0c0.4-0.6-0.2-1.6-0.8-1.2
			c0.1-0.3,0-0.6-0.2-0.8c0.8-0.4,1.7-0.8,2.5-1.2c-0.4,0.3-0.7,0.5-1.1,0.8C23.4,9.7,23.6,10.6,24.2,10.7z M23.9,14.4
			C23.9,14.4,23.9,14.4,23.9,14.4L23.9,14.4C23.9,14.4,23.9,14.4,23.9,14.4z M23.4,15C23.4,15,23.4,15,23.4,15c0.1,0,0.1,0,0.1,0.1
			C23.4,15.1,23.4,15.1,23.4,15z M23.4,15.8c0,0.2,0,0.5-0.1,0.7c-0.1-0.1-0.2-0.1-0.2-0.2C23.2,16.2,23.3,16,23.4,15.8z M24.4,3
			c-0.3,0.2-0.6,0.3-1,0.5c-0.1-0.2-0.3-0.3-0.4-0.3C23.5,3.1,23.9,3.1,24.4,3z M22.9,7.1c0.3-0.2,0.7-0.4,1-0.6
			c0.1-0.1,0.2-0.1,0.3-0.1c0.1,0.3,0.4,0.6,0.8,0.6c-0.7,0.3-1.3,0.6-1.9,0.9c0-0.2-0.2-0.4-0.3-0.5C22.8,7.3,22.9,7.2,22.9,7.1z
			 M22.5,3.2C22.5,3.2,22.5,3.2,22.5,3.2c-0.2,0.1-0.3,0.2-0.5,0.3c-0.1-0.1-0.1-0.2-0.2-0.2C22,3.3,22.3,3.2,22.5,3.2z M21.2,6
			c0.2,0.1,0.4,0,0.6,0c0.3-0.2,0.7-0.3,1-0.5c-0.6,0.4-1.1,0.7-1.4,0.9c-0.1,0.1-0.2,0.2-0.3,0.3c0,0,0,0,0,0
			C21.2,6.4,21.2,6.2,21.2,6z M21.5,21.3c0,0.2-0.1,0.4-0.1,0.6c0-0.3-0.1-0.6-0.1-0.9C21.3,21.1,21.4,21.2,21.5,21.3z M21.2,20.5
			C21.2,20.6,21.2,20.6,21.2,20.5C21.2,20.6,21.2,20.6,21.2,20.5C21.2,20.5,21.2,20.5,21.2,20.5z M20.6,15c-0.1,0.1-0.1,0.2-0.2,0.2
			c0,0,0,0.1,0,0.1c0-0.2-0.1-0.3-0.1-0.5C20.4,14.9,20.5,15,20.6,15z M20.7,16.2c0,0-0.1,0.1-0.1,0.1c0-0.1,0-0.1,0-0.2
			C20.6,16.1,20.6,16.1,20.7,16.2z M18.9,3.6c-0.3,0.2-0.6,0.3-0.9,0.5c0-0.1-0.1-0.2-0.2-0.3C18.2,3.7,18.5,3.6,18.9,3.6z M18,8.4
			C18,8.4,18,8.4,18,8.4c-0.1,0.1-0.1,0.2-0.1,0.3c-0.1,0-0.2,0-0.3-0.1C17.7,8.5,17.8,8.5,18,8.4z M17.2,7
			c-0.3,0.2-0.5,0.4-0.8,0.6c-0.1,0.1-0.2,0.3-0.2,0.4c0-0.1,0-0.1-0.1-0.2C16.5,7.5,16.9,7.2,17.2,7C17.2,6.9,17.2,7,17.2,7z
			 M16.4,8.5c-0.1,0-0.2,0-0.3,0c0.1-0.1,0.1-0.2,0.1-0.3C16.3,8.3,16.3,8.5,16.4,8.5z M16.7,3.9c-0.3,0.2-0.6,0.4-0.9,0.6
			c0.1-0.2,0.1-0.3,0-0.5C16.1,4,16.4,3.9,16.7,3.9z M13.4,4.4c-0.2,0.1-0.4,0.2-0.6,0.3c0-0.1,0-0.2-0.1-0.2
			C13,4.4,13.2,4.4,13.4,4.4z M10.1,12.7c-0.2-0.1-0.3-0.1-0.5,0c0.2-0.3,0.5-0.7,0.7-1c0,0.1,0,0.3,0,0.4
			C10.1,12.1,10,12.4,10.1,12.7z M10.3,14.1c-0.1,0.3-0.1,0.5-0.2,0.8c-0.1,0-0.2,0.1-0.4,0.2C9.9,14.7,10.1,14.4,10.3,14.1z
			 M10.3,9.5c0,0,0,0.1,0.1,0.1c0,0.1-0.1,0.2-0.1,0.3c-0.2-0.1-0.5,0-0.7,0.2c-0.1,0.1-0.1,0.1-0.2,0.2c0.1-0.2,0.3-0.4,0.4-0.6
			C10,9.7,10.2,9.6,10.3,9.5z M9.5,6.9c0.1-0.1,0.2-0.1,0.3-0.2C9.7,6.8,9.5,6.9,9.5,6.9C9.4,7,9.5,7,9.5,6.9z M9.2,20.4
			c0,0,0,0.1,0,0.1C9.2,20.5,9.1,20.5,9.2,20.4C9.2,20.5,9.2,20.5,9.2,20.4z M6.6,18.9C6.7,19,6.7,19,6.8,19.1
			c-0.3,0.3-0.7,0.7-1,1.1C6.1,19.7,6.3,19.3,6.6,18.9z M5.7,6c0,0-0.1,0.1-0.1,0.1c0,0,0,0,0,0C5.7,6,5.7,6,5.7,6z M4.3,8.7
			c0.1,0,0.1-0.1,0.2-0.1c0,0,0,0,0,0v0C4.4,8.8,4.3,9,4.2,9.2C4.2,9.1,4.3,8.9,4.3,8.7z M3.7,10.9c0.1,0.1,0.2,0.2,0.3,0.2
			c-0.2,0.3-0.4,0.5-0.5,0.8C3.6,11.6,3.7,11.2,3.7,10.9z M3.3,16.8C3.3,16.7,3.4,16.7,3.3,16.8c0,0.1,0,0.3,0,0.5c0,0-0.1,0-0.1,0
			C3.3,17.1,3.3,16.9,3.3,16.8z M2.9,20C2.9,20,2.9,20,2.9,20L2.9,20C2.9,20,2.9,20,2.9,20z M2.9,27.7c0.1-0.2,0.3-0.3,0.4-0.5
			c0.2-0.1,0.5-0.1,0.7-0.2c0,0,0.1,0,0.1,0.1c0,0-0.1,0.1-0.1,0.1c-0.3-0.1-0.8,0-0.9,0.3c-0.1,0.1-0.1,0.2-0.2,0.3
			C2.9,27.8,2.9,27.8,2.9,27.7z M3.2,41c0-0.1,0-0.2-0.1-0.3c0,0.1,0.1,0.1,0.1,0.2C3.3,40.9,3.2,41,3.2,41z M3.2,30.6
			c0-0.2,0-0.5-0.1-0.7c0.3,0,0.6-0.1,0.7-0.4c0.1-0.3,0.3-0.6,0.4-0.8c0.1,0,0.1,0,0.2,0C4,29.3,3.6,29.9,3.2,30.6z M4.5,34.3
			c0,0-0.1,0.1-0.1,0.1c0,0-0.1,0.1-0.1,0.1C4.3,34.5,4.4,34.3,4.5,34.3C4.4,34.3,4.4,34.3,4.5,34.3C4.4,34.3,4.4,34.3,4.5,34.3z
			 M3.4,32.7c0-0.2,0-0.4-0.1-0.7c0.2,0.1,0.5,0.1,0.7-0.1C4,32,3.9,32.1,3.8,32.2c0,0-0.1,0.1-0.1,0.1C3.6,32.4,3.5,32.5,3.4,32.7z
			 M3.7,35.3c0.3-0.1,0.5-0.3,0.5-0.7c0,0.1,0,0.1,0.1,0c-0.1,0.3,0,0.7,0.2,0.9c-0.2,0.6-0.4,1.2-0.6,1.8C3.8,36.6,3.7,36,3.7,35.3
			z M4.3,43.9c0,0,0.1,0,0.1-0.1c0.1-0.1,0.2-0.1,0.2-0.1c0,0.1,0,0.2,0,0.2C4.6,43.9,4.5,43.9,4.3,43.9z M3.9,18.8
			C3.9,18.8,3.9,18.8,3.9,18.8c0.1-0.2,0.1-0.3,0.2-0.4c0,0,0,0,0,0h0c0,0,0.1-0.1,0.1-0.2c0-0.1,0-0.1,0-0.2c0-0.1,0-0.1,0-0.2
			c0.1,0,0.2-0.1,0.3-0.2c0.2-0.2,0.5-0.5,0.7-0.7c0,0.2,0.1,0.4,0.2,0.5C4.9,17.8,4.4,18.3,3.9,18.8z M6.2,44.1
			C6.2,44.1,6.2,44.1,6.2,44.1c0.1,0,0.1,0,0.1,0C6.3,44.1,6.3,44.1,6.2,44.1z M6.6,32.2c-0.3-0.2-0.7-0.2-1,0.1
			c0.1-0.2,0.3-0.4,0.4-0.6c0,0,0.1,0,0.1,0c0.1,0.3,0.4,0.4,0.7,0.4C6.7,32.1,6.6,32.2,6.6,32.2z M7.2,44.3c-0.1,0-0.1,0-0.2,0
			C7,44.3,7.1,44.2,7.2,44.3C7.1,44.2,7.1,44.2,7.2,44.3C7.1,44.2,7.2,44.2,7.2,44.3C7.2,44.3,7.2,44.3,7.2,44.3z M7.1,29
			C7,29,6.9,28.9,6.8,28.9c0.1-0.1,0.1-0.2,0.2-0.2c0.2-0.2,0.4-0.5,0.7-0.7C7.5,28.3,7.3,28.7,7.1,29z M6,26.2
			c0-0.1-0.1-0.2-0.2-0.3c0.7-1.1,1.4-2.2,2.2-3.3C7.4,23.9,6.7,25.1,6,26.2z M8.8,33.7c0,0-0.1,0.1-0.1,0.2c0,0,0,0,0,0
			c0,0,0,0,0,0c-0.1,0.1-0.1,0.1-0.2,0.2c0-0.1,0-0.1,0-0.2C8.6,33.8,8.7,33.8,8.8,33.7C8.8,33.7,8.8,33.7,8.8,33.7z M9.7,22.7
			c0.2,0,0.3-0.1,0.4-0.2c0,0,0,0.1,0.1,0.1c-0.1,0.3-0.2,0.7-0.3,1c0,0-0.1,0-0.1,0c-0.3,0-0.5,0.2-0.8,0.4
			C9.2,23.6,9.5,23.2,9.7,22.7z M9.2,33.5c0,0-0.1,0-0.1,0C9.2,33.4,9.2,33.4,9.2,33.5C9.3,33.4,9.3,33.4,9.2,33.5z M9.7,31.2
			C9.7,31.2,9.7,31.2,9.7,31.2c0.1-0.3,0.3-0.5,0.4-0.8c0,0.2,0,0.3,0,0.5C10,31,9.9,31,9.9,31.1C9.8,31.1,9.7,31.2,9.7,31.2z
			 M10,37.1c0,0-0.1,0.1-0.1,0.1c0-0.1,0-0.3,0-0.4C10,36.9,10,37,10,37.1z M10.7,44.9C10.7,44.9,10.7,45,10.7,44.9
			c-0.2,0-0.3,0-0.4,0c0.2-0.1,0.3-0.1,0.5-0.2C10.7,44.8,10.7,44.9,10.7,44.9z M9.9,40c0.2-0.2,0.4-0.3,0.5-0.4c0.1,0,0.2,0,0.3,0
			c0,0,0,0,0,0C10.5,39.6,10.2,39.8,9.9,40z M10.9,5.7c0.1,0,0.3,0,0.4-0.1v0c-0.1,0.1-0.3,0.2-0.4,0.3C10.9,5.9,10.9,5.8,10.9,5.7z
			 M12.8,42.9C12.7,42.9,12.7,42.9,12.8,42.9c0-0.1,0.1-0.1,0.1-0.1C12.8,42.8,12.8,42.9,12.8,42.9z M13.7,45.6
			C13.7,45.6,13.7,45.6,13.7,45.6C13.8,45.6,13.8,45.6,13.7,45.6C13.8,45.6,13.7,45.6,13.7,45.6z M16.1,45.9c0,0.1,0,0.1,0,0.2
			c-0.3,0-0.5-0.1-0.8-0.1c0.3-0.1,0.6-0.2,0.9-0.3C16.2,45.7,16.1,45.8,16.1,45.9z M14.4,40.6c0.3-0.2,0.5-0.3,0.8-0.5
			c0.1,0.1,0.1,0.1,0.2,0.1C15.1,40.4,14.8,40.5,14.4,40.6z M16.4,44c0,0-0.1,0-0.1,0c0-0.3-0.1-0.5-0.4-0.7
			c0.3-0.1,0.5-0.2,0.8-0.3c-0.2,0.1-0.3,0.4-0.3,0.6C16.3,43.8,16.4,43.9,16.4,44z M16.9,43C17,43,17,42.9,16.9,43
			C17,42.9,17,43,16.9,43C17,43,17,43,16.9,43z M17.4,33.3c0-0.1,0-0.1,0-0.2C17.4,33.2,17.5,33.3,17.4,33.3
			C17.5,33.4,17.5,33.4,17.4,33.3z M18.3,46.4c-0.2,0-0.5-0.1-0.7-0.1c0,0,0,0,0,0c0.2-0.5,0.3-1,0.6-1.4c0.3-0.3,0.7-0.6,1.1-0.8
			c-0.4,0.4-0.7,0.8-1.1,1.2C17.7,45.6,17.9,46.2,18.3,46.4z M17.6,34.5c0-0.1,0-0.1,0-0.2c0-0.1,0-0.2,0-0.3c0,0.2,0.1,0.4,0.1,0.6
			C17.7,34.6,17.6,34.5,17.6,34.5z M17.7,34.9c0,0,0,0.1,0,0.1c0,0,0,0-0.1,0C17.7,35,17.7,34.9,17.7,34.9z M22.1,45.5
			c-0.9,0.2-1.7,0.4-2.6,0.6c0.3-0.2,0.6-0.3,1-0.5c0,0,0,0,0,0c0,0,0.1,0,0.1,0c0.2,0,0.4-0.1,0.6-0.2c0.1-0.1,0.1-0.1,0.1-0.2
			c0.5-0.2,1-0.5,1.4-0.7C22.4,44.9,22.2,45.2,22.1,45.5z M20.8,40.4c0.3-0.1,0.6-0.2,0.9-0.2c-0.1,0.2-0.3,0.4-0.4,0.5
			c-0.1,0.1-0.2,0.2-0.4,0.2C20.9,40.8,20.9,40.6,20.8,40.4z M21.7,43.3c0.1-0.1,0.2-0.2,0.2-0.3c0.1,0,0.1,0.1,0.2,0.1
			C22,43.2,21.9,43.3,21.7,43.3z M23.7,42.3c0,0-0.1,0-0.1,0.1c0,0,0,0,0-0.1C23.6,42.3,23.6,42.3,23.7,42.3
			C23.7,42.3,23.7,42.3,23.7,42.3z M25.7,47.2c-0.6-0.1-1.3-0.1-1.9-0.2c0.5-0.3,1-0.6,1.4-0.9c0.3-0.1,0.7-0.2,1-0.4
			c-0.2,0.2-0.3,0.3-0.5,0.5C25.3,46.5,25.4,46.9,25.7,47.2z M24.8,43.9c0,0.2,0.1,0.4,0.2,0.5c-0.2,0.1-0.5,0.3-0.7,0.4
			C24.4,44.4,24.6,44.2,24.8,43.9z M24.6,35.6c0-0.1,0-0.1,0-0.2c0,0,0.1,0,0.1,0C24.7,35.4,24.7,35.5,24.6,35.6
			C24.6,35.6,24.6,35.6,24.6,35.6z M24,39.8C24,39.8,24,39.8,24,39.8c0.1-0.1,0.1-0.2,0.2-0.3c0.1,0,0.1,0,0.2,0.1
			C24.3,39.6,24.1,39.7,24,39.8z M26.9,47.3C26.9,47.2,26.9,47.2,26.9,47.3C27,47.2,27,47.2,26.9,47.3
			C26.9,47.3,26.9,47.3,26.9,47.3z M29.6,47.3c0,0.1,0,0.1,0,0.2c-0.1,0-0.3,0-0.4,0c-0.2,0-0.4,0-0.5,0c0.4-0.2,0.7-0.3,1.1-0.5
			C29.7,47,29.6,47.1,29.6,47.3z M31.1,47.5c0.1-0.2,0.2-0.4,0.4-0.6c0.2,0.2,0.5,0.4,0.8,0.3c0.1,0,0.1,0,0.2-0.1
			c0,0.2,0,0.3,0,0.5C32,47.6,31.6,47.6,31.1,47.5z M31.5,43.1c0,0,0.1,0,0.1,0C31.6,43.1,31.6,43.1,31.5,43.1
			C31.6,43.1,31.5,43.1,31.5,43.1z M32.5,39.8c0.1-0.2,0-0.3,0-0.5c0.1,0,0.2,0,0.3,0c0,0.1,0,0.2,0.1,0.3
			C32.8,39.7,32.7,39.8,32.5,39.8z M33,37.2c-2.4-0.1-4.8-0.1-7.3,0.1c0-0.4,0-0.8,0-1.2c0.4-0.3,0.8-0.5,1.3-0.6
			c0.1-0.1,0.2-0.1,0.3-0.3c0.2,0,0.4-0.2,0.4-0.5c-0.1-5.2,0-10.3,0-15.5c0-0.1,0-0.2-0.1-0.3c0.1-0.7,0.1-1.4,0.1-2
			c0.1-1,0.2-1.9,0.2-2.9c0-0.3-0.5-0.3-0.5,0c0,0.7,0,1.3-0.1,2c-0.1,0-0.1,0.1-0.1,0.2c0,0.2,0,0.4,0,0.6c-0.1,0-0.1,0.1-0.1,0.2
			c-0.2,1.6-0.6,3.1-0.9,4.7c0,0,0,0.1,0,0.1c0,0.1-0.1,0.1-0.1,0.2c-0.6,5-1.6,10-2.7,14.9c-0.7-0.1-1.4-0.1-2.1-0.1
			c-0.1,0-0.2,0-0.3,0.1c0,0-0.1,0-0.1,0c-0.4,0-1,0-1.3-0.2c0,0,0,0,0,0c-1.6-6.4-2.9-13.2-3.6-19.8c0-0.1-0.1-0.2-0.2-0.2
			c0-0.7-0.1-1.3-0.2-1.9c0-0.3-0.5-0.3-0.5,0c0.2,1.8,0.2,3.6,0.3,5.5c0,0,0,0,0,0c-0.1,0.1-0.2,0.3-0.2,0.4c0,0.2,0.1,0.5,0.1,0.7
			c0,0,0,0.1,0,0.1c0,0.4,0,0.7,0,1.1c0,0.1-0.1,0.1-0.1,0.2c0,3.8,0,7.5,0.1,11.2c0,0.2,0.1,0.3,0.2,0.4c-0.3,0.1-0.4,0.5-0.2,0.8
			c0,0.1,0,0.2,0.2,0.2c0.5,0.1,0.9,0.4,1.2,0.8c0,0,0,0.1,0,0.1c0,0.4,0,0.8,0,1.2c-1.9,0-3.7-0.1-5.6-0.2c0-0.2-0.1-0.4-0.1-0.5
			c0-0.1,0.1-0.3,0.1-0.4c0.4-0.2,0.7-0.5,1.1-0.7c0.3-0.2,0.3-0.5,0.1-0.7c0.1-0.1,0.1-0.2,0.1-0.3c-0.2-6.3,0.1-12.7,0.1-19
			c0,0,0-0.1,0-0.1c0-0.1,0-0.1,0-0.2c0,0,0-0.1,0-0.1c0.1-0.2,0-0.3,0-0.4c0-0.4,0-0.8,0.1-1.2c0.1-0.2,0-0.4-0.2-0.6
			c-0.3-0.2-0.7-0.4-1.1-0.5c0-0.4-0.1-0.8-0.1-1.2c1.4-0.1,2.8-0.1,4.1,0c0.1,0,0.2,0,0.3-0.1c0.1,0,0.2,0.1,0.3,0
			c0.5-0.1,1.5-0.1,2.1,0.3c0.7,0.4,0.7,1.8,0.9,2.5c0,0.1,0.1,0.2,0.2,0.3c1,5.1,1.5,10.2,2.1,15.3c0,0,0,0.1,0,0.1
			c0.1,0.5,0.1,1.1,0.2,1.6c0,0,0,0.1,0,0.1c0,0.1,0,0.2,0,0.3c0,0,0,0,0,0c0,0,0,0,0,0v0.2c0,0.3,0.5,0.3,0.5,0v-0.2
			c0.1-0.4,0.1-0.8,0.2-1.2c0.1-0.1,0.2-0.2,0.2-0.4c0-0.1,0-0.2,0-0.3c0.1-0.4,0.2-0.8,0.3-1.2c0-0.1,0.1-0.1,0.1-0.2
			c0.5-4.4,1.4-8.7,2-13c0-0.1,0-0.3-0.1-0.4c0.1-0.1,0.1-0.2,0.1-0.4c0-0.1,0-0.2,0-0.3c0-0.1,0.1-0.1,0.1-0.2
			c0.2-2,1.5-3.2,3.5-2.9c0.1,0,0.2,0,0.3-0.1c0.1,0,0.1,0.1,0.2,0.1c1.3,0,2.6,0,3.9-0.1c0,0.4,0,0.8-0.1,1.2
			c-0.3,0.1-0.6,0.3-0.9,0.4c-0.1,0-0.2,0.1-0.2,0.2c-0.2,0-0.4,0.2-0.3,0.5c0.8,6.6,0.6,13.3,0.5,19.9c-0.1,0.1-0.2,0.2-0.2,0.4
			v0.7c0,0.1,0,0.1,0,0.1c-0.2,0.3-0.1,0.6,0.3,0.7c0.1,0,0.2,0.1,0.3,0.1c0,0,0,0.1,0.1,0.1c0.3,0.2,0.6,0.4,0.9,0.6
			c0,0,0,0.1,0,0.1C32.9,36.5,32.9,36.9,33,37.2z M26.6,34.3c0,0.1,0,0.2,0,0.2c-0.1,0-0.2,0.1-0.2,0.1c0,0,0-0.1,0-0.1
			C26.5,34.5,26.6,34.4,26.6,34.3z M26.5,28.7c0-0.3,0.1-0.5,0.1-0.8C26.6,28.2,26.6,28.4,26.5,28.7C26.5,28.7,26.5,28.7,26.5,28.7z
			 M26.6,21.5C26.6,21.5,26.6,21.5,26.6,21.5L26.6,21.5C26.6,21.5,26.6,21.5,26.6,21.5z M16.3,31.8c0,0-0.1,0-0.1,0c0-0.7,0-1.3,0-2
			C16.2,30.5,16.3,31.1,16.3,31.8z M11.3,32.2C11.4,32.2,11.4,32.2,11.3,32.2C11.4,32.2,11.4,32.2,11.3,32.2
			C11.4,32.2,11.4,32.2,11.3,32.2z M11.5,34.7C11.5,34.7,11.5,34.7,11.5,34.7C11.5,34.7,11.5,34.7,11.5,34.7
			C11.5,34.7,11.5,34.7,11.5,34.7z M32.7,30.4c0-1,0-2,0-3c0,0.4,0,0.8,0,1.1c0,0.3,0.2,0.4,0.4,0.5C33,29.5,32.8,29.9,32.7,30.4z
			 M33.5,24.2c0.1,0.1,0.2,0.2,0.3,0.2c-0.1,0-0.2,0-0.2,0C33.5,24.4,33.5,24.3,33.5,24.2z M33.7,26c0,0,0.1,0,0.1,0.1
			c0,0.1-0.1,0.2-0.1,0.3C33.7,26.2,33.7,26.1,33.7,26z M34.1,30.7c0.1,1,0.1,2,0.1,3.1c0,0-0.1,0-0.1,0c-0.1,0-0.1-0.1-0.1-0.3
			c0-0.3,0-0.5,0.1-0.8c0.1-0.3-0.1-0.6-0.3-0.8C33.9,31.5,34,31.1,34.1,30.7z M35.6,47c-0.3,0.2-0.4,0.5-0.4,0.7
			c-0.5,0-0.9,0-1.4-0.1c0-0.1,0.1-0.1,0.1-0.2C34.5,47.3,35.1,47.1,35.6,47C35.6,47,35.6,47,35.6,47z M35.5,42.1
			c0.2-0.1,0.4-0.2,0.7-0.4c0,0,0,0.1,0,0.1C35.9,41.9,35.7,42,35.5,42.1z M35.5,28.5c0-0.1,0.1-0.1,0.1-0.2
			C35.6,28.4,35.5,28.5,35.5,28.5C35.5,28.5,35.5,28.5,35.5,28.5z M35.6,30.6c0-0.4,0-0.7-0.1-1.1c0.2,0.1,0.5,0.1,0.6-0.2
			c0.1-0.1,0.1-0.2,0.2-0.2C36.1,29.6,35.8,30.1,35.6,30.6z M36.7,36.2c-0.1,0-0.1,0-0.2,0c0.1-0.1,0.1-0.1,0.2-0.2
			C36.7,36,36.7,36.1,36.7,36.2z M36.7,31.8c0-0.1,0.1-0.1,0.1-0.2c0,0.1,0.1,0.2,0.1,0.3C36.8,31.8,36.8,31.8,36.7,31.8z M37,28.5
			c0,0,0,0.1,0,0.1c-0.1,0-0.2,0-0.2,0.1c0.1-0.2,0.3-0.4,0.4-0.6C37.1,28.2,37,28.3,37,28.5z M33.9,23.2C33.7,23,33.6,23,33.5,23
			c0,0,0,0,0,0c-2.4-5.4,7.8-6.4,11.2-7c0.1,0,0.2-0.1,0.3-0.2c2.9-0.2,10.8-1.5,7.7-5.2c-0.1-0.2-0.3-0.2-0.5-0.1
			c-0.6-0.4-1.3-0.6-2.1-0.4c-0.4,0.1-0.6,0.3-0.9,0.6c-0.2,0-0.4,0-0.5,0.2c-0.3,0.7-0.5,1.4-0.6,2.1c-0.2,0.1-0.5,0.1-0.7,0.1
			c0.1-0.8,0.1-1.5,0.5-2.3c0,0,0-0.1,0.1-0.1c0.5-0.5,1.1-0.9,1.6-1.3c0,0,0.1-0.1,0.1-0.1c2.1-0.8,4.5,0.5,4.8,2.8
			c-0.2,0.6-0.4,1.2-0.7,1.8c-0.1,0.1-0.1,0.2-0.1,0.3c-1.2,1.1-2.6,2-4.1,2.6c-0.1-0.1-0.2-0.1-0.4-0.1c-2.2,0.7-4.4,1-6.6,0.8
			c-0.3,0-0.4,0.1-0.5,0.3c-2.5,0.2-4.8,0.9-7,2.2c-0.1,0.1-0.2,0.2-0.2,0.3c0,0-0.1,0-0.1,0.1c-0.4,0.4-0.5,1-0.4,1.5
			c0,0.1,0,0.3,0.1,0.4c0.8,1.1,2.3,1.6,3.6,1.1c1.2-0.4,1.7-1.6,1.6-2.7c0.3,0,0.7,0,1,0c-0.2,0.6-0.4,1.1-0.5,1.7
			c0,0-0.1,0.1-0.1,0.1C38.8,25,35.6,25.2,33.9,23.2z M50.3,29.4C50.3,29.4,50.3,29.4,50.3,29.4C50.3,29.4,50.3,29.4,50.3,29.4
			C50.3,29.4,50.3,29.4,50.3,29.4z M50.3,29.5C50.3,29.5,50.3,29.5,50.3,29.5C50.3,29.5,50.3,29.5,50.3,29.5
			C50.3,29.5,50.3,29.5,50.3,29.5z M49.2,22.6c-0.1-0.3-0.6-0.2-0.5,0.1c0,0.1,0.1,0.2,0.1,0.3c0,0,0,0,0,0c0,0.2,0,0.4,0,0.6
			c0,0,0,0,0,0.1c0,0,0,0.1,0,0.1c0.1,0.5,0.1,1,0,1.6c0,0.1-0.1,0.1,0,0.2c0.2,1.5,0.1,3.1,0.1,4.6c-0.3,0.2-0.7,0.2-1.1,0.2
			c-0.1-3.3-0.1-6.7-0.2-10c0,0,0,0,0,0c0.1-0.1,0.1-0.2,0.1-0.3c-0.1-0.5,0-1,0.2-1.3c0.3,0,0.6,0,0.9,0c0,0,0,0,0.1,0
			c0.8,1.1,1.3,2.4,1.6,3.7c0,0,0,0.1,0,0.1c0,0,0,0.1,0,0.1c0.2,0.5,0.3,0.9,0.4,1.4c0,0.1,0.1,0.2,0.2,0.2c0,0.1,0,0.1,0,0.2
			c0,0.1,0,0.3,0.1,0.4c0,0.1,0.1,0.2,0.2,0.3c0,0.3,0.1,0.6,0.2,0.9c0.1,0.3,0.5,0.2,0.5-0.1c0,0,0.1-0.1,0.1-0.1v-0.9
			c0.1-0.1,0.1-0.2,0-0.3c0-0.1,0-0.1,0-0.2c0-0.1,0-0.1,0-0.1c0-0.5,0-1,0-1.5c0,0,0,0,0-0.1c0-0.1,0-0.1,0-0.2
			c-0.2-1.4-0.2-2.7-0.3-4.1c0,0,0.1,0,0.1-0.1c0.4-0.5,1-0.7,1.6-0.6v0.3c0,0.2,0.1,0.3,0.2,0.4c-0.1,2.3-0.1,4.7-0.1,7
			c0,0-0.1,0.1-0.1,0.1c-0.1,1.3-0.2,2.7-0.3,4C52.9,29.8,52.4,30,52,30c-0.5-1.1-0.9-2.2-1.4-3.2c0,0,0,0,0,0
			C50.1,25.4,49.6,24,49.2,22.6z M49.7,18C49.7,18,49.7,18,49.7,18C49.8,18,49.8,18,49.7,18C49.7,18,49.7,18,49.7,18
			C49.7,18,49.7,18,49.7,18z M50.9,19.7c0,0.1,0,0.3,0,0.4c0-0.1-0.1-0.2-0.2-0.4C50.8,19.8,50.8,19.8,50.9,19.7z M50.8,17.5
			C50.8,17.5,50.8,17.4,50.8,17.5c0,0,0,0.1,0,0.1C50.8,17.6,50.8,17.5,50.8,17.5z M53.5,16.8c-0.2,0-0.4,0-0.6,0
			c0.3-0.2,0.6-0.4,0.9-0.6c0,0.1,0.1,0.1,0.1,0.2c-0.1,0.1-0.1,0.1-0.1,0.2c0,0,0,0-0.1,0C53.7,16.7,53.6,16.7,53.5,16.8z
			 M46.9,18.4c0,0,0.1,0,0.1,0c0,0,0,0,0,0c-0.1,0.1-0.1,0.3-0.2,0.5c0,0,0,0,0,0s0,0,0,0c0,0,0,0,0-0.1C47,18.7,47,18.5,46.9,18.4z
			 M41,19.7C41,19.7,41,19.7,41,19.7c-0.1,0.1-0.2,0.1-0.3,0.1C40.8,19.8,40.9,19.7,41,19.7z M36.9,22.2
			C36.8,22.1,36.8,22.1,36.9,22.2c0.1-0.1,0.2-0.2,0.3-0.3c0,0-0.1,0.1-0.1,0.1C37,22.1,37,22.2,37,22.2
			C36.9,22.2,36.9,22.2,36.9,22.2z M36.9,22.3C36.9,22.3,36.9,22.3,36.9,22.3C36.9,22.3,36.9,22.3,36.9,22.3
			C36.9,22.3,36.9,22.3,36.9,22.3z M37.1,22.6c0,0,0.1,0.1,0.2,0.1c-0.1,0-0.1,0-0.2,0C37.1,22.7,37.1,22.6,37.1,22.6
			C37.1,22.6,37.1,22.6,37.1,22.6z M36,22.2C36,22.2,36,22.2,36,22.2c-0.1,0-0.2-0.1-0.3-0.1c0,0,0,0,0.1,0c0,0,0,0,0.1-0.1
			c0,0,0,0,0,0C35.9,22,36,22.1,36,22.2z M39.9,34c0-0.1,0-0.2-0.1-0.4c0.2,0,0.4-0.1,0.5-0.3c0-0.1,0-0.2,0.1-0.3
			c0.1,0.1,0.2,0.1,0.4,0.1C40.5,33.4,40.2,33.7,39.9,34z M40.8,38.1c-0.1,0.3-0.3,0.7-0.4,1c-0.1-0.1-0.2-0.1-0.3-0.1
			C40.3,38.7,40.6,38.4,40.8,38.1z M39.4,40.9c0.1-0.1,0.2-0.2,0.4-0.3c0,0,0,0,0,0c0,0,0,0,0.1,0c0,0,0,0,0,0
			c0,0.1-0.1,0.3-0.1,0.4c-0.2,0-0.4,0-0.6,0.1C39.3,41,39.3,40.9,39.4,40.9z M39.2,37.7c0.2-0.2,0.3-0.3,0.5-0.5
			C39.6,37.4,39.4,37.5,39.2,37.7C39.3,37.7,39.2,37.7,39.2,37.7z M38.7,31c0,0.3,0,0.5,0,0.8c-0.1-0.2-0.2-0.3-0.3-0.5
			c0,0,0-0.1,0.1-0.1C38.5,31.2,38.6,31.1,38.7,31z M37.2,32.9c0-0.1,0-0.3,0-0.4c0,0,0,0,0-0.1c0,0.1,0.1,0.1,0.1,0.2
			C37.3,32.7,37.3,32.8,37.2,32.9z M38.2,28.9c-0.1,0-0.2,0-0.3,0.1c0.1-0.2,0.2-0.3,0.4-0.5C38.2,28.6,38.2,28.7,38.2,28.9z
			 M38.4,35.2c-0.1,0.1-0.1,0.2-0.2,0.3c0-0.4,0.1-0.9,0.2-1.3C38.5,34.5,38.5,34.8,38.4,35.2z M38.5,41.1
			C38.5,41.1,38.5,41.1,38.5,41.1C38.5,41.1,38.5,41.1,38.5,41.1C38.6,41.1,38.6,41.1,38.5,41.1c0.1-0.1,0.2-0.1,0.3-0.1
			C38.7,41.1,38.6,41.1,38.5,41.1z M40.8,44.2c0,0-0.1,0-0.1-0.1C40.8,44.1,40.8,44.1,40.8,44.2L40.8,44.2z M42.5,41.4
			c-0.2,0.6-0.4,1.2-0.6,1.8c0,0-0.1-0.1-0.1-0.1c-0.4-0.3-0.9-0.3-1.4-0.2c-0.2-0.1-0.4-0.2-0.6-0.1c-0.2,0.1-0.4,0.1-0.6,0.2
			c0.4-0.2,0.7-0.4,1.1-0.7c0.2,0.2,0.6,0.2,0.9,0.2c0.2,0,0.3-0.1,0.5-0.2c0,0,0.1,0,0.1,0c0.6,0,1-0.9,0.5-1.3
			c0.1-0.1,0.3-0.2,0.4-0.3C42.5,40.9,42.5,41.1,42.5,41.4z M41.3,34.8c0.1-0.1,0.1-0.1,0.2-0.2c0,0.1,0,0.2,0.1,0.2
			C41.4,34.8,41.4,34.8,41.3,34.8z M42.6,37.8c0.2-0.3,0.3-0.7,0.5-1c0,0,0,0,0,0C43,37,43,37.1,42.9,37.2c-0.1,0.2-0.1,0.5-0.1,0.7
			C42.7,37.9,42.7,37.9,42.6,37.8z M43.7,46.1c-0.1-0.1-0.2-0.1-0.4-0.1c-0.1,0-0.3,0-0.4,0c0.5-0.7,1-1.3,1.5-1.9
			C44.2,44.8,44,45.5,43.7,46.1z M43.9,26.5C43.9,26.5,43.9,26.5,43.9,26.5c0,0.1,0,0.2,0,0.3c-0.1,0-0.1,0-0.2,0
			C43.8,26.8,43.9,26.6,43.9,26.5z M43.9,26.2L43.9,26.2C43.9,26.2,43.9,26.2,43.9,26.2C43.9,26.2,43.9,26.2,43.9,26.2z M44,42.3
			L44,42.3c0.2-0.5,0.4-1,0.6-1.5c0,0.2,0.1,0.4,0.1,0.6C44.5,41.7,44.2,42,44,42.3z M44.1,29.7C44.1,29.6,44.1,29.6,44.1,29.7
			C44.1,29.6,44.1,29.6,44.1,29.7C44.1,29.7,44.1,29.7,44.1,29.7z M44.2,30.8c0,0.1,0,0.2,0,0.2c0,0-0.1,0-0.1,0
			C44.1,30.9,44.1,30.9,44.2,30.8z M44.3,37.1c0.1,0,0.2-0.1,0.3-0.2c-0.1,0.2-0.1,0.3-0.2,0.5C44.4,37.3,44.4,37.2,44.3,37.1z
			 M44.9,25.8c0-0.1,0.1-0.2,0-0.3c-0.1-0.3-0.3-0.4-0.6-0.3c-0.4,0.1-0.9,0-1.3-0.1c-0.2,0-0.3,0-0.4,0.1c-0.3,0-0.6,0.1-0.5,0.5
			c0.1,2.2-0.2,4.4-0.2,6.5c-0.5,0.1-0.9,0.1-1.3-0.2c0.6-4.2-0.4-8.4,1.8-12.4c0,0,0-0.1,0-0.1c0.1,0,0.2,0,0.3,0
			c2-0.8,3.1,1.2,3.4,2.9c0,0.7,0,1.5,0.1,2.2c0,0,0,0,0,0c-0.1,0.1-0.2,0.2-0.1,0.4c0.3,2,0.5,4,0.4,6.1c-0.4,0.1-0.9,0.2-1.3-0.1
			C45.1,29.3,45,27.5,44.9,25.8z M45.3,32.2c0,0,0-0.1,0-0.1c0,0,0.1,0,0.1,0C45.3,32.1,45.3,32.2,45.3,32.2
			C45.3,32.2,45.3,32.2,45.3,32.2z M45.9,47.3c-0.1,0-0.2,0-0.3,0c0-0.2,0-0.5-0.2-0.6c0.2-0.3,0.4-0.5,0.6-0.8
			c-0.1,0.3-0.1,0.5-0.2,0.8C45.7,46.9,45.7,47.1,45.9,47.3z M46.3,39.7C46.3,39.7,46.3,39.7,46.3,39.7c-0.2-0.1-0.3-0.2-0.5-0.2
			c-0.1-0.4-0.2-0.7-0.2-1.1c0,0,0,0,0,0c0.1-0.2,0.2-0.4,0.2-0.6c0.1,0.2,0.1,0.5,0.3,0.7c0.1,0.3,0.4,0.3,0.6,0.2
			c0.1,0.1,0.2,0.1,0.3,0.2C46.6,38.9,46.3,39.3,46.3,39.7z M47.4,41.4c-0.3,0.4-0.6,0.8-0.9,1.2c0.2-0.7,0.4-1.3,0.6-2
			c0.2,0.2,0.5,0.3,0.7,0.4C47.7,41.1,47.5,41.2,47.4,41.4z M49.1,47.8C49,47.8,49,47.8,49.1,47.8c-0.2,0.1-0.3,0-0.4,0.1
			c-0.1-0.2-0.3-0.3-0.6-0.3c0.1-0.1,0.2-0.1,0.3-0.2c0.6,0,1.1,0,1.7-0.2C49.7,47.4,49.4,47.6,49.1,47.8z M50,44.4
			c-0.1,0.1-0.2,0.3-0.3,0.4c0,0.1-0.1,0.1-0.1,0.2c-0.3,0.1-0.6,0.3-0.8,0.4c0,0,0,0,0,0C49.2,45.1,49.6,44.7,50,44.4z M49,41.7
			c0.3,0,0.6-0.2,0.7-0.5c0,0,0,0,0.1,0.1c0,0,0.1,0.1,0.1,0.1c-0.1,0.1-0.2,0.1-0.3,0.2c-0.2,0.1-0.3,0.2-0.5,0.3
			C49.1,41.8,49,41.7,49,41.7z M50.7,40.1c-0.1-0.1-0.2-0.2-0.4-0.3c0.2,0,0.5,0,0.7-0.1C50.9,39.8,50.8,40,50.7,40.1z M52.6,38.2
			c-1.7,0.9-4,0.9-5.5-0.4c-0.1-0.1-0.2-0.1-0.3-0.1c-0.8-2.3,0.8-4.5,3.1-5.3c0.1,0,0.1-0.1,0.1-0.1c0,0,0.1,0,0.1,0
			c2.5-0.8,5.1-1.4,7.7-1.8c0,0,0,0,0,0c0.3,0,0.6-0.1,0.9-0.1c0.1,0,0.1,0,0.2,0c2.3-0.3,5.9-0.6,7.4-2.7c0.7-1,0.1-2.2-0.8-2.7
			c-1-0.6-2.6-0.3-3.6,0.3c-0.4,0.3-0.4,0.7-0.2,1c-0.2,0.2-0.3,0.5-0.4,0.7c-0.3,0-0.5,0-0.8,0c0.3-0.7,0.5-1.4,0.6-2.1
			c0,0,0.1,0,0.1-0.1c0.5-0.3,1-0.6,1.6-0.7c0.1,0,0.2,0,0.4,0c1.4-0.4,2.8,0.1,3.9,1.1c0,0,0.1,0.1,0.1,0.1c0,0,0,0.1,0,0.1
			c0.4,0.7,0.4,1.6,0.2,2.4c-0.1,0.1-0.3,0.2-0.4,0.3c-1.1,2.2-3.7,2.8-5.9,3.4c-0.2,0.1-0.4,0.2-0.5,0.4c-3.7,0.6-7.4,1-11,1.8
			c-0.2,0-0.3,0.1-0.4,0.3c0,0-0.1,0-0.2,0c-0.1,0.1-0.2,0.2-0.4,0.3c-0.1,0-0.3,0-0.4,0.1c0,0,0,0,0.1,0c-0.2,0.1-0.3,0.3-0.3,0.5
			c-0.4,0.5-0.6,1.1-0.6,1.8c0,0.1,0,0.1,0.1,0.2c0.1,0.3,0.2,0.5,0.5,0.6c0,0,0.1,0,0.1,0c0.1,0,0.1,0.1,0.2,0.1
			c0.8,0.8,1.9,0.8,2.9,0.3c0.2-0.1,0.5-0.2,0.7-0.3c0.7-0.5,1-1.3,1.1-2.1c0,0,0,0,0.1,0c0.1,0,0.2-0.1,0.3-0.1
			c0.2,0.6,0.1,1.2-0.1,1.9c0,0.1,0,0.3,0,0.4c-0.1,0.1-0.3,0.3-0.4,0.4C52.7,38.2,52.6,38.2,52.6,38.2z M64.3,26.9c0,0,0-0.1,0-0.1
			C64.3,26.8,64.3,26.8,64.3,26.9C64.3,26.8,64.3,26.8,64.3,26.9C64.3,26.9,64.3,26.9,64.3,26.9z M66.7,37.9c0,0,0.1-0.1,0.1-0.1
			c0,0.1,0,0.1,0,0.2c0,0.1,0.1,0.3,0.1,0.4c-0.1,0.1-0.1,0.1-0.2,0.2c0,0,0,0,0,0c-0.1-0.2-0.2-0.2-0.3-0.3
			C66.5,38.1,66.6,38,66.7,37.9z M66.4,36.7c0.1-0.1,0.1-0.3,0.2-0.4c0,0.2,0,0.4,0.1,0.6C66.6,36.8,66.5,36.8,66.4,36.7z
			 M63.7,37.4c-0.1,0.1-0.3,0.2-0.4,0.3c-0.2,0.1-0.3,0.2-0.5,0.3c0.2-0.3,0.5-0.6,0.7-1C63.5,37.2,63.6,37.3,63.7,37.4z M61.8,34.1
			c-0.3,0.2-0.6,0.3-0.9,0.5c0.1-0.2,0.2-0.3,0.3-0.5C61.4,34.2,61.6,34.2,61.8,34.1z M58.8,35.4c-0.1,0-0.1-0.1-0.2-0.1
			c0.1-0.1,0.2-0.2,0.4-0.3C58.9,35.1,58.9,35.2,58.8,35.4z M59,37.2c0,0-0.1,0.1-0.1,0.1c0,0-0.1,0-0.1,0
			C58.8,37.3,58.9,37.3,59,37.2z M56.3,34.2c-0.1,0-0.2-0.1-0.3-0.1c0,0,0,0,0,0c0,0,0,0,0,0c0.1,0,0.2,0,0.3,0
			C56.3,34.1,56.3,34.1,56.3,34.2z M53.8,42.7c0,0.1-0.1,0.1-0.1,0.2c-0.1,0-0.1,0-0.2,0C53.6,42.8,53.7,42.7,53.8,42.7z M53.2,45.5
			c0-0.1,0-0.2,0-0.2c0.1,0,0.3,0,0.5-0.1c0.3-0.2,0.6-0.4,0.9-0.5c0,0.1,0,0.2,0,0.2C54.1,45,53.6,45.3,53.2,45.5z M54.8,36.3
			C54.8,36.3,54.8,36.3,54.8,36.3c0-0.1,0-0.2,0-0.2c0,0,0,0,0,0C54.8,36.1,54.8,36.2,54.8,36.3z M56.5,38.9
			c0.1,0.1,0.2,0.1,0.3,0.2c-0.3,0.3-0.7,0.5-1.1,0.8C56,39.5,56.3,39.2,56.5,38.9z M56.8,45.2c-0.1,0.1-0.1,0.1-0.2,0.2
			c-0.1-0.1-0.2-0.2-0.4-0.2c0.2,0,0.3-0.1,0.5-0.2C56.7,45.1,56.7,45.2,56.8,45.2z M57.3,47.6c-0.4,0-0.7,0-1.1,0.1
			c0.4-0.1,0.8-0.2,1.2-0.4C57.3,47.4,57.3,47.5,57.3,47.6z M58.3,43.6c0-0.1,0-0.3-0.1-0.4c0.8-0.5,1.6-1.1,2.2-1.7
			c0.1-0.1,0.2-0.2,0.2-0.4c0.3-0.1,0.6-0.3,0.8-0.4c-1,1-2,2-3,2.9C58.5,43.6,58.4,43.6,58.3,43.6z M62.4,46.2
			c0.3-0.2,0.6-0.4,0.9-0.6c0,0.1,0.1,0.1,0.1,0.2c0.1,0.1,0.2,0.1,0.3,0.2C63.3,46.1,62.8,46.1,62.4,46.2z M64,41.7
			c-0.9,0.5-1.9,1-2.9,1.5c0.3-0.3,0.6-0.6,0.8-0.8c0.1,0,0.3,0,0.5-0.1C62.8,42.1,63.4,41.9,64,41.7C64,41.6,64,41.6,64,41.7z
			 M64.6,32.8c-0.2,0.1-0.4,0.2-0.5,0.3c0,0,0-0.1,0-0.1c0-0.3-0.1-0.5-0.3-0.7c0.2-0.1,0.3-0.1,0.5-0.2c0,0.2,0.1,0.4,0.2,0.5
			C64.6,32.7,64.6,32.7,64.6,32.8C64.6,32.8,64.6,32.8,64.6,32.8z M65.1,35.5c-0.1-0.1-0.2-0.2-0.4-0.3c0,0,0,0,0,0
			c0.2,0,0.4,0,0.6-0.2C65.2,35.1,65.1,35.3,65.1,35.5z M66.2,45.7c-0.3,0-0.5,0.1-0.8,0.1c0.1-0.1,0.1-0.2,0.1-0.3c0,0,0.1,0,0.1,0
			c0,0,0,0,0,0c0.3,0.1,0.6,0,0.8-0.2C66.4,45.4,66.3,45.5,66.2,45.7z M67.3,43.5c-0.1,0.1-0.2,0.2-0.3,0.4
			c-0.2,0.2-0.3,0.5-0.2,0.7c-0.1,0.1-0.1,0.3-0.2,0.4c0.1-0.3,0-0.7-0.3-0.9c0.4-0.4,0.9-0.8,0.9-1.3c0.2-0.2,0.5-0.4,0.7-0.6
			C67.6,42.6,67.5,43.1,67.3,43.5z M67.6,31.2c0.1,0,0.2,0,0.3-0.1c0,0.1,0,0.2,0,0.3C67.8,31.3,67.7,31.2,67.6,31.2z M67.6,22.9
			c0.1,0,0.1,0,0.2,0c0,0.1,0,0.1,0,0.2c0,0,0,0,0,0C67.7,23,67.7,22.9,67.6,22.9z M67.8,6.7c0.1-0.2,0.2-0.3,0.3-0.5
			c0.1,0,0.1-0.1,0.2-0.1c0.1,0.3,0.3,0.5,0.6,0.5c0,0.1-0.1,0.2-0.1,0.3c0,0-0.1,0.1-0.1,0.1C68.4,6.7,68.1,6.6,67.8,6.7z
			 M69.7,46.2c-0.3,0.1-0.7,0.1-1,0.2c0-0.2,0-0.5-0.2-0.7c0.6-0.5,1.2-1,1.7-1.6c-0.2,0.4-0.5,0.8-0.7,1.2
			C69.3,45.6,69.4,46,69.7,46.2z M70,40.8c0.1-0.1,0.1-0.2,0.2-0.4c0,0.1,0.1,0.2,0.1,0.3c0,0.1,0.1,0.1,0.1,0.2
			C70.2,40.9,70.1,40.9,70,40.8z M70.7,41.7c0.1-0.2,0-0.4-0.1-0.5c0.2,0.1,0.4,0.1,0.6,0.1C71,41.4,70.9,41.5,70.7,41.7z
			 M71.7,40.8C71.7,40.8,71.7,40.8,71.7,40.8c0.1-0.2,0.1-0.4,0.1-0.6c0.1,0.1,0.2,0.1,0.3,0.2C71.9,40.5,71.8,40.6,71.7,40.8z
			 M72.8,44c0,0.1,0.1,0.2,0.2,0.3c-0.2,0.1-0.3,0.3-0.3,0.6c0,0,0,0.1,0,0.1c-0.3,0-0.6,0-0.9,0C72.2,44.6,72.5,44.3,72.8,44z
			 M72.3,46.5c0-0.1,0-0.1-0.1-0.2c1.5,0,2.9-0.1,4.4-0.3C75.1,46.3,73.7,46.4,72.3,46.5z M73.8,40.6c0-0.1,0-0.2,0-0.2
			c0.1,0,0.1,0.1,0.2,0.1c0,0,0,0,0,0c0,0,0,0,0,0C74,40.6,73.9,40.6,73.8,40.6z M74.3,44.7C74.3,44.7,74.3,44.7,74.3,44.7
			c0,0.1,0,0.1,0,0.1C74.3,44.7,74.3,44.7,74.3,44.7z M74.5,44c0.2-0.1,0.4-0.3,0.6-0.4c0,0.4-0.1,0.8-0.1,1.1c-0.1,0-0.3,0-0.4,0
			C74.7,44.5,74.7,44.3,74.5,44z M78.3,42.6c0-0.1,0.1-0.2,0.1-0.3c0.1,0,0.1,0,0.2,0C78.5,42.3,78.4,42.4,78.3,42.6z M79.4,45.7
			c0.8-0.1,1.6-0.3,2.3-0.4c0,0,0,0,0,0C80.9,45.5,80.2,45.6,79.4,45.7z M81,43.1c0.1-0.1,0.2-0.3,0.3-0.4c0.1,0.1,0.1,0.2,0.2,0.2
			C81.3,43,81.1,43,81,43.1z M82,39.3c0-0.1,0-0.2,0-0.3c0.1,0,0.3,0,0.4,0C82.2,39,82.1,39.1,82,39.3z M81.9,37.4
			c0-0.5,0-0.9-0.1-1.4c0-0.1-0.1-0.2-0.1-0.3c0-0.2-0.2-0.4-0.4-0.5c-0.3-0.1-0.5,0.1-0.6,0.3c-0.1,0.1-0.1,0.3-0.1,0.5
			c0,0.1,0,0.2,0,0.2c-0.1,0-0.2,0.1-0.3,0.2c-0.1,0.1-0.1,0.1-0.3,0.2c0,0,0,0,0,0c0,0,0,0-0.1,0c0,0-0.1,0-0.1,0c0,0,0,0,0,0
			c-0.2,0-0.3,0.1-0.4,0.1c-0.3-0.1-0.6-0.1-0.8,0.2c-0.4,0.1-0.9,0.2-1.4,0.4c-0.1,0-0.2,0-0.2-0.1c-3.3-0.1-5.9-1-7.1-4.3
			c-0.8-2.4-0.6-5.1-0.5-7.6c0.2-4.9-0.9-11.2,4.2-14c0,0,0.1,0,0.1-0.1c1.9-0.5,4-0.6,5.8,0.2c0.3,0.3,0.7,0.6,1.1,0.8c0,0,0,0,0,0
			c0.2,0.4,0.9,0.3,0.9-0.2c0-0.2,0-0.4,0-0.6c0.8,0,1.6,0,2.4,0c0.2,2.2,0.3,4.4,0.3,6.6c-1.3,0-2.5,0.2-3.8,0.2
			c0-0.4-0.1-0.8-0.2-1.2c0.1-0.1,0.1-0.2,0.1-0.3c0-0.6-0.2-1.2-0.6-1.6c-0.3-0.5-0.8-1-1.4-1.3c-0.2-0.1-0.5-0.1-0.7,0
			c-1.8-0.8-3.2,0.6-3.9,2.2c0,0.1-0.1,0.2-0.1,0.3c-0.2,0.1-0.3,0.3-0.3,0.6c0.1,2.4,0.1,4.8,0.3,7.2c-0.1,0.6-0.2,1.2-0.1,1.8
			c0,0.1,0,0.2,0.1,0.2c-0.2,1.8-0.2,3.8,0.3,5.4c-0.1,0.1-0.1,0.3-0.1,0.4c0.1,1,0.5,1.9,1.3,2.4c0.3,0.4,0.8,0.6,1.3,0.6
			c0.1,0.1,0.3,0.1,0.5,0.1c0.2,0,0.4-0.1,0.6-0.1c0.1,0,0.1,0,0.2,0c0.8-0.3,1.5-0.8,2-1.6c0.2-0.3,0.3-0.7,0.3-1
			c0.4-1,0.4-2.2,0.2-3.2c0,0,0,0,0-0.1c0.1-0.4-0.2-0.7-0.5-0.8c-0.4-0.1-0.8-0.4-1.1-0.7c0-0.5,0-1,0-1.4c1.8,0.1,3.6,0,5.4-0.1
			c0.1,0.5,0.1,1.1,0.2,1.6c0,0.1-0.1,0.1-0.1,0.2c-0.1,1.5-0.1,3-0.1,4.5c0,0.2,0.1,0.3,0.2,0.4c0,1.4,0,2.9,0.1,4.3
			c-0.6,0.1-1.1,0.3-1.7,0.4C82.4,37.5,82.2,37.4,81.9,37.4z M81.3,20.4c0.1,0.1,0.3,0.2,0.5,0.2c-0.2,0.2-0.4,0.3-0.7,0.5
			c0,0,0.1-0.1,0.1-0.1C81.3,20.7,81.4,20.5,81.3,20.4z M81.7,24.4c0,0.1,0.1,0.1,0.2,0.2c-0.1,0-0.3,0-0.4,0
			C81.6,24.6,81.6,24.5,81.7,24.4z M81.1,20C81,19.9,81,19.9,81.1,20C81,19.9,81,19.9,81.1,20C81.1,19.9,81.1,19.9,81.1,20z
			 M79.4,20.6c0,0-0.1,0.1-0.1,0.1c0.1-0.3,0.2-0.6,0.3-0.8c0,0,0-0.1,0-0.1c0.1,0.1,0.2,0.1,0.4,0.1c0.1,0,0.1,0,0.2,0
			c0,0-0.1,0-0.1,0.1c0,0,0,0,0,0c0,0-0.1,0-0.1,0C79.5,20,79.4,20.3,79.4,20.6z M79.6,24.4c0,0,0,0.1-0.1,0.1
			c0,0.1-0.1,0.1-0.1,0.2c-0.1,0-0.1,0-0.2,0C79.4,24.6,79.5,24.5,79.6,24.4z M79,18.9c-0.1,0-0.2,0-0.3,0c0.1-0.2,0.2-0.5,0.3-0.7
			C79,18.5,79,18.7,79,18.9z M78.2,29.2C78.2,29.2,78.2,29.2,78.2,29.2c0.1,0,0.1,0,0.2,0.1c-0.1,0-0.2,0-0.2,0
			C78.2,29.3,78.2,29.2,78.2,29.2z M77.9,16.5c0,0,0-0.1,0-0.1c0-0.1,0-0.2,0-0.3c0.1,0.1,0.2,0.2,0.3,0.4
			C78.2,16.4,78.1,16.4,77.9,16.5z M77.4,33.1C77.4,33.1,77.4,33.2,77.4,33.1c-0.1,0.1-0.2,0-0.4,0C77.1,33.1,77.2,33.1,77.4,33.1z
			 M77.3,15.4C77.3,15.4,77.3,15.4,77.3,15.4L77.3,15.4C77.3,15.4,77.3,15.4,77.3,15.4z M76.7,24.1c0,0.1,0,0.3,0,0.4
			c-0.1,0-0.3,0-0.4,0c-0.1,0-0.1-0.1-0.2-0.1c0-0.1,0-0.2,0-0.3c0.2,0,0.5-0.1,0.6-0.3c0,0,0.1-0.1,0.1-0.1
			C76.8,23.8,76.7,23.9,76.7,24.1z M76.7,33C76.7,32.9,76.7,32.9,76.7,33C76.7,32.9,76.7,32.9,76.7,33C76.7,32.9,76.7,32.9,76.7,33z
			 M75,19.9c0-0.3,0-0.5,0-0.8c0.1,0,0.2,0,0.3,0C75.2,19.4,75.1,19.7,75,19.9z M75.2,27.9c-0.1,0.1-0.1,0.3-0.2,0.4
			c0-0.1,0-0.2,0-0.3C75.1,27.9,75.2,27.9,75.2,27.9z M74.9,17.1C74.9,17.1,74.9,17,74.9,17.1c0-0.1,0-0.2,0-0.2
			c0.1-0.1,0.3-0.2,0.3-0.4c0.1-0.2,0.2-0.4,0.3-0.5c0,0,0,0,0.1,0.1c0,0,0,0,0.1,0C75.3,16.4,75.1,16.7,74.9,17.1z M78.7,29.5
			C78.7,29.5,78.7,29.5,78.7,29.5C78.7,29.5,78.8,29.5,78.7,29.5C78.7,29.5,78.7,29.5,78.7,29.5z M83.6,40.3
			C83.6,40.2,83.6,40.2,83.6,40.3C83.6,40.2,83.6,40.2,83.6,40.3C83.6,40.2,83.6,40.2,83.6,40.3z M84.8,42c-0.2,0.1-0.4,0.1-0.6,0.2
			c0.2-0.4,0.4-0.7,0.7-1C84.8,41.4,84.8,41.7,84.8,42z M85.6,20.9c0,0.2,0,0.3,0,0.5c-0.1-0.1-0.2-0.1-0.3-0.1
			C85.4,21.2,85.5,21,85.6,20.9z M85.5,19.9C85.5,19.9,85.6,19.9,85.5,19.9C85.6,19.9,85.6,19.9,85.5,19.9
			C85.6,19.9,85.5,19.9,85.5,19.9z M85.6,26.5C85.6,26.6,85.6,26.6,85.6,26.5c0-0.1,0-0.3-0.1-0.5c0,0,0.1,0,0.1,0
			C85.6,26.2,85.6,26.4,85.6,26.5C85.6,26.5,85.6,26.5,85.6,26.5z M85.8,27.4c0,0-0.1,0.1-0.1,0.1c0-0.1,0-0.3-0.1-0.4
			c0,0.1,0.1,0.1,0.2,0.2C85.8,27.3,85.8,27.4,85.8,27.4z M86.6,11.8c-0.4-0.1-0.9,0-1,0.4c0-0.2,0-0.4-0.1-0.6h0
			c0.1,0,0.2,0,0.3-0.1C86,11.7,86.4,11.8,86.6,11.8C86.6,11.7,86.6,11.8,86.6,11.8z M86.7,33.4C86.7,33.4,86.7,33.4,86.7,33.4
			c0,0.1,0,0.2,0.1,0.3c0,0.2,0.2,0.3,0.4,0.4c0,0.1,0,0.1,0,0.2c-0.1-0.1-0.3-0.2-0.5-0.2C86.6,33.9,86.7,33.7,86.7,33.4z
			 M87.3,37.9c-0.1,0.1-0.2,0.2-0.3,0.4c-0.1,0.5-0.2,0.9-0.4,1.3c0.2-1.3,0.4-2.7,0.6-4c0.2,0.1,0.4,0.1,0.5,0.1
			C87.7,36.5,87.5,37.2,87.3,37.9z M88.7,39.4c0,0,0,0.1,0,0.2c-0.2,0.3-0.4,0.5-0.6,0.8c0.1-0.3,0.2-0.6,0.3-0.9
			c0.1-0.1,0.2-0.1,0.2-0.3c0.2-0.3,0.3-0.7,0.5-1C88.9,38.6,88.8,39,88.7,39.4z M89.6,21.9C89.6,21.9,89.6,21.9,89.6,21.9
			C89.6,21.9,89.6,21.9,89.6,21.9C89.6,21.9,89.6,21.9,89.6,21.9z M89.8,17.1c-0.1-0.1-0.3-0.1-0.5-0.1c0-0.2-0.1-0.4-0.2-0.6
			c0.2-0.4,0.5-0.8,0.8-1.2c0.2-0.4,0-0.8-0.3-1c0.3-0.3,0.7-0.6,1-0.9c0,0.1-0.1,0.2-0.1,0.2c-0.2,0.4,0,0.9,0.3,1.1
			C90.4,15.4,90.1,16.2,89.8,17.1z M90.6,11.3c0.1-0.2,0.3-0.3,0.4-0.5c0,0.2,0.1,0.3,0.1,0.5C90.9,11.2,90.7,11.2,90.6,11.3z
			 M91.5,27.9c-0.2,0.6-0.4,1.2-0.6,1.8c0.3-1,0.6-2,0.8-3c0,0.3,0.1,0.6,0.1,0.9C91.7,27.6,91.6,27.7,91.5,27.9z M91,24
			c0.1-0.7,0.3-1.4,0.4-2c0.1,0,0.2-0.1,0.3-0.1c-0.1,0.5-0.2,0.9-0.3,1.4c-0.1,0.1-0.2,0.2-0.3,0.4C91.1,23.7,91,23.8,91,24z
			 M91.4,18.4c-0.2,0-0.4,0-0.6,0.1c0.4-1.2,0.9-2.3,1.3-3.5c0,0.1,0.1,0.2,0.1,0.4C92,16.4,91.7,17.4,91.4,18.4z M93.2,26.1
			c0-0.4-0.3-0.6-0.6-0.7c0.3-0.2,0.6-0.4,0.9-0.6c0,1-0.1,2.1-0.1,3.1C93.3,27.3,93.3,26.7,93.2,26.1z M44,20.2
			c0-0.1,0-0.2-0.1-0.3c0-0.1-0.1-0.2-0.2-0.2c-0.2-0.1-0.4-0.2-0.5,0c0,0-0.1,0.1-0.1,0.1c0,0,0,0,0,0c0,0,0,0.1-0.1,0.1
			c0,0,0,0,0,0.1c-0.4,1.3-0.6,2.6-0.7,3.9c0,0.3,0.2,0.5,0.5,0.5c0.4,0,0.8,0,1.2,0c0.3,0,0.5-0.2,0.5-0.5
			c-0.1-1.2-0.3-2.3-0.6-3.5C44,20.4,44,20.3,44,20.2z M58.4,22.8c-0.2-1-0.6-2-1.4-2.7c-0.2-0.4-0.5-0.7-0.8-1
			c0-0.1-0.1-0.1-0.2-0.1c-0.1-0.1-0.5-0.1-0.4,0.2c0.1,1.3,0.1,2.6,0.1,3.9c0,0.1,0.1,0.2,0.2,0.2c0,1.1-0.1,2.2-0.1,3.3
			c0,0,0,0,0,0c0,0,0,0,0,0c0,0.3,0,0.6-0.1,1c-0.1,0.3,0.1,0.5,0.3,0.6c0.2,0.2,0.5,0.3,0.8,0.1C58.6,27,59,24.8,58.4,22.8
			C58.4,22.9,58.4,22.8,58.4,22.8z M57,22c0.1,0.1,0.1,0.2,0.2,0.3c-0.1,0-0.1,0-0.2,0.1C57,22.3,57,22.1,57,22z M57.2,26.5
			C57.1,26.4,57.1,26.4,57.2,26.5c0-0.1,0-0.1,0-0.2c0,0,0.1,0,0.1,0C57.2,26.3,57.2,26.4,57.2,26.5z M57.7,24.1
			C57.7,24.1,57.7,24,57.7,24.1C57.7,24,57.7,24.1,57.7,24.1C57.7,24.1,57.7,24.1,57.7,24.1z"/>
	</g>
</g>
</svg>
