<?xml version="1.0" encoding="utf-8"?>
<!-- Generator: Adobe Illustrator 18.1.1, SVG Export Plug-In . SVG Version: 6.00 Build 0)  -->
<svg version="1.1" id="Layer_1" xmlns="http://www.w3.org/2000/svg" xmlns:xlink="http://www.w3.org/1999/xlink" x="0px" y="0px"
	 viewBox="0 0 800 162" enable-background="new 0 0 800 162" xml:space="preserve">
<path fill-rule="evenodd" clip-rule="evenodd" d="M799.1,37.1c-0.7,6.2-0.7,12.4,0,18.5c0.2,2.1-1.9,2.7-3.4,1.9
	c-1.1,0.3-2.5,0-3-1.5c-1.4-4.2-3.4-8.1-6-11.7c0,0,0-0.1-0.1-0.1c-2.9-0.2-5.9-0.4-8.8-0.4c-0.1,24.7-0.7,49.3,0,74
	c0,0.3,0,0.6-0.1,0.8c2.1,1,4,2.2,5.7,3.8c0.6,0.6,0.8,1.2,0.7,1.8c0.8,1.3,0.2,3.6-1.9,3.8c-5.4,0.4-10.8,0.2-16.2-0.5
	c-0.1,0-0.1,0-0.2,0c-0.7,0.9-2.1,1.3-3,0.7c0.4,0.3-0.1-0.1-0.2-0.1c-0.3-0.1-0.5-0.2-0.7-0.3c-0.1,0-0.1-0.1-0.2-0.2
	c-1.3,1.2-4,0.7-4-1.6c0-0.8,0.2-1.4,0.5-1.8c-0.1-0.8,0.1-1.7,1.1-2.2c1.6-1,3.2-1.9,4.9-2.8c0.1-24.6,1.4-49.2-0.1-73.7
	c-3.2,0.2-6.4,0.2-9.6,0.2c-0.1,0-0.1,0-0.2,0c-1.4,3.2-2.8,6.4-4.1,9.7c0.3,0.3,0.5,0.6,0.7,1.1c0.3,1.2-0.4,2.6-1.6,2.9
	c-1,0.2-2,0.2-3,0.5c-1.2,0.3-2.5-0.4-2.8-1.6c-0.2-0.9,0.1-1.9,0.9-2.5c0-0.1,0-0.1,0-0.2c0.2-4.9,0.7-9.8,1.2-14.6
	c-0.4-0.6-0.6-1.5-0.4-2.2c-0.8-1.5-0.1-3.6,1.9-3.4c2.8,0.3,5.7,0.6,8.6,0.9c8.6-0.8,17-2.4,25.6-0.6c4.6,0,9.2,0.2,13.7,0.6
	C796.2,34.2,799.4,34.6,799.1,37.1z M750.1,41.5c-0.1,0.9-0.2,1.8-0.3,2.8c0.4-0.9,0.8-1.8,1.3-2.7
	C750.7,41.6,750.4,41.6,750.1,41.5z M772.6,121.8c0-0.1,0-0.2-0.1-0.3C772.5,121.5,772.5,121.6,772.6,121.8
	C772.5,121.7,772.5,121.7,772.6,121.8C772.6,121.8,772.6,121.8,772.6,121.8z M769.3,83.4c0.8,0.3,1.5,1,1.5,2.1v8
	c0,1.2-0.8,1.9-1.7,2.2c-0.1,5-0.2,9.9-0.2,14.9c0.4-0.8,1.2-1.1,2-1c0.3-9,0.2-17.9,0-26.9c-0.5,0.3-1.1,0.3-1.6,0.3
	C769.3,83.2,769.3,83.3,769.3,83.4z M771.3,56.4c0.1,4.2,0.3,8.4,0.4,12.6c0,1.5-1,2.2-2.2,2.2c0,1.4,0,2.7,0,4.1
	c0.5-0.1,1-0.1,1.5,0c0.1-1.2,1.1-1.9,2.1-2c0-5.5,0.1-11,0.1-16.5C772.5,57,771.8,56.8,771.3,56.4z M773.2,113.4
	C773.1,113.4,773.1,113.4,773.2,113.4c-0.2,0.8-0.3,1.5-0.3,2.3c0.1-0.1,0.2-0.1,0.4-0.2C773.2,114.8,773.2,114.1,773.2,113.4z
	 M793.9,41c0.1,0.2,0.2,0.3,0.3,0.5c0-0.2,0-0.3,0-0.5C794.1,41,794,41,793.9,41z M730.8,126.2c-0.4,0.3-0.8,0.5-1.4,0.6
	c-5.6,0.3-11.1,0.6-16.7,0.9c-0.7,0-1.3-0.2-1.6-0.6c-8.7,0.3-17.4,0.6-26.1,1.5c-2.6,0.3-2.9-3.2-1-4.3c-0.1-1,0.3-2.1,1.6-2.4
	c1.6-0.4,3-1.1,4.4-1.9c0.3-3.4,0.6-6.7,0.9-10.1c-0.1-0.2-0.1-0.5-0.2-0.8c-0.5-18.6,1.5-37.3-0.2-55.9c0-0.5,0.1-0.9,0.3-1.3
	c-0.3-0.4-0.6-0.8-0.6-1.4c-0.2-2.5-0.6-5-1.1-7.6c-0.1-0.1-0.1-0.2-0.2-0.2c-0.7-1.4-1.7-2-3.2-2.3c-1.2-0.2-1.9-1.7-1.6-2.9
	c0.4-1.3,1.6-1.9,2.8-1.6c0,0,0.1,0,0.1,0c0.4-0.5,0.9-0.8,1.7-0.7c13.3,0.3,26.6,0.3,39.9,0.3c1.2-1.1,3.8-0.5,4,1.7
	c0.6,5.6,0.6,11.1,0.6,16.7c0,2.6-3.6,2.9-4.4,0.9c-0.1,0-0.2,0-0.3,0.1c-1.2,1.1-3.4,1-3.8-1c-0.7-3.5-2.2-6.8-4.4-9.6
	c-0.1-0.1-0.1-0.2-0.2-0.3c-5.8-0.2-11.6-0.1-17.4,0.1c0,0.1,0,0.2,0,0.3c-0.3,10.5-0.6,21-0.9,31.5c1.1,0,2.1,0.7,2.1,2
	c4.1-0.4,8.2-0.4,12.3,0c0.7-1.1,1.3-2.3,1.7-3.5c0.1-0.3,0.2-0.5,0.4-0.8c0-0.3-0.1-0.5-0.1-0.8c-0.3-2.2,2-3.4,3.4-2.7
	c1.3-0.5,3.2,0.2,3.3,2.1c0.3,6,0.6,11.9,0.3,17.9c0,1.1-0.7,1.8-1.6,2.1c-0.2,0.3-0.5,0.6-0.8,0.8c-1.1,0.7-2.5,0.2-3.2-0.8
	c-1-1.5-2.3-3-3.8-4.1c-0.5-0.4-0.9-0.9-1.1-1.5c-3.8,0.3-7.5,0.4-11.3,0.3c-0.4,9-0.4,18,0.4,27c0.1,1.3-0.7,2-1.7,2.2
	c0.6,1,0.6,2.4-0.7,3.2c-0.5,0.3-1,0.6-1.4,0.9c7.5-0.6,15.1-0.8,22.6-0.6c0,0,0,0,0-0.1c1.4-2.8,2.8-5.5,3.8-8.4
	c0.1-0.2,0.2-0.4,0.3-0.6c-0.1-0.2-0.2-0.4-0.3-0.6c-0.4-1.3,0.5-2.4,1.6-2.9c1-0.4,2.4-0.4,3.4,0c1.2,0.5,2,1.5,1.6,2.9
	c-0.1,0.3-0.2,0.5-0.4,0.8c0.5,4.5,0.8,8.9,1.1,13.4C734,126,732.2,126.7,730.8,126.2z M725.8,44.3v-0.1c0,0,0,0-0.1,0
	C725.8,44.2,725.8,44.3,725.8,44.3z M696.6,83c0,0.1,0,0.2,0,0.3c0.1,1.1,0.2,2.1,0.3,3.2c0-1.1,0.1-2.2,0.1-3.4
	C696.9,83.2,696.8,83.1,696.6,83z M697.1,47.5c0,0.9,0,1.8,0,2.7c0.3,0.1,0.6,0.2,0.9,0.3c0-1,0.1-2.1,0.1-3.1
	C697.7,47.6,697.4,47.6,697.1,47.5z M699.4,114.5c-0.1,0.3-0.2,0.6-0.3,0.9c0,0,0,0,0.1,0c0.2-0.1,0.3-0.2,0.5-0.2
	C699.6,114.9,699.5,114.7,699.4,114.5z M728.8,117.8c-0.1,0.2-0.2,0.4-0.3,0.7c0.1,0,0.3,0,0.4,0.1
	C728.8,118.3,728.8,118,728.8,117.8z M668.6,127.6c-0.4,0.3-0.9,0.5-1.5,0.4c-8.3-0.6-16.7-0.3-25,0.6c0,0,0,0,0,0
	c-3.9,0.2-7.7,0-11.6-0.6c-2.5,0.3-5,0.5-7.5,0.9c-1.9,0.2-2.6-1.6-2-3.1c-0.5-1.2-0.2-2.8,1.4-3.3c1.6-0.5,3.1-1.2,4.6-1.9
	c0-0.3-0.1-0.5,0-0.8c2.1-14.7,1.7-29.7,0.8-44.5c-0.1-0.9,0.3-1.5,0.9-1.9c-0.2-10.4-0.3-20.8-0.6-31.2c-1.5-0.7-3.1-1.2-4.8-1.4
	c-1.3-0.2-1.9-1.8-1.6-2.9c0.4-1.3,1.6-1.8,2.8-1.6c0.3-0.9,1.2-1.7,2.2-1.6c0.4,0,0.7,0.1,1,0.3c0.2-0.1,0.3-0.1,0.5-0.2
	c2-0.4,4.2-0.7,6.2,0c0.8,0.3,1.4,0.9,1.6,1.6c0.7,0,1.5,0,2.2,0.1c0.4-0.3,0.8-0.5,1.5-0.5c9,0.3,17.9,0.5,26.8-0.3
	c0.4,0,0.7,0,1,0.1c1.4-0.8,3.6-0.2,3.5,1.9c-0.3,5.4-0.3,10.7,0,16.1c0.1,2.4-2.9,2.9-4.1,1.4c-0.7,1.9-4.2,1.5-4.5-1
	c-0.4-3.1-1.8-5.9-3.7-8.4c-0.2-0.3-0.3-0.5-0.4-0.8c-3.9-0.7-7.8-0.9-11.8-0.3c-0.7,0.1-1.4-0.1-1.8-0.5c-1.1,0.1-2.2,0-3.3-0.2
	c-0.5,11.4-0.8,22.8-0.8,34.3c0.4-0.3,0.8-0.5,1.4-0.5h12.4c0.5-1.1,0.8-2.4,1-3.6c0.1-1,0.7-1.9,1.6-2.2c0.4-2.3,4.3-2.1,4.6,0.6
	c0.6,5.8,1.2,11.5,1.5,17.3c0.1,1.9-1.7,2.6-3.1,2.1c-0.9,0.4-2,0.4-2.7-0.4c-1.3-1.6-2.4-3.3-4-4.6c-0.4-0.3-0.6-0.8-0.7-1.3
	c-4,0-8,0.1-12.1,0.3c0,0.4-0.1,0.7-0.2,0.9c0,1.3,0,2.7,0,4c0.1,0.3,0.2,0.5,0.2,0.8c0,1.9-0.1,3.7-0.1,5.6
	c0.1,5.6,0.3,11.1,0.4,16.7c0,0.9-0.4,1.5-0.9,1.9c0,0.4-0.1,0.8-0.3,1.2c-0.9,1.2-1.9,2.3-2.9,3.3c7.8-0.8,15.6-1.1,23.5-1.4
	c1.2-2.4,2.3-4.9,3.5-7.3c0.1-0.3,0.3-0.5,0.5-0.7c-0.1-0.3-0.2-0.6-0.2-1v-0.6c0-2.1,2.3-2.7,3.6-1.9c1.2-1.3,4-0.7,4.1,1.6
	c0.3,5.6,0.6,11.1,0.6,16.7C672.2,127.8,669.9,128.4,668.6,127.6z M658,85.1C658,85.1,658,85.1,658,85.1
	C657.9,85.1,657.9,85.1,658,85.1C657.9,85.1,657.9,85.1,658,85.1z M632.9,103.1c1.3-12.2,1.9-24.4,1.7-36.6c0-0.4,0.1-0.7,0.2-1
	c-0.2,0.1-0.4,0.1-0.7,0.1c-0.4,0-0.7-0.1-1-0.2c0.1,3.3,0.1,6.6,0.2,9.9c0,0.8-0.3,1.4-0.8,1.8C633,85.8,633.2,94.5,632.9,103.1z
	 M632.8,43.1c0.1,6,0.2,12.1,0.3,18.1c0.3-0.1,0.6-0.2,1-0.2c0.9,0,1.5,0.4,1.9,1c0.1-5.7,0.4-11.3,0.6-17c-0.4,0.4-0.9,0.6-1.6,0.6
	C633.4,45.6,632.7,44.3,632.8,43.1C632.8,43,632.8,43.1,632.8,43.1z M633.6,40.9c0,0.2,0,0.4,0,0.6c0.4-0.3,0.8-0.5,1.5-0.5
	c0.7,0,1.3,0.3,1.7,0.7c0-0.1,0-0.3,0-0.4c0-0.1,0-0.2,0-0.3C635.7,40.9,634.6,40.9,633.6,40.9z M664.3,122.7
	C664.3,122.7,664.3,122.7,664.3,122.7c-0.2,0.2-0.4,0.4-0.7,0.5c0.4,0,0.8,0,1.2,0.1C664.6,123.1,664.5,122.9,664.3,122.7z
	 M665.5,118.2C665.5,118.2,665.5,118.2,665.5,118.2c0,0.1,0,0.1,0,0.1C665.5,118.3,665.5,118.2,665.5,118.2z M609.2,128.5
	c-1.9,1-4.1,0.9-6.1,0.4c-0.2,0-0.4,0-0.6,0c-2.5-0.1-4.7-1.1-6.6-2.5c-2.3-1-4.3-2.7-5.8-5.1c-0.7-0.2-1.4-0.7-1.6-1.6
	c-0.9-3-1.7-6-2.4-9c-2.5-5.9-4.3-12.2-6.9-17.1c-0.3-0.6-0.4-1.2-0.2-1.7c-2.4-1.3-5.1-2.1-8.3-2.2c-0.1,9.8-0.5,19.5-1.4,29.2
	c0,0.1,0,0.2,0,0.2c1.7,0.8,3.3,1.8,4.6,3.1c0.1,0.1,0.1,0.2,0.2,0.3c2.7,0.3,2.6,4.6-0.3,4.6h-1.8c-0.3,0-0.5-0.1-0.8-0.1
	c-0.2,0.1-0.5,0.1-0.8,0.1c-3,0-6,0-9.1,0.3c-0.3,0.2-0.7,0.3-1.1,0.4c-2.6,0.2-5.4,0.6-8.1,0.2c-1.1-0.2-2.2-1.2-2.1-2.4
	c0.1-0.6,0.2-1,0.5-1.4c0.1-0.1,0.2-0.3,0.3-0.4c0.2-0.8,0.8-1.4,1.6-1.8c1-0.4,2-0.9,2.9-1.4c-0.4-26.2,3-52.4,0-78.6
	c0-0.2,0-0.4,0-0.5c-0.6-0.5-1.2-1-2-1.2c-0.7-0.3-1.3-0.8-1.5-1.4c-2-1-1.7-4.6,0.9-4.4c3.7,0.3,7.4,0.6,11.1,0.9
	c0.3-0.2,0.7-0.3,1.2-0.3c8.2,0,16.4,0,24.7,0.3c0.2,0,0.3,0,0.4,0.1c0.5-0.1,1.1-0.1,1.7,0.3c12.7,7.5,14.6,22.1,13.8,35.7
	c-0.1,1.4-1.1,2.1-2.2,2.2c-1.6,7.9-7.5,13-14.8,14.8c9.3,3.3,10.9,17.6,15.8,26c0.2,0.4,0.3,0.7,0.3,1c0.9,0.6,1.9,1.3,2.9,1.8
	c0.5,0.3,0.8,0.6,0.9,1c0,0,0,0,0.1,0c1.9-0.5,3.1,1.3,2.8,2.8c0,0,0,0,0,0.1C611.8,123.9,611.8,127.1,609.2,128.5z M563.9,118.4
	c0.2-0.1,0.5-0.2,0.7-0.3c0.4-4.3,0.6-8.6,0.8-13c-0.3,0.2-0.7,0.3-1.1,0.3c-0.3,0-0.5-0.1-0.8-0.1
	C563.7,109.7,563.7,114.1,563.9,118.4z M560.4,97.6c0,0.2,0,0.5,0,0.7c0.3-0.1,0.6-0.2,1-0.2C561,98,560.6,97.8,560.4,97.6z
	 M565.3,43.9c-0.4,0-0.9,0-1.3,0c-0.2,5.1-0.3,10.2-0.4,15.3c0.6-0.4,1.4-0.5,2.1-0.2C565.5,54,565.4,48.9,565.3,43.9z M566,83.9
	c0-3.4,0-6.9,0-10.3c-0.5,5.3-1.1,10.7-1.6,16c0,0.3-0.1,0.6-0.3,0.9c0.1,1.9,0.1,3.7,0.3,5.6c0.1,1.5-1,2.2-2.1,2.2
	c0.8,0.3,1.5,1,1.5,2.1c0,0.2,0,0.4,0,0.6c0.2-0.1,0.5-0.1,0.8-0.1c0.5,0,0.9,0.1,1.3,0.4c0.2-5.3,0.3-10.6,0.3-15.8
	C565.8,84.9,565.8,84.4,566,83.9z M601.1,69.1C601.1,69.1,601.1,69.1,601.1,69.1C601.1,69.1,601.1,69.1,601.1,69.1
	C601.1,69.1,601.1,69.1,601.1,69.1z M600.1,61.3c0.3-0.2,0.5-0.4,0.8-0.5c-0.2-1.8-0.4-3.5-0.8-5.2c-0.3,2.1-0.6,4.2-0.9,6.3
	C599.5,61.8,599.8,61.5,600.1,61.3z M596.9,49.1c0.2-0.3,0.4-0.4,0.7-0.6c-0.2-0.4-0.4-0.8-0.7-1.2
	C596.9,47.9,596.9,48.5,596.9,49.1z M595.7,79.4c0.2-0.2,0.4-0.5,0.6-0.7c-0.2,0.1-0.5,0.2-0.7,0.2
	C595.6,79.1,595.7,79.2,595.7,79.4z M595.5,70.3c0-0.1,0.1-0.1,0.1-0.2c0,0-0.1,0-0.1,0C595.5,70.2,595.5,70.2,595.5,70.3z
	 M569.7,40.8c0,0,0,0.1,0,0.1c0.1,0,0.2,0,0.3-0.1c0,0,0.1,0,0.1,0C569.9,40.8,569.8,40.8,569.7,40.8z M585,40.1
	c-2.4-0.1-4.7-0.1-7.1-0.1c0,0.2-0.1,0.3-0.2,0.5c2.6,0,5.2,0.2,7.8,0.6C585.3,40.8,585.1,40.4,585,40.1z M590.9,82.9
	c-0.3,0-0.6,0-0.9-0.1c-0.3,0.3-0.6,0.6-1,0.9C589.7,83.4,590.3,83.2,590.9,82.9z M589.9,67.3c-0.1-0.8,0.1-1.5,0.5-2
	c-0.4-4.9-0.8-9.8-1.2-14.7c0-0.2,0-0.3,0-0.4c-0.7-1.1-1.5-2.2-2.4-3.2c-0.4-0.4-0.6-0.8-0.6-1.2c-5.4-0.8-10.8-0.9-16.2-0.3
	c0,0,0,0-0.1,0c0.3,12.3,0.6,24.5,0.7,36.8c3.9,0.4,7.9,0.5,11.8,0.1c0.2-0.2,0.4-0.3,0.6-0.4C589.1,79.1,591.1,73.8,589.9,67.3z
	 M590,95c0.5,1.1,1,2.2,1.5,3.3c0.3-0.2,0.5-0.3,0.8-0.3C591.7,96.8,590.9,95.8,590,95z M590,106.2c-0.1,0-0.1,0-0.2,0
	c0.3,1.5,0.6,3,1,4.5c0.9,1.8,1.8,3.6,2.9,5.1C592.5,112.6,591.3,109.4,590,106.2z M603.7,122.7c0,0,0,0.1,0,0.1c0.1,0,0.1,0,0.2,0
	c0.3,0,0.5,0.1,0.7,0.2c0,0,0,0,0.1-0.1C604.3,122.9,604,122.8,603.7,122.7z M531.8,127.1c-0.1,0-0.1,0-0.2,0
	c-0.1,0-0.4,0.1-0.4,0.1c-0.5,0.1-1.1,0.2-1.6,0.3c-0.5,0.1-1,0.2-1.5,0.4c-0.2,0.1-1.3,0.5-0.5,0.1c-1.1,0.5-2.5,0.3-3.2-0.8
	c-0.1-0.2-0.2-0.5-0.3-0.8c-0.1-0.2-0.2-0.4-0.3-0.7c-0.2-1.4-0.5-2.8-1.1-4.2c-3.2,3.9-7.7,6.7-12.6,7.5c-0.5,0.8-1.6,1.4-2.6,1
	c-0.3-0.1-0.6-0.2-0.8-0.3c-0.2,0.1-0.4,0.1-0.7,0.1c-16.6-0.4-28.4-12.8-29.1-29.2c0-0.8,0.2-1.3,0.7-1.7c0-0.2,0-0.3-0.1-0.5
	c0-0.1,0-0.2,0-0.3c0,0,0,0,0,0c-0.6-11.6-1.2-23.3-1.2-34.9c0,0,0,0,0,0s0,0,0,0c0,0,0,0,0,0c0,0,0,0,0,0c0.4-9.1,1.6-18,3.4-26.9
	c0-0.1,0-0.2,0-0.3c0-0.8,0.1-1.7,0.6-2.4c0.5-0.7,1.3-1.2,2.2-1.1c0.2-0.3,0.4-0.7,0.8-0.9c1.6-1,3.2-2,4.9-2.8
	c5.3-3.5,11.5-4.7,17.9-3.7c0.2,0,0.4,0,0.6,0c0.3,0,0.6,0.1,0.9,0.2c0.4,0.1,0.9,0.2,1.4,0.3c0.7-0.6,1.7-0.7,2.6-0.2
	c0.4,0.2,0.8,0.4,1.2,0.7c3.4,0.5,6.7,1.8,8.9,4.6c0.2,0.2,0.3,0.4,0.4,0.7c0.6-1.8,1.1-3.7,1.6-5.5c0.5-2,2.7-2,3.9-0.9
	c1.9-0.3,3.8-0.4,5.7-0.1c1.2,0.2,1.9,1.7,1.6,2.9c-0.1,0.5-0.4,0.9-0.8,1.2c0.3,7.4,0.9,14.9,1.2,22.3c0.1,1.3-0.8,2.1-1.8,2.2
	c-0.4,0.9-1.4,1.6-2.6,1.3c-2.9-0.8-5.9-1.1-8.9-0.8c-0.3,0-0.6,0-0.8-0.1c-1.5,0.2-3.1-1-2.7-2.9c2.4-9.3-2.1-16.7-12-17.2
	c-0.2,0-0.4-0.1-0.6-0.1c-0.4,0.4-0.9,0.7-1.5,0.7c-3.8,0.4-6.8,1.8-9.2,4.1c-2.8,7.2-3.6,14.9-2.6,22.6c0.1,0.8-0.2,1.4-0.6,1.7
	c-0.1,14.6-0.4,29.2,0.9,43.7c0,0.5-0.1,1-0.3,1.3c1.7,4.6,4.6,8.4,8.3,10.7c1.8,0.4,3.6,0.7,5.5,0.8c0.4-0.5,0.9-0.8,1.7-0.9
	c2.2,0,4.3-0.8,6.2-1.8c0.1-0.1,0.2-0.1,0.4-0.2c5.2-5.7,6.1-13.4,4.7-21c-0.1-0.5,0-0.9,0.1-1.3c-2.6-2-5.2-3.9-8-5.7
	c-1-0.6-1.2-1.6-1-2.5c-1.3-1.3-0.7-4,1.6-4c7.1,0,14.2,0,21.3,0.3c2.2,0.1,2.8,2.7,1.7,3.9v16.7c0.3,0.4,0.6,0.8,0.6,1.4
	c0.6,6.9,0.3,13.8-0.3,20.7C535.1,127,533.1,127.7,531.8,127.1z M481.2,72.6c0.1,5.7,0.4,11.4,0.6,17c0.1,0,0.1-0.1,0.2-0.1
	C481.9,83.8,481.5,78.2,481.2,72.6z M528.6,49.5c-0.2-0.3-0.3-0.6-0.4-1c0-0.1,0-0.2,0-0.3c0,0.5-0.2,0.9-0.4,1.2
	C528,49.4,528.3,49.4,528.6,49.5z M528.1,47.4c-0.3-2.5-0.5-5.1-0.8-7.6c-0.1,0.4-0.2,0.8-0.4,1.3c-0.1,0.3-0.2,0.5-0.4,0.7
	C527.1,43.5,527.7,45.4,528.1,47.4z M523.8,49.1c0-0.1-0.1-0.2-0.1-0.4c0-0.2-0.1-0.3-0.1-0.5c0,0.3,0,0.6-0.1,0.9
	C523.6,49.1,523.7,49.1,523.8,49.1z M519.5,34.8c0-0.1,0-0.1,0-0.1c-0.1,0-0.1,0-0.2-0.1C519.4,34.6,519.5,34.7,519.5,34.8z
	 M484.8,112.3C484.8,112.4,484.8,112.4,484.8,112.3c0,0.2,0.1,0.4,0.2,0.6C485,112.7,484.9,112.5,484.8,112.3z M487.6,37.8
	c-1.9,6.6-2.5,13.4-1.6,20.2c0.1,0.8-0.2,1.4-0.6,1.7c0.2,12.1,1.4,24.2,1.5,36.3c0,0.7-0.3,1.3-0.7,1.6c0.1,0.9,0.3,1.8,0.5,2.7
	c0.3-0.1,0.7-0.1,1-0.1c-0.8-12.7-0.6-25.5-0.5-38.3c0-0.6,0.2-1.1,0.6-1.5c-0.6-5-0.4-10,0.5-14.9c-1.1-0.5-2-1.9-1.4-3.3
	c0.5-1.1,1-2.2,1.7-3.2C488.1,38.8,487.8,38.3,487.6,37.8z M518.6,119c1.9-1.7,3.6-3.8,5-6.2c0,0,0,0,0,0c-0.1-0.9-0.2-1.8-0.3-2.7
	C522.4,113.3,520.9,116.3,518.6,119z M524.5,86.7c-0.5,0-1,0-1.5,0c0.5,0.3,1.1,0.5,1.6,0.8C524.7,87.2,524.6,86.9,524.5,86.7z
	 M528,106.3c-0.2-0.7-0.4-1.4-0.6-2.1c0.2,2.6,0.5,5.2,0.8,7.8C528.1,110.1,528,108.2,528,106.3z M528.2,116.9
	c-0.1,0.1-0.1,0.1-0.2,0.2c0.1,0.1,0.1,0.2,0.2,0.3C528.2,117.2,528.2,117.1,528.2,116.9z M528.7,122.5c-0.2,0.1-0.4,0.2-0.6,0.3
	c0,0.1,0,0.1,0,0.2c0.3-0.1,0.6-0.1,0.9-0.2C528.9,122.7,528.8,122.6,528.7,122.5z M529.1,96.3c0,0,0,0.1,0.1,0.1
	c0.1,0.2,0.2,0.3,0.2,0.5c0-0.3,0-0.7,0-1C529.3,96,529.2,96.2,529.1,96.3z M464,109.2c4.9-6.5,4.3-14.4-2.7-19.1
	c-1.2-0.8-0.1-2.8,1.2-2c8,5.3,9.2,14.7,3.5,22.3C465.1,111.5,463.1,110.3,464,109.2z M458.5,89.3c-12-9-28,1-27.9,15.3l0,0
	c0.6-0.1,1.2-0.2,1.8-0.3c0,0,0.1,0,0.1,0c0.1,0,0.3-0.1,0.4-0.1c0.4-0.1,0.9-0.2,1.3-0.3l0,0c1.3-12.3,13.2-18.3,23.5-10.6
	c0.6,0.4,0.6,1.1,0.4,1.6c0.2-0.1,0.4-0.2,0.7-0.2c0,0,0,0,0,0c0.1,0,0.2,0,0.3,0.1c0,0,0,0,0.1,0c0.1,0,0.2,0.1,0.3,0.2
	c9.4,8.6-2,17.2-10.6,19.4c-1.4,0.4-2.1-1.9-0.6-2.2c6.8-1.7,17.6-8.2,9.6-15.5c-0.2-0.2-0.3-0.4-0.4-0.6c0,0,0,0,0,0
	c0-0.2,0-0.4,0.1-0.6l0,0c-0.3,0.1-0.6,0.1-1-0.1c-8.8-6.6-19.2-1.9-20,9.1c0,0.4-0.2,0.7-0.4,0.8c0,0.2-0.1,0.4-0.2,0.5
	c0,0,0,0,0,0c-0.1,0.1-0.1,0.1-0.2,0.1c0,0,0,0-0.1,0c-0.1,0-0.2,0.1-0.3,0.1c-2,0.3-3.9,0.9-5.9,1c-0.1,0-0.2,0-0.3,0
	c0,0-0.1,0-0.1,0c-0.1,0-0.1,0-0.2-0.1c0,0-0.1,0-0.1,0c0,0-0.1-0.1-0.1-0.1c0,0,0,0-0.1-0.1c0,0-0.1-0.1-0.1-0.1c0,0,0,0,0,0
	c-0.1-0.2-0.2-0.5-0.2-0.7c0,0,0,0,0,0c0-0.1,0-0.2,0-0.3l0,0c-0.1-0.1-0.1-0.3-0.1-0.5c-0.5-16.1,17.8-27.9,31.4-17.7
	C460.8,88.2,459.7,90.2,458.5,89.3z M405.2,104.8C426.5,98,437,78.4,424.5,58c-0.8-1.3,1.2-2.4,2-1.2c13.2,21.8,2,43-20.7,50.2
	C404.4,107.5,403.8,105.2,405.2,104.8z M408.5,50.4c0-1.2,1.6-1.4,2.1-0.6c0.1,0,0.1,0.1,0.2,0.1c0,0,0,0,0,0c0.1,0,0.1,0.1,0.2,0.2
	c9.3,8.4,15.8,23.7,11.5,36.1c-0.3,0.7-1,0.9-1.5,0.7l0,0c0.1,0.1,0.3,0.3,0.3,0.5c0,0,0,0,0,0c0,0.1,0,0.2,0,0.2c0,0,0,0.1,0,0.1
	c0,0.1,0,0.2,0,0.3c-1.6,5.5-5.5,10-10.4,12.9c-0.1,0-0.2,0.1-0.2,0.1c0,0-0.1,0-0.1,0c0,0-0.1,0-0.1,0c-0.1,0-0.1,0-0.2,0
	c0,0,0,0,0,0c-0.1,0-0.1,0-0.2,0c-0.7,0.3-1.7,0-1.7-1C408.7,83.5,407.9,66.9,408.5,50.4z M410.8,98.3c0.5-0.3,0.9-0.6,1.4-1
	c0,0,0.1,0,0.1-0.1c0.4-0.3,0.8-0.7,1.2-1c0.1-0.1,0.1-0.1,0.2-0.2c0.4-0.3,0.7-0.7,1-1c0.1-0.1,0.2-0.2,0.3-0.3
	c0.3-0.3,0.6-0.7,0.9-1c0.1-0.2,0.2-0.3,0.3-0.5c0.2-0.3,0.5-0.6,0.7-0.9c0.1-0.2,0.3-0.4,0.4-0.7c0.2-0.3,0.3-0.6,0.5-0.9
	c0.2-0.3,0.3-0.6,0.5-0.9c0.1-0.2,0.2-0.5,0.3-0.7c0.2-0.6,0.4-1.1,0.6-1.7c0-0.1,0.1-0.2,0.1-0.2c0,0,0,0,0-0.1
	c0,0,0.1-0.1,0.1-0.1c0,0,0,0,0.1-0.1c0,0,0.1-0.1,0.1-0.1c0,0,0,0,0.1,0c0,0,0.1-0.1,0.1-0.1c0,0,0,0,0,0c0.1,0,0.1,0,0.2-0.1
	c0,0,0,0,0,0c0.1,0,0.1,0,0.2,0c0,0,0,0,0,0c0.1,0,0.3,0,0.4,0.1c-0.3-0.2-0.4-0.6-0.3-1.1c0.2-0.7,0.4-1.4,0.6-2.2
	c0.1-0.2,0.1-0.5,0.1-0.7c0.1-0.5,0.2-1,0.3-1.5c0-0.3,0.1-0.6,0.1-0.9c0-0.4,0.1-0.9,0.1-1.3c0-0.3,0-0.7,0-1c0-0.4,0-0.8,0-1.2
	c0-0.4-0.1-0.7-0.1-1.1c0-0.4-0.1-0.8-0.1-1.2c0-0.4-0.1-0.8-0.2-1.1c-0.1-0.4-0.1-0.7-0.2-1.1c-0.1-0.4-0.2-0.8-0.3-1.2
	c-0.1-0.3-0.2-0.7-0.3-1c-0.1-0.4-0.2-0.8-0.4-1.2c-0.1-0.3-0.2-0.6-0.3-1c-0.1-0.4-0.3-0.9-0.5-1.3c-0.1-0.3-0.2-0.6-0.3-0.9
	c-0.2-0.4-0.4-0.9-0.6-1.3c-0.1-0.3-0.2-0.5-0.4-0.8c-0.2-0.5-0.4-0.9-0.7-1.4c-0.1-0.2-0.2-0.4-0.4-0.6c-0.3-0.5-0.5-0.9-0.8-1.4
	c-0.1-0.2-0.2-0.4-0.3-0.5c-0.3-0.5-0.6-1-0.9-1.4c-0.1-0.1-0.2-0.3-0.3-0.4c-0.3-0.5-0.7-1-1.1-1.4c-0.1-0.1-0.2-0.2-0.2-0.3
	c-0.4-0.5-0.8-1-1.2-1.4c0-0.1-0.1-0.1-0.1-0.2c-0.4-0.5-0.9-1-1.4-1.5C410.4,68.1,411,83.2,410.8,98.3z M422.8,56.3
	c-2.9-6-8.2-10.1-14.1-13c0,0,0,0,0,0c-0.1,0.2-0.3,0.4-0.6,0.4c-1.3,0.4-2.6,0.9-3.9,1.5c2.5,18.7-1.1,38-1.3,56.9
	c0,0.2,0,0.3-0.1,0.4c0,0,0,0.1,0,0.1c-0.1,0.1-0.1,0.2-0.2,0.2c0,0,0,0-0.1,0.1c-0.1,0.1-0.2,0.1-0.3,0.2c-0.1,0-0.1,0-0.2,0
	c0,0-0.1,0-0.1,0c-0.3,0-0.6,0-0.8-0.2l0,0c0.2,0.4,0.2,0.9-0.2,1.3c0,0-0.1,0.1-0.1,0.1l0,0c-0.1,0.3-0.1,0.5-0.1,0.7
	c0,0,0,0.1,0,0.1c0,0,0,0.1,0,0.1c0,0,0,0.1,0.1,0.1c0,0,0,0.1,0.1,0.1c0,0,0.1,0.1,0.1,0.1c0,0,0.1,0,0.1,0.1c0.1,0,0.1,0,0.2,0.1
	c0,0,0.1,0,0.1,0c0.1,0,0.2,0,0.4,0c1.5,0,1.5,2.4,0,2.3c-1.1,0-2.5-0.4-3-1.5c-0.5-1.1-0.4-2.2-0.1-3.3c0-0.1,0.1-0.2,0.1-0.3
	c0,0,0,0,0-0.1c0-0.1,0.1-0.1,0.1-0.2c0,0,0,0,0,0c0.1,0,0.1-0.1,0.2-0.1c0,0,0,0,0,0c0.1,0,0.1-0.1,0.2-0.1c0.4-0.4,1-0.3,1.3,0
	c-0.1-0.1-0.1-0.3-0.1-0.5c0.2-18.8,3.9-38.2,1.3-56.9c0-0.1,0-0.2,0-0.3c0,0,0-0.1,0-0.1c0-0.1,0.1-0.2,0.1-0.3
	c-0.1-0.4,0.1-0.8,0.6-1c1.6-0.8,3.2-1.5,4.9-2c0.4-0.1,0.7,0,1,0.2c0,0,0.1-0.1,0.1-0.1c0,0,0,0,0.1-0.1c0,0,0.1,0,0.1-0.1
	c0,0,0.1,0,0.1-0.1c0,0,0.1,0,0.1-0.1c0,0,0.1,0,0.1,0c0,0,0.1,0,0.1,0c0,0,0.1,0,0.1,0c0,0,0.1,0,0.1,0c0,0,0.1,0,0.1,0
	c0,0,0.1,0,0.1,0c0,0,0.1,0,0.2,0c0,0,0.1,0,0.1,0c0.1,0,0.2,0,0.2,0.1c6.2,3,11.8,7.5,14.9,13.9C425.5,56.4,423.5,57.6,422.8,56.3z
	 M398.6,26.5c5.4-6.2,5-14.1-1.6-19.2c-1.2-0.9,0.5-2.5,1.6-1.6c7.6,5.9,7.8,15.4,1.6,22.5C399.3,29.3,397.6,27.6,398.6,26.5z
	 M394.2,6.3c-11.4-9.9-28.2-0.5-28.8,13.8c-0.1,1.5-2.4,1.5-2.3,0c0.6-16.3,19.8-26.6,32.7-15.4C397,5.7,395.3,7.3,394.2,6.3z
	 M379.7,29.2c1.4-0.4,2,1.8,0.6,2.2c-24.7,7.3-51.6-6.3-75.6,5.9c-1.3,0.7-2.5-1.3-1.2-2C327.9,23,354.8,36.6,379.7,29.2z
	 M289.1,59.6c3.6,9,14.6,11.8,23.3,10.4c1.5-0.2,2.1,2,0.6,2.2c-9.4,1.4-23-1.5-26.2-12c-3.2-10.7,4.7-19.2,13.5-23.9
	c1.3-0.7,2.5,1.3,1.2,2C294.3,42.2,285.4,50.3,289.1,59.6z M278.7,55.6c0.2,2.1-1.9,2.7-3.4,1.9c-1.1,0.3-2.5,0-3-1.5
	c-1.4-4.2-3.4-8.1-6-11.7c0,0,0-0.1-0.1-0.1c-2.9-0.2-5.9-0.4-8.8-0.4c-0.1,24.7-0.7,49.3,0,74c0,0.3,0,0.6-0.1,0.8
	c2.1,1,4,2.2,5.7,3.8c0.6,0.6,0.8,1.2,0.7,1.8c0.8,1.3,0.2,3.6-1.9,3.8c-5.4,0.4-10.8,0.2-16.2-0.5c-0.1,0-0.1,0-0.2,0
	c-0.7,0.9-2.1,1.3-3,0.7c0.4,0.3-0.1-0.1-0.2-0.1c-0.3-0.1-0.5-0.2-0.7-0.3c-0.1,0-0.1-0.1-0.2-0.2c-1.3,1.2-4,0.7-4-1.6
	c0-0.8,0.2-1.4,0.5-1.8c-0.1-0.8,0.1-1.7,1.1-2.2c1.6-1,3.2-1.9,4.9-2.8c0.1-24.6,1.4-49.2-0.1-73.7c-3.2,0.2-6.4,0.2-9.6,0.2
	c-0.1,0-0.1,0-0.2,0c-1.4,3.2-2.8,6.4-4.1,9.7c0.3,0.3,0.5,0.6,0.7,1.1c0.3,1.2-0.4,2.6-1.6,2.9c-1,0.2-2,0.2-3,0.5
	c-1.2,0.3-2.5-0.4-2.8-1.6c-0.2-0.9,0.1-1.9,0.9-2.5c0-0.1,0-0.1,0-0.2c0.2-4.9,0.7-9.8,1.2-14.6c-0.4-0.6-0.6-1.5-0.4-2.2
	c-0.8-1.5-0.1-3.6,1.9-3.4c2.8,0.3,5.7,0.6,8.6,0.9c8.6-0.8,17-2.4,25.6-0.6c4.6,0,9.2,0.2,13.7,0.6c1.2-1.6,4.4-1.2,4.1,1.2
	C278,43.2,278,49.4,278.7,55.6z M229.7,41.5c-0.1,0.9-0.2,1.8-0.3,2.8c0.4-0.9,0.8-1.8,1.3-2.7C230.3,41.6,230,41.6,229.7,41.5z
	 M252.2,121.8c0-0.1,0-0.2-0.1-0.3C252.1,121.5,252.1,121.6,252.2,121.8C252.1,121.7,252.1,121.7,252.2,121.8
	C252.1,121.8,252.2,121.8,252.2,121.8z M248.9,83.4c0.8,0.3,1.5,1,1.5,2.1v8c0,1.2-0.8,1.9-1.7,2.2c-0.1,5-0.2,9.9-0.2,14.9
	c0.4-0.8,1.2-1.1,2-1c0.3-9,0.1-17.9,0-26.9c-0.5,0.3-1.1,0.3-1.6,0.3C248.9,83.2,248.9,83.3,248.9,83.4z M250.8,56.4
	c0.1,4.2,0.3,8.4,0.4,12.6c0,1.5-1,2.2-2.2,2.2c0,1.4,0,2.7,0,4.1c0.5-0.1,1-0.1,1.5,0c0.1-1.2,1.1-1.9,2.1-2c0-5.5,0.1-11,0.1-16.5
	C252.1,57,251.4,56.8,250.8,56.4z M252.7,113.4C252.7,113.4,252.7,113.4,252.7,113.4c-0.2,0.8-0.3,1.5-0.3,2.3
	c0.1-0.1,0.2-0.1,0.4-0.2C252.8,114.8,252.7,114.1,252.7,113.4z M273.4,41c0.1,0.2,0.2,0.3,0.3,0.5c0-0.2,0-0.3,0-0.5
	C273.7,41,273.6,41,273.4,41z M210.4,126.2c-0.4,0.3-0.8,0.5-1.4,0.6c-5.6,0.3-11.1,0.6-16.7,0.9c-0.7,0-1.3-0.2-1.6-0.6
	c-8.7,0.3-17.4,0.6-26.1,1.5c-2.6,0.3-2.9-3.2-1-4.3c-0.1-1,0.3-2.1,1.6-2.4c1.6-0.4,3-1.1,4.4-1.9c0.3-3.4,0.6-6.7,0.9-10.1
	c-0.1-0.2-0.1-0.5-0.1-0.8c-0.5-18.6,1.5-37.3-0.2-55.9c0-0.5,0.1-0.9,0.3-1.3c-0.3-0.4-0.6-0.8-0.6-1.4c-0.2-2.5-0.6-5-1.1-7.6
	c-0.1-0.1-0.1-0.2-0.2-0.2c-0.7-1.4-1.7-2-3.2-2.3c-1.2-0.2-1.9-1.7-1.6-2.9c0.4-1.3,1.6-1.9,2.8-1.6c0,0,0.1,0,0.1,0
	c0.4-0.5,0.9-0.8,1.7-0.7c13.3,0.3,26.6,0.3,39.9,0.3c1.2-1.1,3.8-0.5,4,1.7c0.6,5.6,0.6,11.1,0.6,16.7c0,2.6-3.6,2.9-4.4,0.9
	c-0.1,0-0.2,0-0.3,0.1c-1.2,1.1-3.4,1-3.8-1c-0.7-3.5-2.2-6.8-4.4-9.6c-0.1-0.1-0.1-0.2-0.2-0.3c-5.8-0.2-11.6-0.1-17.4,0.1
	c0,0.1,0,0.2,0,0.3c-0.3,10.5-0.6,21-0.9,31.5c1.1,0,2.1,0.7,2.1,2c4.1-0.4,8.2-0.4,12.3,0c0.7-1.1,1.3-2.3,1.7-3.5
	c0.1-0.3,0.2-0.5,0.4-0.8c0-0.3-0.1-0.5-0.1-0.8c-0.3-2.2,2-3.4,3.4-2.7c1.3-0.5,3.2,0.2,3.3,2.1c0.3,6,0.6,11.9,0.3,17.9
	c0,1.1-0.7,1.8-1.6,2.1c-0.2,0.3-0.5,0.6-0.8,0.8c-1.1,0.7-2.5,0.2-3.2-0.8c-1-1.5-2.3-3-3.8-4.1c-0.5-0.4-0.9-0.9-1.1-1.5
	c-3.8,0.3-7.5,0.4-11.3,0.3c-0.4,9-0.4,18,0.4,27c0.1,1.3-0.7,2-1.7,2.2c0.6,1,0.6,2.4-0.7,3.2c-0.5,0.3-1,0.6-1.4,0.9
	c7.5-0.6,15.1-0.8,22.6-0.6c0,0,0,0,0-0.1c1.4-2.8,2.8-5.5,3.8-8.4c0.1-0.2,0.2-0.4,0.3-0.6c-0.1-0.2-0.2-0.4-0.3-0.6
	c-0.4-1.3,0.5-2.4,1.6-2.9c1-0.4,2.4-0.4,3.4,0c1.2,0.5,2,1.5,1.6,2.9c-0.1,0.3-0.2,0.6-0.4,0.8c0.5,4.5,0.8,8.9,1.1,13.4
	C213.5,126,211.7,126.7,210.4,126.2z M205.4,44.3v-0.1c0,0-0.1,0-0.1,0C205.4,44.2,205.4,44.3,205.4,44.3z M176.6,47.5
	c0,0.9,0,1.8,0,2.7c0.3,0.1,0.6,0.2,0.9,0.3c0-1,0.1-2.1,0.1-3.1C177.3,47.6,176.9,47.6,176.6,47.5z M178.4,105.7
	c-1.1,0-2.3-0.8-2.2-2.2c0.1-6.7,0.3-13.5,0.5-20.2c-0.1-0.1-0.3-0.1-0.4-0.2c-0.2,9.8-0.6,19.5-1.3,29.3c0.3-0.9,0.5-1.8,0.8-2.6
	c0.4-1.5,1.8-1.9,2.9-1.5C178.5,107.3,178.4,106.5,178.4,105.7z M179,114.5c-0.1,0.3-0.2,0.6-0.3,0.9c0,0,0,0,0.1,0
	c0.2-0.1,0.3-0.2,0.5-0.2C179.2,114.9,179.1,114.7,179,114.5z M208.4,117.8c-0.1,0.2-0.2,0.4-0.3,0.7c0.1,0,0.3,0,0.4,0.1
	C208.4,118.3,208.4,118,208.4,117.8z M148.2,127.6c-0.4,0.3-0.9,0.5-1.5,0.4c-8.3-0.6-16.7-0.3-25,0.6c0,0,0,0,0,0
	c-3.9,0.2-7.7,0-11.6-0.6c-2.5,0.3-5,0.5-7.5,0.9c-1.9,0.2-2.6-1.6-2-3.1c-0.5-1.2-0.2-2.8,1.4-3.3c1.6-0.5,3.1-1.2,4.6-1.9
	c0-0.3-0.1-0.5,0-0.8c2.1-14.7,1.7-29.7,0.8-44.5c-0.1-0.9,0.3-1.5,0.9-1.9c-0.2-10.4-0.3-20.8-0.6-31.2c-1.5-0.7-3.1-1.2-4.8-1.4
	c-1.2-0.2-1.9-1.8-1.6-2.9c0.4-1.3,1.6-1.8,2.8-1.6c0.3-0.9,1.2-1.7,2.2-1.6c0.4,0,0.7,0.1,1,0.3c0.2-0.1,0.3-0.1,0.5-0.2
	c2-0.4,4.2-0.7,6.2,0c0.8,0.3,1.4,0.9,1.6,1.6c0.7,0,1.5,0,2.2,0.1c0.4-0.3,0.8-0.5,1.5-0.5c9,0.3,17.9,0.5,26.8-0.3
	c0.4,0,0.7,0,1,0.1c1.4-0.8,3.6-0.2,3.5,1.9c-0.3,5.4-0.3,10.7,0,16.1c0.1,2.4-2.9,2.9-4.1,1.4c-0.7,1.9-4.2,1.5-4.5-1
	c-0.4-3.1-1.8-5.9-3.7-8.4c-0.2-0.3-0.3-0.5-0.4-0.8c-3.9-0.7-7.8-0.9-11.8-0.3c-0.7,0.1-1.4-0.1-1.8-0.5c-1.1,0.1-2.2,0-3.3-0.2
	c-0.5,11.4-0.8,22.8-0.8,34.3c0.4-0.3,0.8-0.5,1.4-0.5h12.4c0.5-1.1,0.8-2.4,1-3.6c0.1-1,0.7-1.9,1.6-2.2c0.4-2.3,4.3-2.1,4.6,0.6
	c0.6,5.8,1.2,11.5,1.5,17.3c0.1,1.9-1.7,2.6-3.1,2.1c-0.9,0.4-2,0.4-2.7-0.4c-1.3-1.6-2.4-3.3-4-4.6c-0.4-0.3-0.6-0.8-0.7-1.3
	c-4,0-8,0.1-12.1,0.3c0,0.4-0.1,0.7-0.2,0.9c0,1.3,0,2.7,0,4c0.1,0.3,0.2,0.5,0.2,0.8c0,1.9-0.1,3.7-0.1,5.6
	c0.1,5.6,0.3,11.1,0.4,16.7c0,0.9-0.4,1.5-0.9,1.9c0,0.4-0.1,0.8-0.3,1.2c-0.9,1.2-1.9,2.3-2.9,3.3c7.8-0.8,15.6-1.1,23.5-1.4
	c1.2-2.4,2.3-4.9,3.5-7.3c0.1-0.3,0.3-0.5,0.5-0.7c-0.1-0.3-0.2-0.6-0.2-1v-0.6c0-2.1,2.3-2.7,3.6-1.9c1.2-1.3,4-0.7,4.1,1.6
	c0.3,5.6,0.6,11.1,0.6,16.7C151.8,127.8,149.5,128.4,148.2,127.6z M137.5,85.1C137.5,85.1,137.5,85.1,137.5,85.1
	C137.5,85.1,137.5,85.1,137.5,85.1C137.5,85.1,137.5,85.1,137.5,85.1z M115.1,100.3c0,0.5,0,1,0.1,1.5c0-0.8,0.1-1.5,0.1-2.3
	c-0.1,0.1-0.2,0.1-0.3,0.2C115,99.9,115.1,100.1,115.1,100.3z M116.3,41.3c0-0.1,0-0.2,0-0.3c-0.2,0-0.3,0-0.5,0
	c-0.1,1.1-0.8,2-2.2,2c-0.4,0-0.8-0.1-1.1-0.3c-0.1,0.1-0.2,0.2-0.3,0.3c0.3,10.7,0.3,21.5,0.6,32.2c0,0.8-0.3,1.4-0.8,1.8
	c0.3,6.2,0.6,12.4,0.6,18.6c0.3-0.3,0.8-0.4,1.4-0.4c0.5,0,0.9,0.1,1.2,0.3c-0.1-5-0.1-10,0.2-15.1
	C115.3,67.5,115.8,54.4,116.3,41.3z M143.9,122.7C143.9,122.7,143.9,122.7,143.9,122.7c-0.2,0.2-0.4,0.4-0.7,0.5
	c0.4,0,0.8,0,1.2,0.1C144.2,123.1,144,122.9,143.9,122.7z M145.1,118.2C145.1,118.2,145,118.2,145.1,118.2c0,0.1,0,0.1,0,0.1
	C145.1,118.3,145.1,118.2,145.1,118.2z M87.3,123.8c2.2,0.8,1.9,4.5-0.8,4.5c-4.1,0-8.2-0.2-12.4-0.4c-3.7,0.2-7.4,0.6-11.1,1
	c-1,0.1-1.7-0.4-2-1c-1.3-0.8-1.3-2.6-0.9-4.1c0.2-0.7,0.7-1.2,1.2-1.4c0.2-0.5,0.5-0.9,1.1-1.2c1-0.5,1.9-1,2.9-1.6
	c0.3-27.9,1.1-55.8,0.6-83.7c-1.4,7.3-2.9,14.6-4.4,21.8c0,0.1,0,0.1,0,0.2c-0.5,3.4-1.2,6.8-2,10.1c0.4,0.5,0.7,1.2,0.5,2
	c-3.2,18.1-6.4,36.2-8.9,54.4c-0.2,1.6-1.6,1.9-2.7,1.5c-0.2,0.3-0.5,0.6-0.8,0.8c-0.9,0.5-1.9,0.3-2.6-0.3
	c-0.9,0.1-1.9,0.2-2.8,0.1c0,0-0.1,0-0.1,0c-2,0.5-4.4,0.7-6.2-0.6c-1.2-0.9-1.9-2.1-2.1-3.5c-0.5-0.7-1-1.4-1.3-2.3
	c-0.5-1.2,0-2.4,0.8-3c-0.4-0.3-0.6-0.7-0.8-1.2c-1.5-6.6-2.8-13.3-3.5-20.1c0-0.4,0-0.7,0.1-1c0-0.1,0-0.1,0-0.2
	C26.3,75.5,24,56,17.9,37.4h-0.6c0,1.4,0,2.9-0.1,4.3c0.2,5.6,0.3,11.2,0.2,16.8c1.4,15.8,1.7,31.7,0.2,47.6
	c0.1,4.1,0.2,8.1,0.4,12.2c0,0.4-0.1,0.8-0.2,1.1c1.7,0.7,3.4,1.5,4.9,2.5c0.5,0.3,0.8,0.7,1,1.2c1.3,1.2,0.8,4.1-1.5,4.1
	c-5.7,0-11.6,0.2-17.3,0.9c-0.2,0-0.4,0-0.5,0C3,128.6,1,128,1,126c0-1.4,0.2-3.5,1.7-4.1c0.3-0.2,0.6-0.4,0.9-0.6
	c1.4-0.6,2.8-1.4,4.1-2.2c0.2-0.1,0.5-0.2,0.7-0.3C8.3,90.2,7.5,61.6,7.5,33c-1.2-1-2.6-1.9-4.2-2.5C1.8,30,1.4,28.4,2,27.2
	c0.1-1.3,1.3-2.6,2.9-2.4c3.5,0.5,7,0.8,10.6,0.9c1.7-0.2,3.3-0.3,4.9-0.1c2.4-0.7,5.2-1,7.5,0.3c2.3,1.2,3.5,3.4,4.2,5.8
	c0.1,0.3,0.1,0.6,0.1,0.8c5,23.6,7.1,47.7,12.6,71.1c0.7-3.2,1.6-6.4,2.5-9.6c1.1-7.4,2.2-14.9,3.6-22.3c-0.2-0.4-0.2-0.9-0.1-1.4
	c1.5-7.3,2.7-14.6,3.3-21.9c0.1-0.7,0.4-1.2,0.8-1.6c0.3-3.2,1-6.4,2.1-9.3c-0.1-0.4-0.1-0.8,0-1.2c0.3-1.7,0.4-3.5,1-5.1
	c-0.4-0.6-0.5-1.4,0.1-2.2c2.8-3.6,7-4.7,11.2-3.8c0,0,0.1,0,0.1,0c0.5-0.3,1.1-0.5,1.8-0.4c0.1,0,0.2,0,0.3,0.1
	c3.3-0.4,6.5-0.4,9.8-0.1c0.1,0,0.2,0,0.3,0.1c0.3-0.2,0.7-0.4,1.2-0.4c0.8,0,1.4,0,2.2-0.2c2.2-0.6,3.4,1.8,2.6,3.3
	c0.4,0.9,0.4,1.9-0.4,2.7c-0.6,0.6-1.7,0.8-2.5,0.5c-0.1,0.1-0.2,0.3-0.3,0.4c-0.1,0.1-0.1,0.2-0.1,0.1c-0.1,0.1-0.2,0.2-0.3,0.4
	c-0.1,0.1-0.2,0.2-0.3,0.3c-0.3,0.3-0.7,0.6-1,0.8c-0.4,0.2-0.7,0.3-1,0.3c0.2,2.1,0.1,4.1-0.6,6.2c1.2,26.2,1.8,52.5,0.4,78.6
	c2.1,1.3,3.9,2.7,5.4,4.7C87.3,123,87.4,123.4,87.3,123.8z M12.1,35.3c0,3.1,0,6.1,0.1,9.2c0.1-0.1,0.2-0.1,0.3-0.2
	c0-0.9,0-1.8,0.1-2.7c0-1.3-0.1-2.6-0.1-4c0-0.4,0.1-0.8,0.2-1.1c0-0.6,0-1.2,0-1.8C12.5,34.9,12.3,35.1,12.1,35.3z M12.2,53.3
	c0,0.6,0,1.3,0,1.9c0-0.5,0-1,0-1.5C12.3,53.6,12.3,53.4,12.2,53.3z M12.3,122.4c-0.1,0.1-0.3,0.2-0.4,0.3c0.3,0,0.7,0,1-0.1
	C12.6,122.6,12.4,122.5,12.3,122.4z M13,109.8c0-0.1-0.1-0.1-0.1-0.2c0,2.9,0,5.7,0.1,8.6c0.1,0,0.2,0,0.3,0
	C13.2,115.4,13.1,112.6,13,109.8z M39.4,100.8c-1,0.1-2-0.4-2.2-1.7c-1.6-9.6-2.9-19.3-4.1-29c-1,0.2-2.1-0.3-2.3-1.6
	c-2.1-10.9-4.1-21.8-7.1-32.5c-0.2,0.5-0.5,0.9-0.9,1.1c3.6,11.2,5.9,22.7,7.7,34.3c0.1,0,0.3,0,0.4,0c2.9,0,3,4.3,0.3,4.6
	c0.9,5.8,1.7,11.7,2.5,17.5c0.1,0.6,0,1.1-0.2,1.5c0.2,0.3,0.3,0.6,0.3,1c0.7,6.4,1.9,12.6,3.3,18.9c0.3,1.1-0.2,2-1,2.5
	c0.2,0.2,0.3,0.4,0.5,0.7c0.1,0.2,0.2,0.4,0.3,0.5c0,0,0,0,0,0c0.3-0.8,1-1.4,2.1-1.4c0.3,0,0.5,0,0.8,0.1
	c-0.8-3.7-1.6-7.4-2.1-11.1c-0.2-1.7,1.2-2.8,2.5-2.9C39.8,102.5,39.6,101.6,39.4,100.8z M43.3,121.9
	C43.2,121.9,43.2,121.9,43.3,121.9c-0.1,0.1-0.1,0.1-0.2,0.2c0.1,0,0.1,0,0.2,0C43.3,122,43.3,122,43.3,121.9z M49.7,102.5
	c-0.2,0.7-0.3,1.4-0.5,2.1c0.1,0,0.2,0.1,0.2,0.2c0.1-0.8,0.2-1.6,0.4-2.3C49.8,102.5,49.8,102.5,49.7,102.5z M69.2,122.8
	c-0.1,0.1-0.2,0.1-0.3,0.2c1.8,0.1,3.5,0.2,5.3,0.3c0.1,0,0.3,0,0.4,0c-1.1-0.2-2.2-0.3-3.5-0.2c-0.7,0.1-1.2-0.1-1.6-0.5
	C69.5,122.7,69.3,122.7,69.2,122.8z M76.5,37.6c0,0.2,0,0.4,0,0.6c0-0.2,0.1-0.4,0.2-0.6C76.7,37.5,76.6,37.5,76.5,37.6z M76.6,40.1
	c0.6,23.6,1.1,47.2-0.1,70.7c-0.1,3-4.8,3-4.6,0c1.1-23.5,0.7-47,0.1-70.5c-0.5-0.2-1-0.5-1.3-1c0.4,26.1-0.3,52.1-0.6,78.2
	c0.5,0.1,0.9,0.5,1.2,0.9c1.9-0.1,3.8,0.1,5.5,0.7c0-0.1,0-0.1,0-0.2C78.4,92.7,77.8,66.4,76.6,40.1z M80.7,122.9
	c0,0.1-0.1,0.2-0.1,0.3c0.4,0.1,0.7,0.2,1,0.5c0,0,0.1,0,0.1,0C81.3,123.3,81,123.1,80.7,122.9z M371,23.6c-1.9-0.2-3.9-0.3-5.7,0.4
	c-1.4,0.5-2-1.7-0.6-2.2c2-0.8,4.3-0.8,6.3-0.5C372.4,21.5,372.5,23.8,371,23.6z M394,11.8C394,11.8,394,11.8,394,11.8
	c0.1,0,0.2,0,0.3,0c0,0,0,0,0,0c0.1,0,0.2,0,0.3,0.1c0,0,0,0,0.1,0c0.1,0.1,0.2,0.1,0.3,0.2c8.8,9.2-3,17.1-11.8,18.6
	c-1.5,0.3-2.1-2-0.6-2.2c6.8-1.2,18.3-6.9,10.8-14.8c-0.1-0.1-0.2-0.2-0.2-0.3c0,0,0,0,0-0.1c0-0.1-0.1-0.2-0.1-0.3c0,0,0,0,0-0.1
	c0-0.1,0-0.2,0-0.3c0,0,0,0,0,0c0-0.1,0.1-0.2,0.2-0.3l0,0c-0.4,0.2-0.9,0.2-1.3-0.2c-8.5-7.3-18.9-2.7-20.5,8.1
	c-0.2,1.5-2.4,0.8-2.2-0.6c1.9-12.7,14.7-17.5,24.4-9.1c0.5,0.4,0.5,1,0.2,1.4l0,0C393.8,11.8,393.9,11.8,394,11.8z M322.8,54.8
	c-0.1,0-0.2-0.1-0.4-0.1c-0.2-0.1-0.4-0.1-0.6-0.2c-0.2,0-0.4-0.1-0.6-0.1c-0.1,0-0.3-0.1-0.4-0.1c-0.4-0.1-0.7-0.1-1.1-0.2
	c-0.1,0-0.1,0-0.2,0c-0.1,1.6-0.3,3.1-0.8,4.5c0,0,0,0,0,0c-0.1,0.2-0.2,0.5-0.2,0.7c0,0,0,0,0,0c-0.1,0.2-0.2,0.4-0.3,0.7
	c0,0,0,0,0,0c-0.1,0.2-0.2,0.4-0.3,0.6c0,0,0,0,0,0c-0.1,0.2-0.2,0.4-0.3,0.6c0,0,0,0,0,0c-0.1,0.2-0.2,0.4-0.3,0.6c0,0,0,0,0,0.1
	c-0.1,0.2-0.2,0.4-0.3,0.5c0,0,0,0,0,0.1c-0.1,0.2-0.2,0.3-0.4,0.5c0,0,0,0-0.1,0.1c-0.1,0.2-0.2,0.3-0.4,0.5c0,0,0,0.1-0.1,0.1
	c-0.1,0.1-0.3,0.3-0.4,0.4c0,0-0.1,0.1-0.1,0.1c-0.1,0.1-0.3,0.3-0.4,0.4c0,0-0.1,0.1-0.1,0.1c-0.1,0.1-0.3,0.2-0.4,0.4
	c0,0-0.1,0.1-0.1,0.1c-0.1,0.1-0.3,0.2-0.4,0.3c-0.1,0-0.1,0.1-0.2,0.1c-0.1,0.1-0.3,0.2-0.4,0.3c-0.1,0-0.1,0.1-0.2,0.1
	c-0.1,0.1-0.3,0.2-0.4,0.2c-0.1,0-0.1,0.1-0.2,0.1c-0.1,0.1-0.3,0.1-0.4,0.2c-0.1,0-0.2,0.1-0.2,0.1c-0.1,0.1-0.3,0.1-0.4,0.2
	c-0.1,0-0.2,0.1-0.3,0.1c-0.1,0.1-0.3,0.1-0.4,0.2c-0.1,0-0.2,0.1-0.3,0.1c-0.1,0-0.3,0.1-0.4,0.1c-0.1,0-0.2,0.1-0.3,0.1
	c-0.1,0-0.3,0.1-0.4,0.1c-0.1,0-0.2,0-0.3,0.1c-0.1,0-0.3,0.1-0.4,0.1c-0.1,0-0.2,0-0.4,0.1c-0.1,0-0.3,0-0.4,0.1
	c-0.1,0-0.3,0-0.4,0c-0.1,0-0.2,0-0.4,0c-0.1,0-0.3,0-0.4,0c-0.1,0-0.2,0-0.4,0c-0.2,0-0.3,0-0.5,0c-0.1,0-0.2,0-0.3,0
	c-0.2,0-0.4,0-0.5,0c-0.1,0-0.2,0-0.3,0c-0.3,0-0.6-0.1-0.8-0.1c-7.8-1.2-14.1-7.5-11.4-15.6c0.1-0.4,0.3-0.6,0.6-0.7l0,0
	c-0.1-0.1-0.1-0.2-0.2-0.3c0,0,0,0,0,0c0-0.1,0-0.2,0-0.3c0,0,0,0,0-0.1c0-0.1,0-0.2,0.1-0.3c0,0,0,0,0,0c0.1-0.1,0.1-0.2,0.2-0.3
	c10.7-10,26.8-10.3,40.6-9.4c0.5,0,0.9,0.4,1,0.8l0,0c0-0.1,0.1-0.2,0.1-0.3c0,0,0,0,0,0c0.1-0.1,0.1-0.2,0.2-0.2c0,0,0,0,0,0
	c0.1-0.1,0.2-0.1,0.3-0.1c0,0,0,0,0.1,0c0.1,0,0.2-0.1,0.3-0.1c21.3,0.2,43.6,3.8,60.9-11.7c1.1-1,2.7,0.6,1.6,1.6
	c-17.9,16-40.5,12.6-62.6,12.4c-0.1,0-0.2,0-0.3-0.1c0,0,0,0-0.1,0c-0.1,0-0.2-0.1-0.2-0.1c0,0,0,0,0,0c-0.1-0.1-0.2-0.1-0.2-0.2
	c0,0,0,0,0,0c-0.1-0.1-0.1-0.2-0.1-0.3l0,0c-0.1,0.4-0.5,0.7-1.1,0.7c-13.2-0.9-28.7-0.9-39,8.7c-0.1,0.1-0.2,0.1-0.3,0.2
	c0.2,0.2,0.2,0.6,0.1,0.9c-2.1,6.5,2.7,11.7,9.1,12.7c7.8,1.2,13-3.9,13.1-11.6c0-0.2,0-0.3,0.1-0.4c0,0,0-0.1,0-0.1
	c0.1-0.1,0.1-0.2,0.2-0.3c0,0,0,0,0,0c0.1-0.1,0.2-0.1,0.3-0.1c0.1,0,0.1,0,0.2-0.1c0,0,0.1,0,0.1,0c0.3,0,0.5,0,0.7,0.1
	c0.2-0.5,0.7-0.9,1.4-0.8c1.6,0.2,3.1,0.6,4.6,1.2c0.5,0.2,0.9,0.6,0.8,1.1c-0.4,7.4-3.5,13.9-10.1,17.7c-1.3,0.7-2.5-1.3-1.2-2
	c0.4-0.2,0.7-0.4,1-0.6c0.1-0.1,0.2-0.2,0.3-0.2c0.2-0.1,0.4-0.3,0.6-0.4c0.1-0.1,0.3-0.2,0.4-0.3c0.2-0.1,0.3-0.3,0.5-0.4
	c0.1-0.1,0.3-0.3,0.4-0.4c0.1-0.1,0.3-0.3,0.4-0.4c0.1-0.1,0.3-0.3,0.4-0.5c0.1-0.1,0.2-0.3,0.3-0.4c0.1-0.2,0.3-0.3,0.4-0.5
	c0.1-0.1,0.2-0.2,0.3-0.4c0.1-0.2,0.3-0.4,0.4-0.6c0.1-0.1,0.2-0.2,0.2-0.3c0.1-0.2,0.3-0.4,0.4-0.6c0.1-0.1,0.1-0.2,0.2-0.3
	c0.1-0.2,0.2-0.4,0.4-0.7c0.1-0.1,0.1-0.2,0.1-0.3c0.1-0.2,0.2-0.5,0.3-0.7c0-0.1,0.1-0.2,0.1-0.3c0.1-0.3,0.2-0.5,0.3-0.8
	c0-0.1,0.1-0.2,0.1-0.2c0.1-0.3,0.2-0.6,0.3-0.9c0-0.1,0-0.1,0.1-0.2c0.1-0.3,0.2-0.6,0.2-0.9c0,0,0-0.1,0-0.2
	c0.1-0.3,0.1-0.7,0.2-1c0,0,0-0.1,0-0.1c0.1-0.3,0.1-0.7,0.2-1.1c0,0,0,0,0-0.1c0-0.4,0.1-0.7,0.1-1.1l0,0c0,0,0,0,0,0
	C323.3,55,323.1,54.9,322.8,54.8z M322.9,123.7c-0.1-0.1-0.1-0.3-0.1-0.5c0.5-10.1,1.2-20.2,2.5-30.3c0-0.3,0.2-0.5,0.3-0.6
	c-0.1,0-0.1-0.1-0.2-0.1c-0.1,0-0.1-0.1-0.2-0.1c0,0-0.1-0.1-0.1-0.1c-0.1-0.1-0.1-0.1-0.1-0.2c0,0,0-0.1-0.1-0.1
	c0-0.1-0.1-0.3,0-0.4c1-11.5,1.5-42.3,20-37.7c0.4,0.1,0.6,0.3,0.7,0.5c0.1-0.1,0.2-0.2,0.3-0.2c0,0,0,0,0,0c0.1,0,0.1,0,0.2-0.1
	c0,0,0,0,0,0c0.1,0,0.1,0,0.2,0c0,0,0,0,0.1,0c0,0,0.1,0,0.1,0c0,0,0.1,0,0.1,0c0,0,0.1,0,0.1,0c0,0,0.1,0,0.1,0.1c0,0,0.1,0,0.1,0
	c0.1,0.1,0.1,0.1,0.2,0.2c5.9,7.4,8.1,16.2,9,25.5c1.2,12.1,2.1,24.2,2.7,36.4c0,0.2,0,0.3-0.1,0.5c0,0,0,0,0,0.1
	c0,0.1-0.1,0.2-0.2,0.3c0,0,0,0-0.1,0.1c-0.1,0.1-0.2,0.1-0.2,0.1c-0.1,0-0.1,0-0.2,0.1c0,0,0,0-0.1,0c-0.1,0-0.3,0-0.4,0
	c-1.5,3-4.7,4.1-8.2,3.9c-0.1,0-0.2,0-0.3-0.1c0,0-0.1,0-0.1,0c-0.1,0-0.1,0-0.2-0.1c0,0-0.1,0-0.1-0.1c0,0-0.1-0.1-0.1-0.1
	c0,0,0,0-0.1-0.1c-0.1-0.1-0.1-0.1-0.1-0.2c0,0,0,0,0,0c0-0.1-0.1-0.2-0.1-0.2c0,0,0,0,0-0.1c0-0.1,0-0.1,0-0.2c0,0,0-0.1,0-0.1
	c0-0.1,0-0.1,0-0.2c0,0,0,0,0-0.1c0-0.1,0-0.2,0.1-0.2l0,0c-0.1-0.1-0.1-0.3-0.1-0.4c-0.5-10.1-1.8-20.1-2.5-30.2c-0.7,0-1.3,0-2,0
	c-0.6,0-1.1-0.1-1.7-0.1c-0.3,0-0.6,0-0.8,0c-0.7-0.1-1.5-0.1-2.2-0.2c-0.1,0-0.2,0-0.2,0c-0.8-0.1-1.6-0.2-2.4-0.3c0,0,0,0,0,0
	c0.1,11-1,22-2.3,32.9c0,0.2-0.1,0.3-0.1,0.5c0,0.1-0.1,0.1-0.2,0.2c0,0-0.1,0.1-0.1,0.1c-0.1,0.1-0.2,0.1-0.3,0.2c0,0,0,0,0,0
	c-0.1,0.1-0.3,0.1-0.4,0.1l0,0c0.5,0.5,0.7,1.4-0.2,1.8c-2.9,1.3-5.9,2-9.1,2c-0.1,0-0.2,0-0.4-0.1c0,0,0,0-0.1,0
	c-0.1,0-0.2-0.1-0.3-0.1c0,0,0,0,0,0c-0.1-0.1-0.1-0.1-0.2-0.2c0,0,0,0,0,0c-0.1-0.1-0.1-0.2-0.1-0.3c0,0,0,0,0,0
	c-0.1-0.2-0.1-0.4,0-0.6c0,0,0,0,0,0C322.6,124.1,322.7,123.9,322.9,123.7z M328.3,122.9c0,0,0.1,0,0.1,0c0.5-0.1,1-0.3,1.5-0.4
	c0.1,0,0.2-0.1,0.2-0.1c0.5-0.2,1-0.4,1.4-0.6c0.1-0.1,0.3-0.1,0.4-0.1l0,0c-0.1-0.1-0.1-0.2-0.2-0.3c0-0.1-0.1-0.3,0-0.4
	c1.3-11.2,2.5-22.5,2.3-33.8c0-0.3,0.1-0.5,0.2-0.7c0,0,0,0,0,0c0-0.1,0-0.2,0.1-0.3c0,0,0-0.1,0-0.1c0,0,0-0.1,0.1-0.1
	c0,0,0-0.1,0.1-0.1c0,0,0,0,0.1-0.1c0,0,0.1,0,0.1-0.1c0,0,0,0,0.1,0c0,0,0.1,0,0.1,0c0,0,0,0,0.1,0c0,0,0.1,0,0.1,0c0,0,0,0,0.1,0
	c0.1,0,0.2,0,0.2,0c3.6,0.5,7.3,0.8,10.9,0.8c0.1,0,0.2,0,0.3,0.1c0.3,0,0.6,0.1,0.8,0.2c0,0,0,0,0.1,0c0.1,0.1,0.2,0.2,0.2,0.3
	c0,0,0.1,0.1,0.1,0.1c0.1,0.1,0.1,0.3,0.1,0.5c0.7,10.4,2.1,20.7,2.6,31.2l0,0c0.3,0,0.6,0,0.9-0.1c0,0,0.1,0,0.1,0
	c0.3,0,0.5-0.1,0.8-0.2c0,0,0.1,0,0.1,0c0.3-0.1,0.5-0.2,0.7-0.3c0,0,0.1,0,0.1,0c0.2-0.1,0.5-0.2,0.7-0.4c0,0,0,0,0,0
	c0.2-0.1,0.4-0.3,0.6-0.5c0,0,0.1,0,0.1-0.1c0.2-0.2,0.3-0.4,0.5-0.6c0,0,0.1-0.1,0.1-0.1c0.1-0.2,0.3-0.5,0.4-0.7c0,0,0-0.1,0-0.1
	c0.1-0.3,0.2-0.6,0.3-0.9c0.1-0.3,0.2-0.5,0.4-0.7l0,0c-0.6-9.7-1.3-19.4-2.1-29.1c-0.9-10.4-2.1-20.9-8.8-29.2
	c-0.1-0.1-0.1-0.2-0.2-0.3c-0.3,0.2-0.6,0.4-1,0.2c-15.8-3.9-16.1,25.7-17,35.5c0,0.2-0.1,0.3-0.1,0.4c0,0,0,0.1-0.1,0.1
	c0,0.1-0.1,0.1-0.1,0.2c-0.1,0.1-0.2,0.2-0.3,0.2c0.5,0.2,1,0.7,0.9,1.4c-1.3,9.8-2,19.8-2.4,29.7c0,0.1,0,0.1,0,0.2
	C326.2,123.3,327.2,123.1,328.3,122.9z M335.3,81.2c0-0.1,0-0.3,0-0.4l0,0c0.8-7.2,2.1-14.4,4.4-21.3c0.5-1.3,2.5-0.9,2.3,0.4
	c3.6,6.4,4.2,14.2,4.9,21.4c0.1,0.9-0.7,1.2-1.4,1.1l0,0c-0.1,0.1-0.3,0.3-0.5,0.3c0,0,0,0-0.1,0c-0.1,0-0.1,0-0.2,0
	c0,0-0.1,0-0.1,0c-0.1,0-0.2,0-0.3,0c-2.5-0.5-5.2-0.7-7.7-0.3c-0.1,0-0.2,0-0.2,0c-0.1,0-0.2,0-0.3,0l0,0c-0.5,0-1-0.4-1-1.1
	C335.3,81.3,335.3,81.3,335.3,81.2L335.3,81.2z M341.2,80C341.2,80,341.2,80,341.2,80c1.1,0.1,2.3,0.2,3.4,0.4l0,0
	c-0.1-0.9-0.2-1.8-0.3-2.7c0-0.4-0.1-0.8-0.1-1.1c-0.1-0.5-0.1-1-0.2-1.5c0-0.3-0.1-0.6-0.1-1c-0.1-0.5-0.1-1-0.2-1.5
	c0-0.3-0.1-0.6-0.1-0.9c-0.1-0.5-0.2-1.1-0.3-1.6c-0.1-0.3-0.1-0.5-0.2-0.8c-0.1-0.5-0.2-1.1-0.4-1.6c-0.1-0.2-0.1-0.5-0.2-0.7
	c-0.2-0.5-0.3-1.1-0.5-1.6c-0.1-0.2-0.2-0.4-0.2-0.6c-0.2-0.6-0.4-1.1-0.7-1.7l0,0c-1.6,5.5-2.7,11.2-3.3,16.9
	C338.9,79.9,340.1,79.9,341.2,80z M368,127.6c-7.1,4.5-15.8,13.9-10.4,23c4.8,8,15.2,9.8,23.7,7.9c1.5-0.3,2.1,1.9,0.6,2.2
	c-9.3,2.1-23,0-26.9-10.3c-4-10.4,3.5-19.4,11.9-24.8C368.1,124.8,369.3,126.8,368,127.6z M445.5,113c1.4-0.5,2,1.7,0.6,2.2
	c-24.1,9.1-51.9-2.7-75,11.2c-1.3,0.8-2.4-1.2-1.2-2C393.3,110.4,421.2,122.1,445.5,113z M389.7,44.6c0.1-0.1,0.2-0.2,0.3-0.2
	c0,0,0,0,0,0c0.1-0.1,0.2-0.1,0.4-0.1c0.9-0.1,1.8-0.2,2.6-0.5c0.7-0.2,1.5,0.3,1.5,1.1c-1.4,20.5-0.8,42-0.2,62.6
	c0,0.6-0.3,0.9-0.8,1.1c0,0.1-0.1,0.2-0.2,0.3c0,0,0,0,0,0c-0.1,0.1-0.2,0.2-0.3,0.2c-1.9,0.8-4.3,1.5-6.4,1.2c-0.1,0-0.2,0-0.3-0.1
	c-0.5,0.1-1.2-0.1-1.4-0.8c-0.9-2.6-1.7-5.2-2.6-7.8c-0.1-0.3-0.2-0.5-0.3-0.8c-0.9-2.6-1.8-5.3-2.7-7.9c-0.1-0.3-0.2-0.5-0.3-0.8
	c-0.9-2.6-1.9-5.3-2.9-7.9c-0.1-0.2-0.2-0.4-0.2-0.6c-1-2.7-2.1-5.4-3.2-8l0,0c-0.1,10.2,0.4,20.3,0.2,30.5c0,0.2,0,0.3-0.1,0.5
	c-0.1,0.1-0.2,0.3-0.3,0.3c0,0,0,0,0,0c0,0.1,0.1,0.2,0.1,0.3c0,1.9-0.3,4.1-1.8,5.5c-1.5,1.4-3.5,1.8-5.5,1.7c-0.1,0-0.2,0-0.3-0.1
	c0,0,0,0-0.1,0c-0.1,0-0.1-0.1-0.2-0.1c0,0,0,0,0,0c-0.2-0.1-0.3-0.3-0.4-0.4l0,0c-0.7,0.1-1.5-0.5-1.3-1.4c0-0.1,0-0.2,0-0.3
	c-0.1-0.1-0.1-0.2-0.2-0.3c0,0,0-0.1,0-0.1c0-0.1,0-0.1-0.1-0.2c0,0,0-0.1,0-0.1c0-0.1,0-0.2,0-0.3c0,0,0,0,0,0c0-0.1,0-0.2,0.1-0.3
	c0,0,0,0,0,0c0-0.1,0.1-0.1,0.1-0.2c0,0,0,0,0,0c0.2-0.2,0.4-0.4,0.6-0.5c-0.2-0.2-0.3-0.4-0.3-0.7c-1.3-19.6,0-39.4-0.3-59
	c0-0.9,0.8-1.3,1.5-1.1l0,0c0.1-0.1,0.1-0.1,0.2-0.2c0,0,0,0,0.1,0c0.1-0.1,0.2-0.1,0.3-0.1c1.9-0.5,3.8-0.9,5.7-1.1
	c0.2,0,0.4,0,0.5,0.1c0.2,0,0.5,0,0.7,0.2c0,0,0,0,0,0c0.1,0.1,0.2,0.1,0.3,0.2c0,0,0,0,0,0c0.1,0.1,0.1,0.2,0.2,0.3
	c4.2,12,9.9,23.5,14,35.6l0,0c0.3-11.3,0.2-22.5-0.2-33.8c0-0.2,0-0.3,0.1-0.4c0,0,0-0.1,0.1-0.1c0-0.1,0.1-0.2,0.2-0.2
	c0,0,0.1-0.1,0.1-0.1c0.1-0.1,0.2-0.1,0.3-0.2c0-0.1-0.1-0.2-0.1-0.3C386.8,46.9,387.7,45.3,389.7,44.6z M385.3,88.3
	c-0.5-1.7-1-3.3-1.6-5c-0.1-0.3-0.2-0.7-0.4-1c-0.5-1.3-0.9-2.6-1.4-4c0-0.1-0.1-0.2-0.1-0.4c-3.6-9.4-7.8-18.5-11.2-28c0,0,0,0,0,0
	c-1.7,0.2-3.3,0.6-4.9,1c-0.1,0-0.1,0-0.2,0c-0.1,0-0.1,0-0.2,0l0,0c0.3,19.4-1,38.8,0.3,58.2c0,0.7-0.4,1-0.9,1.1
	c0.3,0.4,0.5,0.8,0.6,1.2c0,0,0,0,0,0.1c0,0.1,0,0.3,0,0.4c0,0,0,0,0.1,0c1.3,0,2.9-0.1,3.9-1c1-1,1.2-2.4,1.1-3.8
	c0-0.4,0.1-0.7,0.4-0.8c0-0.1,0-0.1,0-0.2c0.2-12.1-0.5-24.2-0.2-36.3c0-1.5,2.4-1.5,2.3,0c0,0.1,0,0.2,0,0.2
	c0.1,0.1,0.1,0.2,0.2,0.3c5.4,12.3,9.7,25.1,13.9,37.8c0.8,0.1,1.7,0,2.6-0.2c0,0,0,0,0,0c0.2,0,0.4-0.1,0.6-0.1c0,0,0.1,0,0.1,0
	c0.2,0,0.4-0.1,0.5-0.1c0.1,0,0.2-0.1,0.2-0.1c0.1,0,0.2-0.1,0.4-0.1c0.2-0.1,0.4-0.2,0.6-0.2c0.1,0,0.1,0,0.2-0.1
	c-0.4-11.6,0.3-23.2,0-34.8c-0.2-5.7-0.4-11.5-0.3-17.2c0-0.2,0-0.4,0-0.5c0,0,0,0,0-0.1c0.2-2.9,1.6-8.2-0.7-8
	c-0.1,0.1-0.3,0.2-0.5,0.3c-1.1,0.3-1.4,1.2-1.5,2.3c0,0.5-0.3,0.9-0.7,1c0,0.1,0.1,0.2,0.1,0.4c0.4,12,0.6,24,0.2,36
	c0,0.2,0,0.3-0.1,0.5c0,0.1-0.1,0.1-0.2,0.2c0,0-0.1,0.1-0.1,0.1c-0.1,0.1-0.2,0.1-0.3,0.2c0,0,0,0,0,0c-0.1,0-0.3,0.1-0.4,0.1l0,0
	c0,0,0,0.1,0,0.1C387.9,89.1,385.7,89.7,385.3,88.3z M382.3,154.1c-0.1,0.1-0.3,0.2-0.4,0.3c-0.1,0-0.1,0.1-0.2,0.1
	c-0.1,0.1-0.3,0.2-0.4,0.3c-0.1,0-0.1,0.1-0.2,0.1c-0.1,0.1-0.3,0.2-0.4,0.3c-0.1,0-0.1,0.1-0.2,0.1c-0.1,0.1-0.3,0.2-0.4,0.2
	c-0.1,0-0.2,0.1-0.2,0.1c-0.1,0.1-0.3,0.1-0.4,0.2c-0.1,0-0.2,0.1-0.3,0.1c-0.1,0.1-0.3,0.1-0.4,0.2c-0.1,0-0.2,0.1-0.3,0.1
	c-0.1,0-0.3,0.1-0.4,0.1c-0.1,0-0.2,0.1-0.3,0.1c-0.1,0-0.3,0.1-0.4,0.1c-0.1,0-0.2,0-0.4,0.1c-0.1,0-0.3,0.1-0.4,0.1
	c-0.1,0-0.3,0-0.4,0.1c-0.1,0-0.3,0-0.4,0c-0.1,0-0.3,0-0.4,0c-0.1,0-0.2,0-0.4,0c-0.2,0-0.3,0-0.5,0c-0.1,0-0.2,0-0.3,0
	c-0.2,0-0.4,0-0.5,0c-0.1,0-0.2,0-0.3,0c-0.3,0-0.6,0-0.9-0.1c-7.7-1-14-6.6-12-14.9c0.1-0.4,0.3-0.6,0.5-0.7
	c-0.1-0.1-0.1-0.2-0.2-0.3c0,0,0,0,0,0c0-0.1,0-0.2,0-0.3c0,0,0,0,0-0.1c0-0.1,0-0.2,0.1-0.3c0,0,0,0,0-0.1c0.1-0.1,0.1-0.2,0.2-0.3
	c10-10.8,26-12.1,39.9-12.2c0.5,0,0.9,0.3,1,0.7l0,0c0-0.1,0.1-0.2,0.1-0.3c0,0,0,0,0,0c0.1-0.1,0.1-0.2,0.2-0.2c0,0,0,0,0,0
	c0.1-0.1,0.2-0.1,0.3-0.2c0,0,0,0,0.1,0c0.1,0,0.2-0.1,0.3-0.1c21.3-1.3,43.7,0.7,59.9-16c1-1.1,2.7,0.6,1.6,1.6
	c-16.7,17.2-39.6,15.4-61.6,16.7c-0.1,0-0.2,0-0.3,0c0,0,0,0-0.1,0c-0.1,0-0.2-0.1-0.2-0.1c0,0,0,0,0,0c-0.1-0.1-0.2-0.1-0.2-0.2
	c0,0,0,0,0,0c-0.1-0.1-0.1-0.2-0.1-0.2l0,0c-0.1,0.4-0.5,0.8-1.1,0.8c-13.2,0.1-28.7,1.2-38.2,11.5c-0.1,0.1-0.1,0.1-0.2,0.2l0,0
	c0.2,0.2,0.3,0.6,0.2,0.9c-1.7,6.8,4,11.8,10.5,12c7.7,0.2,12.2-5,11.8-12.6c0-0.2,0-0.3,0.1-0.4c0,0,0-0.1,0-0.1
	c0.1-0.1,0.1-0.2,0.2-0.3c0,0,0,0,0.1,0c0.1-0.1,0.2-0.1,0.2-0.1c0,0,0.1,0,0.1-0.1c0.1,0,0.1,0,0.2,0c0.1,0,0.2,0,0.4,0
	c0,0,0.1,0,0.1,0c0.1,0,0.2,0,0.2,0.1l0,0c0-0.5,0.4-1,1.1-1c1.7,0.1,3.4,0.4,5,0.9c0.5,0.1,0.8,0.6,0.8,1.1
	c0.1,7.4-2.6,14.1-8.9,18.3c-1.2,0.8-2.4-1.2-1.2-2c0.3-0.2,0.7-0.5,1-0.7c0.1-0.1,0.2-0.2,0.3-0.3c0.2-0.2,0.4-0.3,0.6-0.5
	c0.1-0.1,0.2-0.2,0.4-0.4c0.2-0.2,0.3-0.3,0.5-0.5c0.1-0.1,0.2-0.3,0.4-0.4c0.1-0.1,0.3-0.3,0.4-0.4c0.1-0.2,0.2-0.3,0.4-0.5
	c0.1-0.1,0.2-0.3,0.3-0.4c0.1-0.2,0.2-0.3,0.4-0.5c0.1-0.1,0.2-0.3,0.3-0.4c0.1-0.2,0.2-0.4,0.3-0.6c0.1-0.1,0.2-0.3,0.2-0.4
	c0.1-0.2,0.2-0.4,0.3-0.6c0.1-0.1,0.1-0.3,0.2-0.4c0.1-0.2,0.2-0.4,0.3-0.7c0-0.1,0.1-0.2,0.1-0.4c0.1-0.2,0.2-0.5,0.3-0.7
	c0-0.1,0.1-0.2,0.1-0.3c0.1-0.3,0.2-0.5,0.2-0.8c0-0.1,0.1-0.2,0.1-0.3c0.1-0.3,0.1-0.5,0.2-0.8c0-0.1,0-0.2,0.1-0.2
	c0.1-0.3,0.1-0.6,0.2-0.9c0-0.1,0-0.1,0-0.2c0-0.3,0.1-0.6,0.1-0.9c0,0,0-0.1,0-0.1c0-0.3,0.1-0.7,0.1-1c0,0,0-0.1,0-0.1
	c0-0.4,0-0.7,0-1.1c-0.2-0.1-0.4-0.1-0.7-0.1c-0.1,0-0.2,0-0.4-0.1c-0.2,0-0.4-0.1-0.6-0.1c-0.2,0-0.4-0.1-0.5-0.1
	c-0.1,0-0.3,0-0.4-0.1c-0.3,0-0.7-0.1-1-0.1c-0.2,0-0.3-0.1-0.4-0.1c0.1,2.7-0.4,5.3-1.4,7.5c0,0,0,0,0,0c-0.1,0.2-0.2,0.4-0.3,0.6
	c0,0,0,0,0,0c-0.1,0.2-0.2,0.4-0.3,0.6c0,0,0,0,0,0c-0.1,0.2-0.2,0.4-0.4,0.6c0,0,0,0,0,0c-0.1,0.2-0.3,0.4-0.4,0.5c0,0,0,0,0,0.1
	c-0.1,0.2-0.3,0.3-0.4,0.5c0,0,0,0-0.1,0.1c-0.1,0.2-0.3,0.3-0.4,0.4c0,0-0.1,0.1-0.1,0.1c-0.1,0.1-0.3,0.3-0.4,0.4
	c0,0-0.1,0.1-0.1,0.1c-0.1,0.1-0.3,0.3-0.4,0.4C382.4,154,382.3,154,382.3,154.1z"/>
</svg>
