<?xml version="1.0" encoding="utf-8"?>
<!-- Generator: Adobe Illustrator 18.1.1, SVG Export Plug-In . SVG Version: 6.00 Build 0)  -->
<svg version="1.1" id="Layer_1" xmlns="http://www.w3.org/2000/svg" xmlns:xlink="http://www.w3.org/1999/xlink" x="0px" y="0px"
	 viewBox="0 0 40 40" enable-background="new 0 0 40 40" xml:space="preserve">
<g>
	<g>
		<path d="M11,27.1c1.9,1.2,4.2,1.9,6.6,1.9c8,0,12.5-6.7,12.2-12.7c0.8-0.6,1.6-1.4,2.2-2.2c-0.8,0.3-1.6,0.6-2.5,0.7
			c0.9-0.5,1.6-1.4,1.9-2.4c-0.8,0.5-1.8,0.8-2.7,1c-0.8-0.8-1.9-1.4-3.1-1.4c-2.8,0-4.8,2.6-4.2,5.3c-3.6-0.2-6.8-1.9-8.9-4.5
			c-1.1,1.9-0.6,4.4,1.3,5.7c-0.7,0-1.4-0.2-2-0.5c0,2,1.4,3.8,3.5,4.3c-0.6,0.2-1.3,0.2-1.9,0.1c0.5,1.7,2.1,2.9,4,3
			C15.6,26.7,13.3,27.3,11,27.1z M39.9,19.9c0,0.2,0.1,0.1,0.1,0.1C40,19.8,39.9,20,39.9,19.9z M39.5,17l-0.2-0.4L39.5,17L39.5,17z
			 M39.2,15.7l0.2,0.2c-0.1-0.3-0.2-0.6-0.3-1c-0.1-0.3-0.2-0.6-0.2-0.8C38.7,14.5,39.1,15.1,39.2,15.7L39.2,15.7z M38.7,12.9
			c0-0.1-0.1-0.1-0.1-0.3C38.6,12.7,38.4,12.3,38.7,12.9C38.7,12.9,38.7,12.9,38.7,12.9z M38.7,12.9C38.8,13.2,38.7,12.7,38.7,12.9
			L38.7,12.9z M38.3,12c0-0.1-0.1-0.4-0.1-0.3c-0.2-0.4-0.2-0.3-0.1,0L38.3,12z M38,11.5c0,0,0-0.1-0.1-0.2
			C37.9,11.3,37.9,11.4,38,11.5C37.9,11.5,38,11.5,38,11.5z M38.1,11.7c-0.1,0,0,0,0.1,0.2L38,11.5C38,11.6,37.9,11.6,38.1,11.7z
			 M38.2,12.3c0.2,0.3,0.2,0.5,0.3,0.5c0,0,0-0.2-0.2-0.6C38.3,12.3,38.4,12.6,38.2,12.3z M38.6,14.1c0,0,0,0.1,0,0.1
			c0,0.1,0,0.1,0,0.1l0.1,0.2c0-0.1-0.1-0.2-0.1-0.3C38.7,14.2,38.6,14.1,38.6,14.1z M37.1,9.7c0,0.1,0.1,0.1,0.1,0.1
			C37.1,9.7,37,9.4,37,9.4c0,0,0,0.2,0,0.2C37,9.6,37,9.7,37.1,9.7z M37,9.6l-0.3-0.3C36.9,9.6,37,9.6,37,9.6z M37.9,11.6
			c0.1,0.2,0.2,0.3,0.2,0.3S38,11.8,37.9,11.6c-0.1-0.2-0.1-0.2-0.2-0.3c0-0.1-0.1-0.1-0.1-0.1l0.1,0.1
			C37.7,11.3,37.8,11.5,37.9,11.6z M36.1,8.1c0.1,0,0.1,0.1,0.1,0.1S36.2,8.1,36.1,8.1c-0.2-0.1-0.3-0.2-0.3-0.2L36,8
			C36,8,36.1,8,36.1,8.1z M35.4,7c-0.2-0.2-0.4-0.4-0.6-0.5c0.2,0.2,0.4,0.4,0.5,0.7C35.5,7.2,35.2,6.9,35.4,7z M36.2,8.5
			c0,0,0.1,0.1,0.1,0.1c0,0,0-0.1-0.1-0.3L36.2,8.5z M36.2,8.5L36.2,8.5C36.1,8.3,36,8.2,36,8.2C36,8.2,36.1,8.3,36.2,8.5z
			 M36.9,10.1c0.1,0.1,0-0.1,0.3,0.1C37,10.1,36.7,9.7,36.9,10.1z M36.6,9.3C36.6,9.3,36.6,9.2,36.6,9.3c0.1,0,0-0.1-0.1-0.2
			c0,0-0.1-0.1-0.1-0.1c0,0-0.1-0.1-0.1-0.1s0.1,0.1,0.1,0.2C36.5,9.2,36.6,9.3,36.6,9.3z M36.2,8.7l0.2,0.2L36.2,8.7L36.2,8.7z
			 M34.9,6.9c-0.2-0.1-0.3-0.3-0.5-0.5C34.6,6.6,34.8,6.8,35,7C35,7,35.1,7.1,34.9,6.9z M32.7,4.7C32.7,4.7,32.7,4.8,32.7,4.7
			C32.7,4.8,32.7,4.8,32.7,4.7L32.7,4.7z M35,7.1c0.1,0.2,0.2,0.2,0.3,0.3C35.2,7.3,35.1,7.2,35,7.1C35,7,34.9,7,35,7.1z M34,5.8
			C34,5.9,34.1,6,34.2,6.1C34.1,6,34,5.8,34,5.8z M35.5,7.6C35.5,7.6,35.5,7.6,35.5,7.6C35.5,7.5,35.5,7.5,35.5,7.6z M35.5,7.6
			c-0.1-0.1-0.1-0.1-0.2-0.2C35.4,7.5,35.5,7.6,35.5,7.6C35.5,7.6,35.5,7.6,35.5,7.6z M31.4,4.4C31.4,4.4,31.4,4.4,31.4,4.4
			c0.1,0.1,0.2,0.1,0.2,0.1c0.1,0.1,0.2,0.1,0.2,0.1c0,0-0.2-0.1-0.1,0c0,0,0.2,0,0.3,0.1c0.2,0.1,0.3,0.3,0.5,0.4
			c0.4,0.2,0.3-0.1,0.1-0.5c0,0,0,0-0.4-0.2c0.1,0.1,0.7,0.7,0.4,0.5c-0.2-0.2-0.3-0.3-0.4-0.3c-0.1-0.1-0.1-0.1-0.2-0.2
			C32.2,4.8,31.4,4.2,31.4,4.4z M33.3,5.3c0.1,0.1,0.1,0.1,0.1,0.1L33.3,5.3l0.2,0.2c-0.1-0.2-0.2-0.3-0.4-0.5
			c-0.3-0.2-0.3-0.2-0.4-0.2c0,0,0.2,0.2,0.4,0.3C33.1,5.2,33.2,5.2,33.3,5.3z M33.7,6c0.4,0.4,0.3,0.2,0.6,0.4
			c-0.6-0.6,0.2,0.2-0.2-0.3c0.1,0.1,0.2,0.2,0.4,0.3c-0.1-0.1-0.2-0.2-0.3-0.4c0,0,0,0,0,0l0,0h0c0,0,0,0,0,0c0,0,0,0,0,0
			c0,0,0,0-0.1,0c-0.2-0.2,0,0,0.1,0c0,0,0,0,0,0c0,0,0,0,0,0c0,0-0.2-0.2-0.3-0.3c-0.2-0.1-0.3-0.3-0.3-0.3
			c0.1,0.1,0.3,0.3,0.6,0.6C33.9,6,33.6,5.7,33.7,6z M36.5,9.8C36.5,9.8,36.5,9.8,36.5,9.8C36.5,9.8,36.5,9.7,36.5,9.8z M36.5,9.8
			c0.1,0.1,0.3,0.3,0.1,0L36.5,9.8C36.4,9.4,36.3,9,36.3,9c0,0.1,0,0.2,0.1,0.5C36.4,9.5,36.5,9.6,36.5,9.8
			C36.7,9.9,36.5,9.8,36.5,9.8z M34.8,7.2L35,7.5l0,0c0.3,0.3,0.2,0.2,0.3,0.3c0,0,0,0-0.1-0.1c0-0.1-0.1-0.1-0.2-0.2
			C34.9,7.3,34.8,7.2,34.8,7.2z M32.8,4.6c0,0-0.1,0-0.2-0.1c-0.1,0-0.2-0.1-0.2-0.1l0.3,0.2L32.8,4.6z M31.9,4c0,0-0.1,0-0.1-0.1
			c-0.1,0-0.1-0.1-0.1-0.1L31.9,4L31.9,4z M2.7,28.5L2.7,28.5C2.7,28.5,2.7,28.5,2.7,28.5z M8.7,3.3l0.1,0C9,3.2,9.1,3.1,9.3,3.1
			C9,3.2,8.6,3.3,8.7,3.3z M0.7,16.3C0.7,16.2,0.7,16.2,0.7,16.3c0-0.2,0-0.2,0-0.3C0.7,16,0.7,16.1,0.7,16.3z M0.9,16.9
			c0-0.1,0.1-0.2,0.1-0.4L0.9,16.9z M9.3,35.8c-0.3-0.2-0.2-0.1-0.3-0.1c0,0,0.1,0,0.1,0C9.3,35.8,9.3,35.8,9.3,35.8z M2.3,29.7
			c0.1,0.1,0.1,0.1,0.1,0.1C2.4,29.7,2.3,29.7,2.3,29.7z M21.2,0.1c0,0,0.1,0,0.1,0c0.2,0,0.4,0,0.7,0C21.8,0.1,21.5,0.1,21.2,0.1z
			 M39.6,23.1c0-0.1,0-0.2,0-0.4C39.6,22.8,39.6,23,39.6,23.1z M28.5,2C28.7,2.1,28.6,2,28.5,2L28.5,2z M19.2,0.6L19.2,0.6
			C19.2,0.6,19.2,0.6,19.2,0.6z M28.8,2.2c-0.1,0-0.1-0.1-0.2-0.1C28.6,2,28.7,2.1,28.8,2.2z M28.8,2.1c0.1,0,0.1,0.1,0.2,0.1
			C28.9,2.2,28.9,2.2,28.8,2.1z M28.2,1.9c0.1,0,0.2,0.1,0.3,0.1c0,0,0,0,0,0C28.5,2,28.4,1.9,28.2,1.9z M22.4,39.2
			C22.4,39.2,22.4,39.2,22.4,39.2C22.6,39.1,22.5,39.1,22.4,39.2z M5.8,7.1C5.8,7.1,5.8,7.1,5.8,7.1C5.8,7.1,5.8,7.1,5.8,7.1
			L5.8,7.1z M5.4,7.1L5.4,7.7c0.1-0.3,0.2-0.4,0.4-0.6c0,0-0.1,0-0.2,0C5.5,7.1,5.4,7.1,5.4,7.1z M39.7,21.3c0-0.3,0-0.6,0-0.6
			l0,0.4c-0.1-0.2-0.2-0.1-0.3,0.1c-0.1,0.2-0.2,0.5-0.3,0.4c0,0.1,0,0.3,0,0.5c0,0.2-0.1,0.3-0.1,0.5c-0.1,0.4-0.2,0.8-0.2,1.2
			c-0.1,0.2,0-0.2-0.1-0.1c0,0.2,0,0.5-0.1,1l0-0.1c-0.1,0.3-0.2,0.6-0.2,0.9c-0.1,0.3-0.2,0.5-0.3,0.7c-0.1,0.2-0.2,0.5-0.3,0.7
			c-0.1,0.3-0.2,0.6-0.4,0.9l0.1-0.1c-0.1,0.3-0.2,0.3-0.3,0.5c0,0.4,0.4-0.8,0.4-0.5c-0.1,0.1-0.2,0.3-0.3,0.5
			c-0.1,0.2-0.2,0.5-0.4,0.7c-0.1,0.3-0.3,0.5-0.4,0.7c-0.1,0.2-0.2,0.3-0.3,0.4c-0.3,0.4,0.2-0.1-0.1,0.4l-0.1,0.1l0,0.2
			c-0.2,0.3-0.4,0.4-0.4,0.3c0.1-0.1,0.1-0.2,0.2-0.3c-0.2,0.2-0.3,0.4-0.5,0.6c-0.1,0.2-0.3,0.4-0.3,0.5c0,0,0.1-0.1,0.2-0.2
			c0.1-0.1,0.2-0.2,0.2-0.2c-0.8,1.2-2,2.3-3,3.3l0.1,0c-0.2,0.2-0.3,0.3-0.4,0.4c-0.1,0.1-0.2,0.1-0.3,0.2
			c-0.2,0.1-0.4,0.2-0.8,0.6l0,0c-0.2,0.2-0.4,0.3-0.7,0.5c0.2-0.2-0.5,0.2-0.2,0c-0.4,0.3-0.6,0.4-0.6,0.5
			c-0.1,0.1-0.1,0.1-0.4,0.4l-0.2,0c-0.1,0.1-0.1,0.1-0.2,0.2c-0.1,0.1-0.2,0.2-0.5,0.3c0.4-0.2-0.4,0,0.1-0.2
			c-0.3,0.1-0.5,0.2-0.7,0.3c-0.2,0.1-0.4,0.2-0.5,0.3c-0.3,0.2-0.6,0.3-0.9,0.2c-0.2,0.2,0,0.1,0.3,0c0.3-0.1,0.6-0.2,0.4-0.1
			c0.1,0,0,0.1-0.1,0.2c-0.2,0.1-0.4,0.2-0.6,0.2c-0.2,0.1-0.4,0-0.6,0c-0.1,0-0.3,0-0.4,0c-0.1,0-0.2,0-0.3,0c-0.1,0-0.2,0-0.3,0.1
			c0.1,0,0.1,0,0.2-0.1c-0.2,0-0.3,0.1-0.5,0.1c-0.1,0-0.2,0.1-0.3,0.1c-0.1,0-0.2,0-0.3,0c-0.2,0.2-0.6,0.1-0.6,0.3l0.9-0.2
			c-0.2,0.1-0.5,0.2-0.7,0.3c-0.3,0.1-0.6,0.1-1,0.2c0.1,0,0.3-0.1,0.5-0.2c-0.2,0-0.5,0.1-0.7,0.1c0-0.1,0.3-0.1,0.6-0.2
			c0.2,0,0.3,0,0.5-0.1c0.2,0,0.3-0.1,0.4-0.1c-0.1,0-0.4,0.1-0.6,0.1c-0.2,0-0.3,0.1-0.2,0c-0.2,0.1-0.4,0.2-0.7,0.2
			c-0.3,0-0.6,0-0.9,0.1l0-0.1c-0.1,0-0.3,0.1-0.5,0.1l0.3-0.1c-0.5,0.1-1-0.1-1.5,0c0.5,0,0.6,0,0.6,0.1c0,0-0.1,0.1,0.1,0.1
			c-1.3,0.1-0.7-0.2-2.2-0.3c0.2,0,0.7,0.1,0.4,0.1c-0.3,0-0.6-0.1-0.8-0.2c-0.9-0.1,0.1,0.1-0.3,0.1c-0.3-0.2-0.5,0-0.9-0.1l0-0.1
			c-0.3-0.1-0.4-0.1-0.5-0.1c-0.1,0-0.1,0-0.2,0c-0.1,0-0.1,0.1-0.6-0.1l0.4,0c0,0-0.1,0-0.3,0c-0.1,0-0.1,0-0.2,0c0,0-0.1,0-0.1,0
			l0.1-0.1c-0.3,0-0.5-0.1-0.6-0.1c-0.2,0-0.3-0.1-0.6-0.2c0.1,0.1-0.1,0.1-0.6,0c-0.3-0.2,0.2,0-0.4-0.3c0.2,0,0.3,0,0.6,0.2
			c0,0,0.2,0,0.2,0c-0.3-0.2-0.8-0.3-1.1-0.4c0.1,0,0.2,0.1,0.2,0.1c0,0-0.2-0.1-0.5-0.1c-0.2-0.1-0.5-0.1-0.5-0.1
			c-0.1-0.1,0-0.1,0.1,0c-0.2-0.1-0.3-0.1-0.6-0.2c0.1,0,0.1-0.1,0.5,0c0,0-0.1,0-0.1,0c-0.1,0-0.2-0.1-0.3-0.1
			C11.3,37,11,36.9,11,36.9c0-0.1-0.4-0.3-0.3-0.3c-0.2-0.1-0.5-0.3-0.8-0.4c-0.3-0.2-0.6-0.3-0.9-0.5c0,0-0.1,0-0.2-0.1
			c-0.1-0.1-0.3-0.2-0.4-0.3c-0.1-0.1-0.2-0.2-0.4-0.3c-0.1-0.1-0.2-0.2-0.4-0.3c-0.1-0.1-0.3-0.2-0.4-0.3c0,0-0.1-0.1-0.1-0.2
			C7.1,34.1,7.1,34,7.1,34c-0.5-0.4,0.3,0.5-0.5-0.1c-0.5-0.5-0.1-0.3-0.3-0.5C6.2,33.3,6,33.2,5.8,33c-0.2-0.2-0.4-0.4-0.6-0.7
			c0.2,0.1,0.3,0.3,0.4,0.4l-0.3-0.4C5.8,32.6,6,33,5.8,32.6c-0.1,0.1-0.5-0.3-0.8-0.7c-0.2-0.2-0.3-0.4-0.4-0.5
			c-0.1-0.1-0.2-0.2-0.3-0.2l-0.1-0.3C4.3,31,4.3,31,4.3,31.1c-0.3-0.6-0.4-0.3-0.9-1c-0.1-0.3-0.2-0.5-0.1-0.3L3,29.3
			c-0.1-0.2,0-0.1,0.1,0c0,0,0-0.1-0.1-0.1c0-0.1-0.1-0.2-0.2-0.3c-0.1-0.2-0.2-0.4-0.2-0.4l0,0c-0.1-0.1-0.3-0.4-0.4-0.5
			c-0.1-0.2,0.1,0.1,0.1,0c0,0-0.1-0.1-0.1-0.2c0-0.1-0.1-0.1-0.1-0.2c0,0,0-0.1,0-0.1c0-0.1,0-0.1,0.1,0c0.1,0.1,0.2,0.3,0.2,0.5
			c0-0.3,0-0.4-0.1-0.5c-0.1-0.2-0.2-0.4-0.4-0.9c0,0,0,0,0,0.1c0,0,0,0.1,0.1,0.2C2.1,26.9,2.1,27,2.1,27c0-0.2,0-0.4-0.1-0.6
			C2,26.3,1.9,26,1.9,25.7c0,0.1,0.1,1.2-0.1,0.6c0-0.2-0.1-0.4-0.2-0.7c0.1,0,0-0.3-0.1-0.7l0.1,0c-0.2-0.4-0.2-0.3-0.3-0.6
			c-0.1-0.5,0-0.6,0-0.7C1.2,23,1.2,24.3,1,23.4C1,23.3,1,23.1,1,23c0-0.1,0-0.3-0.1-0.4c-0.1-0.3-0.1-0.6-0.2-0.9
			c0-0.4,0.1,0.1,0.1-0.1l-0.1-0.4c0-0.1,0-0.1,0-0.1c-0.1-0.3-0.1,0-0.2-0.5c-0.1-0.1,0-0.3,0-0.7c0.1-0.3,0.1-0.7,0-1
			c0-0.2,0.1,0.1,0.1,0c0-0.9,0-0.7-0.1-1.5c0,0,0-0.1,0.1-0.3c0-0.1,0.1-0.3,0.1-0.3c-0.2,0.4-0.2-0.2-0.2-0.7
			c-0.1,0.1-0.1,0.3-0.2,0.4c0,0,0-0.2,0-0.4c0-0.1,0-0.2,0-0.3c0-0.1,0-0.1,0-0.1c0-0.1,0.1,0,0.1,0.1c0-0.1,0-0.1,0-0.2
			c0.1-0.3,0.2-0.1,0.2,0.1c0,0.1-0.1,0.2-0.1,0.3c0,0.2,0.1,0.4,0.2,0.4c0-0.1,0-0.2,0-0.3c0,0.1,0,0.1,0,0.1c0,0,0-0.1,0-0.2
			L1.1,16l0-0.1c0,0,0.1-0.2,0.2-0.5c0-0.1,0.1-0.2,0.1-0.3c0-0.1,0.1-0.2,0.1-0.2c0-0.2,0-0.4,0-0.6c0-0.2,0-0.4,0.1-0.6
			c0-0.2,0.1-0.4,0.1-0.7c0.1-0.2,0.1-0.5,0.2-0.8c0,0.3,0.1,0.1,0.2,0.2c-0.1,0.1-0.2,0.3-0.3,0.6c0,0.1-0.1,0.3-0.1,0.4
			c0,0.1-0.1,0.3-0.1,0.4c0.1-0.3,0.1-0.2,0.1-0.1c0,0,0-0.1,0-0.2c0-0.1,0.1-0.2,0.1-0.4C2,13.1,2,12.8,2,12.8
			c0.1,0.1,0.2-0.2,0.3-0.4c-0.1,0.1-0.1-0.1,0-0.4c0.1-0.3,0.3-0.6,0.4-0.8c0.1,0,0.1,0.1-0.2,0.6C3,11.3,2.7,11,3.1,10.5
			C3,10.6,3,10.7,3,10.7c0.1-0.1,0.2-0.4,0.3-0.6C3.4,10,3.5,9.9,3.5,10l-0.1,0.1c0.1-0.2,0.3-0.4,0.4-0.7C4,9.2,4.2,8.9,4.3,8.7
			c0.3-0.5,0.6-0.9,0.6-1C4.9,7.7,5,7.9,5,8c0,0,0-0.1,0.1-0.2c0.1-0.1,0.1-0.3,0.2-0.5C5.4,7,5.4,6.8,5.5,6.7
			c0.1-0.1,0.1-0.2,0.1-0.2c0,0.2,0.6,0.1,0.2,0.6C6,6.9,6.2,6.8,6.4,6.4C6.3,6.5,6,6.5,6.2,6.4c0.5-0.3,0.3-0.2,0.9-0.5
			C6.9,6,6.9,5.6,7.2,5.4c0,0.1,0.2,0.2,0.1,0.3c0,0,0.1-0.2,0.2-0.4c0.1-0.2,0.3-0.4,0.3-0.4C7.6,5.1,7.9,5.1,8.1,5.1
			c0,0,0.1-0.1,0.3-0.2c0.2-0.1,0.4-0.3,0.5-0.3L8.5,4.6c0.8-0.5,0.6-0.8,1.4-1.3c-0.1,0.1-0.1,0.4,0.3,0.2c0.1-0.2,0.6-1,1.3-1.4
			l0.2,0c0,0,0.1-0.1,0.3-0.2c0.1,0,0.1-0.1,0.2-0.1s0.1,0,0.1,0c-0.2,0.1-0.5,0.4-0.8,0.7c-0.3,0.3-0.6,0.6-0.9,0.8
			c0.3-0.1,0.1,0,0.6-0.2c0.2,0-0.2,0.2-0.4,0.3c0,0,0.3-0.1,0.6-0.3C11.6,3,11.8,3,11.9,2.9C12,2.9,12,2.9,12,2.9
			c-0.1-0.1,0.1-0.2,0.4-0.3c0.2-0.1,0.4-0.2,0.4-0.3c0,0-0.1,0-0.2,0.1c-0.1,0.1-0.3,0.1-0.4,0.2c-0.3,0.2-0.6,0.3-0.6,0.3
			c-0.1,0,0.1-0.2,0.3-0.4c0.1-0.1,0.3-0.2,0.5-0.3C12.6,2.1,12.8,2,13,2c0.2,0-0.1,0.3,0,0.3c0,0,0.2-0.1,0.4-0.2
			c0.2-0.1,0.4-0.1,0.4-0.1l-0.3,0.2c0.2-0.1,0.4-0.2,0.6-0.3c0.2-0.1,0.4-0.2,0.7-0.2c0.2-0.1,0.6,0,0.6-0.1
			C15,1.5,14.9,1.1,15,0.9c0,0,0.3,0,0.6-0.1c0.3,0,0.6,0,0.7,0c0.4,0.1-0.4,0.4-0.1,0.4c0,0,0.2-0.1,0.3-0.1c0.2,0-0.1,0.1,0.4,0
			C17,1,17.8,1,17.1,1c0.2,0,0.3-0.1,0.5-0.1c0.1,0,0.3,0,0.5,0c-0.2-0.1,0.5-0.3,0.9-0.4c0,0,0.1,0.1,0.1,0.1c0.2,0,0.4,0,0.6,0
			c0.2,0,0.4,0,0.6,0c0.2,0,0.4,0,0.5,0c0.2,0,0.4,0,0.6,0.1c0.1,0,0.5,0.1,0.3,0.2c0.1,0,0.2,0,0.5,0c0.5,0.2-0.6-0.1-0.2,0.1
			c0-0.1,0.7,0,1.1,0c0-0.1-0.3-0.1-0.5-0.1c-0.3,0-0.5,0-0.7,0c0-0.1,0.2-0.2,0.5-0.2c0.1,0,0.3,0,0.5,0c0.2,0,0.4,0,0.6,0
			c0.4,0,0.4,0.1,0.4,0.1c0,0-0.1,0,0,0C24.3,0.9,24.6,1,24.8,1c0.2,0,0.3,0,0.5,0c0.3,0,0.5,0,1.1,0.3c0.4,0.2-0.1,0.2,0,0.3
			c-0.3-0.1-0.5-0.2-0.7-0.3c-0.2-0.1-0.4-0.2-0.6-0.2l0.5,0.2c-0.2,0-0.6-0.1-0.8-0.2c0.1,0,0.3,0.1,0.5,0.2c0.1,0,0.3,0.1,0.4,0.1
			c0.1,0,0.3,0.1,0.5,0.2c0.2,0.1,0.3,0.1,0.5,0.2c0.2,0.1,0.3,0.1,0.5,0.2c0.3,0.1,0.6,0.3,0.8,0.4c0.2,0,0.5,0.1,0.4,0L28,2.3
			c-0.2-0.2,0.6,0.2,0.3-0.1c0.2,0.1,0.5,0.1,0.7,0.2c0.1,0,0.3,0.1,0.4,0.2c0.1,0.1,0.3,0.1,0.4,0.2l0,0.2c0,0-0.3-0.3-0.5-0.3
			c0.3,0.1,0.8,0.6,1.1,0.7c0,0-0.1-0.1-0.2-0.2C30.1,3.2,30,3.1,30,3.1c0.2,0.1,0.5,0.2,0.7,0.3c0.3,0.1,0.5,0.3,0.7,0.4
			c-0.1-0.3-0.1-0.1-0.4-0.4c0.2,0.3-1.2-0.8-0.9-0.3c-0.1-0.2-0.3-0.3-0.5-0.4c-0.2-0.1-0.3-0.2-0.6-0.4c0,0,0.1,0.2-0.3-0.1
			c0,0-0.1,0-0.1,0c0,0,0,0,0,0c0,0,0,0,0,0c0,0,0,0,0,0C28.9,2.3,29,2.3,29,2.4c-0.1,0-0.4-0.1-0.6-0.2c-0.2-0.1-0.5-0.2-0.6-0.2
			c-0.3-0.1,0.1,0,0-0.1c0,0-0.1,0-0.2,0c-0.1,0-0.2,0-0.2,0c0-0.1-0.7-0.4,0-0.2l-0.6-0.2c-0.3-0.2-0.8-0.3-1.1-0.4
			c-0.3-0.1-0.7-0.1-0.5-0.1c0,0-0.2-0.1-0.5-0.1c-0.2,0-0.5-0.1-0.5-0.1l0,0c-0.5-0.1-0.9-0.2-1.4-0.2c-0.1,0-0.2,0-0.3,0
			c0,0,0.1,0,0.1,0c-0.3-0.1-0.5-0.1-0.7-0.1c0.2,0.1,0.3,0.1,0.5,0.1c-0.4,0-0.7-0.1-1.1-0.2c-0.2,0-0.3,0-0.5,0
			c-0.2,0-0.4,0-0.7,0L20.1,0c-0.2,0-0.5,0-0.8,0c-0.3,0-0.5,0-0.6,0C18.6,0,18.4,0,18.2,0c-0.1,0-0.2,0-0.4,0c-0.1,0-0.3,0-0.4,0
			c-0.3,0-0.5,0.1-0.8,0.1c-0.2,0.1-0.5,0.1-0.7,0.1l0,0.1c-0.2,0-0.5,0.1-0.7,0.2c-0.1,0-0.3,0.1-0.4,0.1c-0.1,0-0.3,0.1-0.4,0.1
			l0.1,0.1c-0.2,0.1-0.6,0.2-0.9,0.3c-0.2,0-0.4,0.1-0.6,0.2c-0.2,0.1-0.4,0.1-0.6,0.2c0,0,0.1-0.1,0.2-0.1c-0.2,0-0.4,0.1-0.6,0.2
			c-0.2,0.1-0.5,0.2-0.7,0.4c-0.2,0.1-0.4,0.3-0.7,0.4c-0.2,0.1-0.4,0.2-0.6,0.3C9.9,2.8,9.8,2.9,9.6,2.9c0,0,0,0,0,0
			c0,0-0.1,0-0.1,0C9.5,3,9.4,3,9.3,3.1C9.4,3,9.5,3,9.5,3C9.4,3.1,9.2,3.2,9,3.4l-0.1,0c0,0,0,0,0,0c-0.2,0.1-0.1,0.1,0,0.1
			C8.7,3.6,8.6,3.7,8.5,3.8C8.3,3.8,8,4.2,7.7,4.2c0,0.1-0.3,0.3-0.5,0.5C6.9,5,6.7,5.2,6.7,5.3c0,0-0.1,0,0-0.1
			C6.5,5.4,6.3,5.6,6.1,5.8L6,5.8c0,0-0.1,0.1-0.2,0.3C5.7,6.2,5.7,6.4,5.7,6.4c-0.3,0.2-0.5,0.3-0.3,0C5.3,6.5,5.2,6.7,5.1,6.8
			C5,6.9,5,6.9,4.9,7C4.8,7.1,4.7,7.3,4.5,7.6l0-0.1C4.3,7.7,4.1,8.1,4,8.2C3.9,8.3,3.7,8.5,3.5,8.8c-0.2,0.3-0.4,0.6-0.7,1
			c-0.5,0.8-0.9,1.6-1.3,2.4c0.2-0.1,0.1,0.1-0.1,0.3c-0.1,0.2-0.3,0.4-0.2,0.5c-0.1,0.1-0.2,0.3-0.1,0c-0.1,0.4-0.2,0.7-0.3,0.9
			c-0.1,0.3-0.2,0.5-0.2,0.8c-0.1,0.1,0-0.2-0.1-0.1c0,0.1,0,0.3-0.1,0.3c-0.1,0.1,0-0.1,0-0.3c-0.1,0.2-0.1,0.4-0.1,0.5
			c0,0.1,0,0.2,0,0.3c0,0.1,0.1,0.2,0.2,0.2c-0.1,0.2-0.1,0.3-0.2,0.5c0,0.1,0,0.3,0,0.4c-0.1,0.1-0.2,0.4-0.1-0.1
			c0,0.1,0,0.2-0.1,0.4c0,0.1,0,0.2-0.1,0.3c0,0.1,0,0.2,0,0.3c-0.1,0.4-0.1,0.8,0,0.8c0,0.1,0,0.4,0,0.5c0,0.3,0,0.5,0,0.7
			c0,0.2,0,0.3,0,0.7l0-0.2c0.1,0.3,0,0.5,0.1,1l0,0c0,0.3,0,0.5,0,0.6c0,0.1,0,0.2,0,0.2c0,0.1,0,0.1,0,0.2c0,0.1,0,0.3,0,0.6
			l0.1-0.1c0.1,0,0.1,0.3,0.1,0.6c0,0.3,0,0.7,0.1,1.1l0-0.2c0.1,0.2,0.1,0.4,0,0.7c0,0.3-0.1,0.5,0,0.7c0,0.1-0.1-0.1-0.1-0.2
			c0.1,1,0.2,0.1,0.4,0.8c0,0.1-0.2-0.1-0.1,0.4c0,0.1,0.2,0.4,0.4,0.8c0.1,0.2,0.2,0.4,0.3,0.6c0.1,0.2,0.1,0.4,0.2,0.5
			c0-0.2,0-0.3,0.2,0c0.2,0.5,0.4,1.3,0.8,1.7c0,0.1,0,0.1,0,0.1c0.1,0.2,0.3,0.4,0.5,0.7c0.2,0.2,0.4,0.5,0.5,0.5
			c0,0.1,0.1,0.3,0.2,0.5c0.1,0.2,0.3,0.4,0.5,0.6c0.2,0.2,0.4,0.4,0.5,0.6c0.1,0.2,0.2,0.3,0.1,0.3c0,0,0.2,0.2,0.4,0.4
			C5.3,33.7,5.6,34,5.6,34l0,0c0.3,0.3,0.5,0.5,0.6,0.6c0.2,0.1,0.3,0.2,0.4,0.2c0.1,0.1,0,0.1,0,0.1c0.4,0.4,0.6,0.6,0.9,0.8
			c0.2,0.2,0.5,0.3,0.9,0.5l0,0.1c0.2,0.1,1.3,1.1,2.3,1.5c0,0,0,0-0.1,0c0.6,0.2,1.2,0.6,1.8,0.9c0.6,0.3,1.1,0.5,1.4,0.4
			c0,0,0.2,0,0.4,0.1c0.2,0,0.4,0.1,0.4,0.1c-1-0.3,0.2-0.1-0.2-0.3c0.2,0,0.4,0.1,0.6,0.2c0.1,0.1,0.2,0.1-0.1,0.1l-0.1,0
			c-0.2,0.1,1.3,0.4,1.2,0.5c1,0.2,2.1,0.3,3.1,0.4c1,0.1,2,0,3,0c0,0-0.1,0-0.1-0.1c-0.1,0-0.1-0.1-0.1-0.1s0,0,0.1,0
			c0.1,0,0.1,0,0.2,0c0.2,0,0.3,0,0.3,0c0.2,0,0.3,0.1-0.2,0.1c0.3,0.1,0.8-0.2,0.8-0.2c1-0.1-0.3,0.2-0.1,0.2l0.4-0.1l-0.1,0
			c0.2-0.1,0.2-0.1,0.4-0.1c0.1,0,0.3-0.1,0.5-0.1c0.4-0.1,0.2,0,0.4,0c0,0,0.1,0,0.2,0c0,0,0.1,0,0.1,0c0.1,0,0.2,0,0.3-0.1
			c0.2-0.1,0.4-0.1,0.4-0.1l-0.4,0c0.4-0.2,0.8-0.2,0.4-0.2c0.3,0,1.1-0.2,1.8-0.5c0.4-0.1,0.7-0.3,1-0.4c0.3-0.1,0.5-0.2,0.6-0.3
			c0.1-0.1,0.2-0.2,0.3-0.2c0.1-0.1,0.2-0.2,0.3-0.2c0.2-0.1,0.5-0.3,0.8-0.5c-0.1,0.1-0.3,0,0.2-0.3c0,0.2,0.2,0.1,0.5-0.1
			c0.3-0.2,0.6-0.4,0.9-0.5c-0.2,0.1,0.1-0.2,0.4-0.4c0.3-0.2,0.5-0.5,0.2-0.3c0.4-0.3,0.1,0.1,0.4-0.1c0.8-0.8,1.8-1.7,2.7-2.8
			c0,0-0.2,0.1-0.1-0.2c0,0,0,0,0.1-0.1c0.1,0,0.1-0.1,0.2-0.2c0.1-0.1,0.3-0.2,0.3-0.2c0.1-0.1,0.1-0.2,0.1-0.3
			c0-0.1,0.1-0.2,0.3-0.4c-0.1,0-0.2,0.1-0.1-0.1c0.8-1.1,1.4-2.3,1.9-3.6c0.5-1.3,0.9-2.6,1.2-4c-0.1,0.4-0.1,0.1,0-0.2
			c0,0.2-0.1,0-0.1,0c0,0,0-0.1,0-0.2c0-0.1,0.1-0.2,0.1-0.4c0-0.1,0.1-0.3,0.1-0.4c0-0.1,0-0.2,0-0.2
			C39.7,21.9,39.7,21.6,39.7,21.3z M26.4,1.2C26.4,1.2,26.4,1.2,26.4,1.2C26.1,1.1,26.2,1.1,26.4,1.2z M1.1,15.2
			c0,0.1,0,0.3-0.1,0.4C1,15.5,1,15.4,1.1,15.2z M1.8,26.4c0,0.1,0.1,0.2,0.1,0.3C2,26.7,2,26.8,2,26.9C1.8,26.8,1.8,26.6,1.8,26.4z
			 M24.6,39.4l-0.1,0C24.8,39.3,24.7,39.4,24.6,39.4z M0.9,16.5C0.9,16.5,0.9,16.6,0.9,16.5C0.9,16.6,0.9,16.6,0.9,16.5z M9.1,35.7
			L9.1,35.7C9.1,35.7,9.1,35.7,9.1,35.7L9.1,35.7z M16.5,1.3c-0.1,0-0.2,0-0.3,0C16.3,1.3,16.3,1.3,16.5,1.3z M30.4,3
			c0,0-0.1-0.1-0.2-0.1C30.1,2.8,30,2.8,30,2.8C30.2,2.9,30.3,2.9,30.4,3C30.4,3,30.3,2.9,30.4,3z M33.1,5.8c0.1,0,0.1,0.1,0.2,0.1
			l0,0C33.1,5.7,32.9,5.6,33.1,5.8z M30.6,3.5c0,0.1,0.2,0.2,0.5,0.4c0,0,0,0,0,0C31.2,3.8,30.9,3.6,30.6,3.5z M31.2,3.9
			c0.1,0.1,0.2,0.1,0.2,0.2C31.4,4,31.3,4,31.2,3.9z M28.1,1.8c0.2,0-1-0.3-0.2,0C28,1.9,28,1.7,28.1,1.8z M30.7,3.8l0-0.1l-0.2,0
			L30.7,3.8z M29.2,2.8c-0.3-0.1-0.6-0.3-0.6-0.3L29,2.8C29,2.8,29.1,2.8,29.2,2.8z M29.2,2.8C29.3,2.9,29.4,3,29.5,3
			C29.4,3,29.3,2.9,29.2,2.8z M30,3.4l-0.3-0.2C29.7,3.2,29.8,3.3,30,3.4c0,0,0.1,0.1,0.1,0.1L30,3.4z M23.6,0.9l-0.5-0.1
			c-0.1,0,0.1,0.1,0.3,0.1C23.5,0.9,23.7,0.9,23.6,0.9z M24.9,1.5l0.3,0C25,1.4,25,1.4,24.9,1.4L24.9,1.5z M23.5,1.2
			c0.1,0,0.6,0,0.1-0.1C23.5,1.2,22.8,1.1,23.5,1.2z M15.7,1.1l0.1,0l-0.1-0.2L15.7,1.1z M9.4,4.2C10,3.9,9.5,4,10,3.8
			C10.1,3.7,9.6,4,9.7,3.9C9.4,4.1,9.2,4.2,9.4,4.2z M9.7,3.9c0,0,0.1-0.1,0.1-0.1C9.7,3.8,9.7,3.8,9.7,3.9z M39.9,21.2
			c0,0,0-0.1,0-0.2c0-0.1,0-0.2,0-0.2l-0.1,0.3L39.9,21.2z M39.9,20.3l-0.1-0.2c0,0.1,0,0.3,0,0.3L39.9,20.3z M1.7,25.6l0-0.3l0,0
			C1.6,25.3,1.7,25.4,1.7,25.6z M3.8,30.1L3.8,30.1l-0.1,0.1L3.8,30.1z M6.7,33.5c-0.1-0.1-0.3-0.3-0.4-0.4
			C6.6,33.4,6.6,33.7,6.7,33.5z"/>
	</g>
</g>
</svg>
